<svg width="187" height="32" viewBox="0 0 187 32" fill="none" xmlns="http://www.w3.org/2000/svg">
<path d="M18.0945 1.48167L21.9888 9.43871C22.1916 9.8546 22.5835 10.1433 23.0406 10.2086L31.7435 11.4838C32.8881 11.6522 33.3452 13.0718 32.5169 13.883L26.2165 20.0767C25.89 20.3998 25.7388 20.8673 25.8178 21.3244L27.3027 30.0686C27.4986 31.2166 26.3025 32.0931 25.2782 31.55L17.493 27.4219C17.0874 27.2054 16.6028 27.2054 16.1938 27.4219L8.41203 31.55C7.38776 32.0931 6.19162 31.2166 6.38754 30.0686L7.8724 21.3244C7.95145 20.8673 7.80022 20.3998 7.47025 20.0767L1.17336 13.883C0.345007 13.0718 0.802151 11.6522 1.94673 11.4838L10.6496 10.2086C11.1033 10.1433 11.4986 9.8546 11.7014 9.43871L15.5923 1.48167C16.1044 0.436774 17.5858 0.436774 18.0945 1.48167Z" fill="#FFDE59"/>
<path d="M132.927 1.48167L136.818 9.43871C137.024 9.8546 137.416 10.1433 137.869 10.2086L146.572 11.4838C147.717 11.6522 148.174 13.0718 147.346 13.883L141.049 20.0767C140.719 20.3998 140.571 20.8673 140.647 21.3244L142.135 30.0686C142.331 31.2166 141.135 32.0931 140.11 31.55L132.325 27.4219C131.92 27.2054 131.432 27.2054 131.026 27.4219L123.241 31.55C122.217 32.0931 121.02 31.2166 121.216 30.0686L122.705 21.3244C122.78 20.8673 122.632 20.3998 122.302 20.0767L116.006 13.883C115.177 13.0718 115.634 11.6522 116.779 11.4838L125.482 10.2086C125.936 10.1433 126.327 9.8546 126.534 9.43871L130.424 1.48167C130.937 0.436774 132.415 0.436774 132.927 1.48167Z" fill="#FFDE59"/>
<path d="M171.203 1.48167L175.097 9.43871C175.3 9.8546 175.692 10.1433 176.146 10.2086L184.852 11.4838C185.993 11.6522 186.45 13.0718 185.622 13.883L179.325 20.0767C178.998 20.3998 178.847 20.8673 178.923 21.3244L180.411 30.0686C180.607 31.2166 179.411 32.0931 178.387 31.55L170.601 27.4219C170.196 27.2054 169.711 27.2054 169.302 27.4219L161.52 31.55C160.496 32.0931 159.297 31.2166 159.493 30.0686L160.981 21.3244C161.06 20.8673 160.909 20.3998 160.579 20.0767L154.282 13.883C153.453 13.0718 153.911 11.6522 155.055 11.4838L163.758 10.2086C164.212 10.1433 164.607 9.8546 164.81 9.43871L168.701 1.48167C169.213 0.436774 170.691 0.436774 171.203 1.48167Z" fill="#FFDE59"/>
<path d="M94.6505 1.48167L98.5413 9.43871C98.7441 9.8546 99.1394 10.1433 99.5931 10.2086L108.296 11.4838C109.441 11.6522 109.898 13.0718 109.069 13.883L102.772 20.0767C102.443 20.3998 102.291 20.8673 102.37 21.3244L103.859 30.0686C104.055 31.2166 102.855 32.0931 101.834 31.55L94.049 27.4219C93.6399 27.2054 93.1553 27.2054 92.7497 27.4219L84.9645 31.55C83.9403 32.0931 82.7441 31.2166 82.94 30.0686L84.4249 21.3244C84.5039 20.8673 84.3527 20.3998 84.0262 20.0767L77.7259 13.883C76.9009 13.0718 77.3581 11.6522 78.5027 11.4838L87.2056 10.2086C87.6593 10.1433 88.0511 9.8546 88.2539 9.43871L92.1482 1.48167C92.6603 0.436774 94.1383 0.436774 94.6505 1.48167Z" fill="#FFDE59"/>
<path d="M56.3743 1.48167L60.2651 9.43871C60.4679 9.8546 60.8632 10.1433 61.3169 10.2086L70.0198 11.4838C71.1644 11.6522 71.6215 13.0718 70.7932 13.883L64.4963 20.0767C64.1663 20.3998 64.0151 20.8673 64.0941 21.3244L65.579 30.0686C65.7749 31.2166 64.5788 32.0931 63.5545 31.55L55.7693 27.4219C55.3637 27.2054 54.8791 27.2054 54.4735 27.4219L46.6883 31.55C45.6641 32.0931 44.4679 31.2166 44.6638 30.0686L46.1487 21.3244C46.2278 20.8673 46.0765 20.3998 45.75 20.0767L39.4497 13.883C38.6213 13.0718 39.0785 11.6522 40.223 11.4838L48.9259 10.2086C49.3831 10.1433 49.7749 9.8546 49.9777 9.43871L53.8686 1.48167C54.3807 0.436774 55.8621 0.436774 56.3743 1.48167Z" fill="#FFDE59"/>
</svg>
