<svg width="186" height="32" viewBox="0 0 186 32" fill="none" xmlns="http://www.w3.org/2000/svg">
<path d="M17.3442 0.785329L21.2379 8.7413C21.441 9.15543 21.8341 9.44498 22.287 9.50896L30.9903 10.785C32.1361 10.9534 32.5924 12.3742 31.7631 13.1856L25.4679 19.3807C25.1382 19.7039 24.9883 20.1685 25.0649 20.6264L26.5538 29.3703C26.7469 30.5184 25.5512 31.3971 24.5286 30.8551L16.7447 26.7273C16.3383 26.5084 15.852 26.5084 15.4457 26.7273L7.66166 30.8551C6.63578 31.3971 5.44004 30.5184 5.63656 29.3703L7.12208 20.6264C7.19868 20.1685 7.0488 19.7039 6.72238 19.3807L0.423909 13.1856C-0.405451 12.3742 0.0508639 10.9534 1.19665 10.785L9.89993 9.50896C10.3529 9.44498 10.7459 9.15543 10.9491 8.7413L14.8428 0.785329C15.3557 -0.261776 16.8346 -0.261776 17.3442 0.785329Z" fill="#FFDE59"/>
<path d="M55.6214 0.785329L59.5117 8.7413C59.7149 9.15543 60.1079 9.44498 60.5642 9.50896L69.2675 10.785C70.41 10.9534 70.8696 12.3742 70.0402 13.1856L63.7418 19.3807C63.4154 19.7039 63.2621 20.1685 63.3421 20.6264L64.8276 29.3703C65.0241 30.5184 63.8284 31.3971 62.8025 30.8551L55.0185 26.7273C54.6121 26.5084 54.1259 26.5084 53.7195 26.7273L45.9355 30.8551C44.913 31.3971 43.7172 30.5184 43.9104 29.3703L45.3992 20.6264C45.4759 20.1685 45.326 19.7039 44.9962 19.3807L38.6978 13.1856C37.8717 12.3742 38.328 10.9534 39.4738 10.785L48.1771 9.50896C48.6301 9.44498 49.0231 9.15543 49.2263 8.7413L53.12 0.785329C53.6296 -0.261776 55.1084 -0.261776 55.6214 0.785329Z" fill="#FFDE59"/>
<path d="M93.8985 0.785329L97.7888 8.7413C97.992 9.15543 98.385 9.44498 98.8413 9.50896L107.545 10.785C108.687 10.9534 109.143 12.3742 108.317 13.1856L102.019 19.3807C101.689 19.7039 101.539 20.1685 101.616 20.6264L103.105 29.3703C103.301 30.5184 102.102 31.3971 101.08 30.8551L93.2956 26.7273C92.8892 26.5084 92.4029 26.5084 91.9966 26.7273L84.2126 30.8551C83.1867 31.3971 81.991 30.5184 82.1875 29.3703L83.673 20.6264C83.7529 20.1685 83.6031 19.7039 83.2733 19.3807L76.9748 13.1856C76.1455 12.3742 76.6051 10.9534 77.7476 10.785L86.4509 9.50896C86.9072 9.44498 87.3002 9.15543 87.5034 8.7413L91.3937 0.785329C91.9067 -0.261776 93.3855 -0.261776 93.8985 0.785329Z" fill="#FFDE59"/>
<path d="M132.172 0.785329L136.066 8.7413C136.269 9.15543 136.662 9.44498 137.115 9.50896L145.818 10.785C146.964 10.9534 147.421 12.3742 146.591 13.1856L140.296 19.3807C139.966 19.7039 139.816 20.1685 139.893 20.6264L141.379 29.3703C141.575 30.5184 140.379 31.3971 139.353 30.8551L131.569 26.7273C131.163 26.5084 130.677 26.5084 130.27 26.7273L122.486 30.8551C121.464 31.3971 120.268 30.5184 120.465 29.3703L121.95 20.6264C122.027 20.1685 121.877 19.7039 121.547 19.3807L115.252 13.1856C114.423 12.3742 114.879 10.9534 116.025 10.785L124.728 9.50896C125.181 9.44498 125.574 9.15543 125.777 8.7413L129.671 0.785329C130.181 -0.261776 131.663 -0.261776 132.172 0.785329Z" fill="#FFDE59"/>
<path d="M169.197 0.000732422C168.701 0.000732422 168.201 0.26335 167.945 0.785219L164.054 8.74119C163.851 9.15532 163.458 9.44487 163.002 9.50885L154.299 10.7849C153.156 10.9532 152.7 12.3741 153.526 13.1855L159.824 19.3806C160.154 19.7038 160.304 20.1684 160.224 20.6263L158.739 29.3702C158.585 30.2792 159.301 31.0199 160.114 31.0199C160.327 31.0199 160.55 30.9661 160.764 30.855L168.548 26.7271C168.751 26.6194 168.974 26.5655 169.197 26.5655C169.42 26.5655 169.643 26.6194 169.847 26.7271L177.631 30.855C177.844 30.9661 178.067 31.0199 178.28 31.0199C179.093 31.0199 179.809 30.2792 179.656 29.3702L178.17 20.6263C178.09 20.1684 178.24 19.7038 178.57 19.3806L184.868 13.1855C185.694 12.3741 185.238 10.9532 184.096 10.7849L175.392 9.50885C174.936 9.44487 174.543 9.15532 174.34 8.74119L170.449 0.785219C170.193 0.26335 169.693 0.000732422 169.197 0.000732422ZM169.197 1.4182L173.087 9.36744C173.494 10.1991 174.28 10.7748 175.189 10.9095L183.886 12.1822L177.594 18.3671C176.934 19.017 176.635 19.9496 176.788 20.8654L178.273 29.5991L170.499 25.4747C170.1 25.2626 169.65 25.1514 169.197 25.1514C168.747 25.1514 168.294 25.2626 167.898 25.4747L160.121 29.5991L161.606 20.8654C161.76 19.9496 161.46 19.017 160.8 18.3671L154.512 12.1822L163.205 10.9095C164.114 10.7748 164.9 10.1991 165.31 9.36744L169.197 1.4182Z" fill="#A6A6A6"/>
</svg>
