<svg width="161" height="161" viewBox="0 0 161 161" fill="none" xmlns="http://www.w3.org/2000/svg">
<path d="M160.368 80.0908C160.368 99.9958 153.087 118.216 141.056 132.223C139.97 133.492 138.839 134.723 137.669 135.923C134.69 138.985 131.458 141.818 128.019 144.367C114.669 154.306 98.1171 160.182 80.1909 160.182C79.9443 160.182 79.7059 160.182 79.462 160.176C68.2734 160.082 57.6364 157.69 47.9887 153.458C42.4069 151.016 37.1632 147.959 32.3352 144.367C28.8404 141.762 25.5672 138.885 22.5435 135.759C21.4293 134.615 20.354 133.437 19.3174 132.231C7.28631 118.221 0 100.001 0 80.0908C0 35.8577 35.9049 0 80.1909 0C110.575 0 137.015 16.8895 150.618 41.7859C155.13 50.0422 158.223 59.1771 159.586 68.8718C160.102 72.5385 160.368 76.2856 160.368 80.0908Z" fill="#FFCD1B"/>
<path d="M159.72 80.0906C159.72 99.9955 152.439 118.215 140.408 132.223C139.322 133.492 138.191 134.722 137.021 135.922C134.042 138.985 130.81 141.817 127.371 144.367C114.021 154.306 97.4691 160.181 79.5429 160.181C79.2963 160.181 79.0579 160.181 78.814 160.176L69.1082 142.954L98.489 24.1672L158.938 68.8715C159.454 72.5382 159.72 76.2853 159.72 80.0906Z" fill="#E3BC2E"/>
<path d="M41.9335 46.0431C43.0199 43.2466 44.5664 40.6165 46.4732 38.3189C50.5085 33.441 61.3646 23.5191 68.3709 24.9575C78.2597 26.9918 86.6213 43.4988 88.7831 52.3344C91.0641 61.6577 90.9006 71.3884 90.7176 80.9889C90.3906 98.3302 90.0386 115.893 85.4074 132.614C84.4651 136.009 83.2955 139.47 80.9564 142.112C77.4366 146.094 71.9185 147.563 66.6803 148.472C55.5111 150.407 43.1169 147.693 32.6378 143.445C29.0349 141.981 25.4208 140.097 23.1315 136.951C20.4875 133.298 20.2298 127.777 22.4525 123.847C25.2878 118.837 29.6695 119.529 34.1705 116.653C37.0251 114.832 39.004 110.669 36.7868 108.119C35.6422 106.808 33.8074 106.406 32.236 105.658C26.7539 103.033 24.9192 94.9351 28.7328 90.2069C33.0508 84.8579 42.2855 84.3674 44.9018 78.0068C47.1633 72.5137 42.8758 66.7434 41.1103 61.0618C39.5832 56.1507 40.0683 50.8516 41.9335 46.0431Z" fill="#092838"/>
<path d="M116.063 115.328L96.7846 109.056C93.226 107.9 90.8203 104.586 90.8203 100.85V86.0747H67.4675V101.03C67.4675 104.799 65.023 108.125 61.4256 109.261L42.1165 115.353C32.1141 118.399 24.5396 126.17 21.5352 135.765C24.559 138.891 27.8349 141.768 31.3298 144.373C36.1577 147.965 41.3987 151.022 46.9805 153.464C56.8388 157.79 67.7253 160.19 79.1855 160.19C97.1116 160.19 113.663 154.312 127.013 144.373C130.453 141.823 133.682 138.991 136.661 135.928C133.707 126.248 126.115 118.404 116.063 115.328Z" fill="#EEC191"/>
<path d="M116.063 115.328L100.939 110.406C89.0715 119.114 71.3089 118.473 59.1696 109.97L42.1221 115.347C32.1224 118.39 24.5479 126.164 21.5436 135.759C24.5673 138.886 27.8405 141.762 31.3353 144.368C36.1633 147.959 41.407 151.016 46.9888 153.458C56.8443 157.784 67.7308 160.182 79.191 160.182C97.1172 160.182 113.669 154.306 127.019 144.368C130.458 141.818 133.69 138.985 136.669 135.923C133.707 126.247 126.116 118.404 116.063 115.328Z" fill="#ED6E4A"/>
<path d="M104.201 55.71C104.949 54.9007 106.094 54.5044 106.734 55.6296C107.665 57.2371 107.566 59.3905 107.433 61.1671C107.327 62.6055 107.144 64.0494 106.767 65.4435C106.44 66.6546 105.994 68.312 104.919 69.0659C104.672 69.2349 104.334 69.404 104.026 69.4733C103.857 69.5121 102.826 69.5315 103.17 69.0797" fill="#FBCB98"/>
<path d="M104.334 52.9911C104.27 35.1288 93.3285 22.3022 79.1716 22.3022C79.166 22.3022 79.1522 22.3022 79.1467 22.3022C79.1411 22.3022 79.1272 22.3022 79.1217 22.3022C64.9704 22.3022 54.0229 35.1288 53.9591 52.9911C53.9287 61.1365 54.1532 63.1625 54.9846 69.0713C57.5593 87.4436 74.5515 95.9327 79.1217 95.9327C84.7229 95.9327 100.601 87.4436 103.178 69.0713C104.007 63.1625 104.365 61.1365 104.334 52.9911Z" fill="#FBCB98"/>
<path d="M53.9592 55.71C53.2109 54.9007 52.0663 54.5044 51.4261 55.6296C50.4948 57.2371 50.5946 59.3905 50.7276 61.1671C50.8357 62.6055 51.0159 64.0494 51.3956 65.4435C51.7198 66.6546 52.166 68.312 53.2414 69.0659C53.4881 69.2349 53.8262 69.404 54.1338 69.4733C54.3057 69.5121 55.3367 69.5315 54.9902 69.0797" fill="#FBCB98"/>
<path d="M93.5224 64.4959C93.1205 67.9741 90.2548 71.566 92.2031 74.4206C93.3783 76.1417 95.8172 76.5575 97.1503 78.1566C99.1042 80.5124 97.76 84.1237 95.8477 86.5071C93.9381 88.8934 91.4105 91.0912 90.9393 94.1121C90.1328 99.2727 95.5456 103.047 97.8709 107.723C100.612 113.23 98.4002 120.677 93.1011 123.803C98.4557 124.274 103.686 120.552 105.698 115.572C107.71 110.594 106.773 104.724 103.968 100.14C103.109 98.7322 102.064 97.3881 101.618 95.8C100.726 92.6238 102.499 88.5248 104.315 85.9362C106.46 82.8987 110.204 80.4819 108.552 76.1805C107.992 74.7283 107.05 73.3785 106.923 71.8293C106.767 69.8504 107.954 68.0545 109.029 66.3861C111.072 63.2155 112.92 59.7538 113.172 55.9929C113.436 52.1073 111.978 48.3408 110.545 44.7185C105.384 31.6702 98.3864 19.326 83.0571 17.7379C69.0943 16.2939 62.5701 29.8992 66.4225 41.9996C68.0633 47.1407 71.924 51.6361 76.9598 53.6011C80.2136 54.876 83.8054 55.0839 87.0841 56.2895C90.3656 57.4951 93.5418 60.2139 93.5529 63.7032C93.5667 63.9665 93.5529 64.2326 93.5224 64.4959Z" fill="#092838"/>
<path d="M65.2474 48.2214C67.9246 44.7848 70.6102 41.2955 72.3701 37.3156C73.2127 35.4005 73.8418 33.3329 73.6894 31.2488C73.5397 29.1646 72.5032 27.0555 70.674 26.0439C68.975 25.1016 66.8437 25.2208 65.0229 25.9053C63.2048 26.5899 61.6278 27.7844 60.0813 28.9623C56.7444 31.501 53.28 34.1949 51.5311 38.0057C49.5578 42.3126 49.9431 50.0783 53.765 53.4817C58.4461 57.6501 62.3705 51.9131 65.2474 48.2214Z" fill="#092838"/>
</svg>
