<svg width="162" height="161" viewBox="0 0 162 161" fill="none" xmlns="http://www.w3.org/2000/svg">
<path d="M161.322 80.0963C161.322 99.9988 154.027 118.222 141.97 132.23C138.082 136.744 133.693 140.826 128.905 144.374C115.524 154.312 98.9364 160.19 80.9693 160.19C69.4856 160.19 58.5744 157.79 48.6966 153.464C43.102 151.024 37.8482 147.964 33.0088 144.374C28.2293 140.812 23.8507 136.744 19.9628 132.236C7.90384 118.227 0.602478 100.007 0.602478 80.0963C0.602478 35.8592 36.5886 0 80.9693 0C111.423 0 137.919 16.8916 151.551 41.7887C157.784 53.1666 161.322 66.2184 161.322 80.0963Z" fill="#4AACD8"/>
<path d="M161.322 80.0962C161.322 99.9986 154.027 118.222 141.97 132.23C138.082 136.744 133.693 140.825 128.905 144.374C115.524 154.312 98.9364 160.19 80.9693 160.19C69.4856 160.19 58.5744 157.79 48.6966 153.464L84.7372 31.6797L80.8575 21.9839L100.474 23.8616L151.551 41.7885C157.784 53.1664 161.322 66.2183 161.322 80.0962Z" fill="#4F96B6"/>
<path d="M53.9368 54.2127C53.138 53.3404 51.9084 52.9273 51.2158 54.1257C50.2207 55.8458 50.3216 58.1556 50.4661 60.0606C50.586 61.5986 50.7742 63.1421 51.1777 64.6422C51.5239 65.9357 52.0038 67.721 53.1625 68.5227C53.427 68.7047 53.7869 68.8868 54.1195 68.9574C54.3022 68.9955 55.4118 69.0145 55.0328 68.5362" fill="#FBCB98"/>
<path d="M107.901 54.2127C108.7 53.3404 109.929 52.9273 110.622 54.1257C111.617 55.8458 111.516 58.1556 111.372 60.0606C111.252 61.5986 111.064 63.1421 110.66 64.6422C110.314 65.9357 109.834 67.721 108.675 68.5227C108.411 68.7047 108.051 68.8868 107.718 68.9574C107.536 68.9955 106.426 69.0145 106.805 68.5362" fill="#FBCB98"/>
<path d="M141.97 132.23C138.082 136.744 133.698 140.826 128.905 144.374H33.0088C28.2212 140.812 23.8425 136.744 19.9628 132.236C23.6053 122.988 31.3211 115.61 41.2753 112.583L57.8438 106.241C64.2427 104.143 63.9537 100.616 63.9537 93.8982V79.6072H97.9658V93.8846C97.9658 100.61 98.3066 104.602 104.719 106.695L120.677 112.564C130.631 115.602 138.341 122.98 141.97 132.23Z" fill="#FBCB98"/>
<path d="M141.97 132.23C127.234 149.348 105.374 160.19 80.9693 160.19C56.5651 160.19 34.7046 149.348 19.9683 132.236C23.6108 122.989 31.3266 115.611 41.2808 112.583L57.8493 106.241C59.7141 105.627 61.0119 104.89 61.9116 103.994C61.9771 104.056 62.0452 104.113 62.1079 104.176C72.7219 114.078 89.0205 114.787 100.373 105.733C100.739 105.437 101.066 105.206 101.344 105.037C102.219 105.684 103.321 106.236 104.719 106.695L120.677 112.564C130.631 115.603 138.341 122.98 141.97 132.23Z" fill="#092838"/>
<path d="M108.04 51.2998C107.969 32.1609 96.0519 21.9841 80.8548 21.9841C80.8494 21.9841 80.863 21.9841 80.8548 21.9841C80.8494 21.9841 79.7097 20.7341 79.6961 20.7341C64.5017 20.7341 54.0077 32.1609 53.945 51.308C53.9123 60.0336 54.2149 65.781 55.1037 72.1153C57.8683 91.8059 76.0563 97.325 80.9639 97.325C86.9784 97.325 104.114 91.8059 106.881 72.1153C107.767 65.7729 108.07 60.0282 108.04 51.2998Z" fill="#FBCB98"/>
<path d="M56.426 57.3215C57.3694 51.6774 59.1225 46.1638 60.6847 40.6256C61.8298 36.5522 63.9155 31.6717 68.1497 31.4027C72.6156 31.1201 75.83 36.4136 80.3013 36.5006C83.2513 36.5576 85.6697 34.3484 88.0253 32.5712C90.3809 30.7994 93.6772 29.3429 96.1582 30.9326C98.0667 32.15 98.2548 34.0766 98.8547 35.9924C99.7544 38.8919 100.932 41.7262 102.075 44.5686C104.479 50.585 106.911 56.7074 107.473 63.1613C109.305 55.2427 109.54 46.9627 108.16 38.9571C106.301 28.1635 100.202 20.7585 89.2277 18.3427C84.391 17.2747 79.4071 16.8427 74.5568 15.8943C75.7591 17.3182 75.9609 19.2476 76.3071 21.0221C74.096 21.4134 71.5822 20.4949 69.2457 20.6335C66.342 20.8101 63.4684 21.6634 60.9683 23.1444C56.7587 25.6308 53.6287 29.87 52.4891 34.612C51.9029 37.0413 51.8266 39.5658 51.8593 42.0632C51.9465 48.7942 53.7105 55.0416 54.095 61.6423C54.1577 62.7646 54.095 63.7129 53.975 64.7809C53.8796 65.6478 54.0186 66.7728 54.2967 67.5826C53.9614 66.5961 56.0743 59.5064 56.3688 57.6612C56.3879 57.5552 56.407 57.4357 56.426 57.3215Z" fill="#8E4A33"/>
<path d="M92.3031 72.6235C89.1977 71.3436 87.0247 68.8871 84.151 67.2811C80.8248 65.4223 77.5749 66.8164 74.614 68.6751C71.6095 70.5637 68.6104 72.504 64.9188 72.5175C61.4208 72.5284 58.1273 71.0039 55.5945 68.6669C55.1719 68.2783 54.7765 67.8653 54.3921 67.4441C54.5557 69.1642 54.7493 70.8599 54.9947 72.5936C57.762 92.2841 75.95 97.8033 80.8548 97.8033C86.872 97.8033 104.008 92.2841 106.772 72.5936C106.887 71.7947 107.844 67.1859 107.934 66.4088C103.863 69.9115 97.576 74.7975 92.3031 72.6235ZM84.53 83.3492C84.53 83.3492 83.9684 82.0992 83.2759 82.0992H79.4943C78.8018 82.0992 78.2429 82.659 78.2429 83.3492L77.7112 86.1373C77.7112 86.9281 76.9451 87.4852 76.1872 87.2542C73.5616 86.4553 70.8079 84.8628 68.0433 82.0992C68.0433 82.0992 72.2257 79.0666 75.9418 76.7676C79.1371 74.7975 83.1614 74.9225 86.3622 76.8817C88.2843 78.0557 90.4136 79.6073 94.0152 82.0992C94.0152 82.0992 90.6154 85.5585 85.5306 87.14C84.7754 87.3792 84.53 84.1454 84.53 83.3492Z" fill="#9F533A"/>
</svg>
