<svg width="162" height="161" viewBox="0 0 162 161" fill="none" xmlns="http://www.w3.org/2000/svg">
<path d="M161.281 80.1515C161.281 100.054 154 118.277 141.969 132.285C140.882 133.552 139.752 134.782 138.582 135.982C135.603 139.048 132.371 141.877 128.931 144.427C115.581 154.366 99.0287 160.245 81.1021 160.245C80.8554 160.245 80.6171 160.245 80.3732 160.239C69.1843 160.145 58.5469 157.753 48.899 153.521C43.3171 151.076 38.0732 148.019 33.2451 144.427C29.7502 141.822 26.4769 138.945 23.4531 135.819C22.339 134.677 21.2636 133.496 20.227 132.29C8.19555 118.283 0.909058 100.06 0.909058 80.1515C0.909058 35.9142 36.8149 0.0554199 81.1021 0.0554199C111.487 0.0554199 137.928 16.9455 151.531 41.8426C156.043 50.0992 159.136 59.2343 160.5 68.9293C161.015 72.5961 161.281 76.3461 161.281 80.1515Z" fill="#FFCD1B"/>
<path d="M161.633 80.1516C161.633 100.054 154.352 118.277 142.321 132.285C141.234 133.552 140.104 134.782 138.934 135.982C135.955 139.048 132.723 141.878 129.283 144.427C115.933 154.366 99.3807 160.245 81.4541 160.245C81.2074 160.245 80.9691 160.245 80.7252 160.239L71.0191 143.014L105.373 26.7681L160.852 68.9294C161.367 72.5962 161.633 76.3462 161.633 80.1516Z" fill="#E3BC2E"/>
<path d="M119.799 71.2519C118.108 69.2259 116.26 68.1256 115.586 65.4565C114.846 62.4993 115.636 59.1845 116.31 56.2909C121.212 35.1437 100.11 17.7936 80.4175 17.8574V99.3503C82.4962 99.1951 84.5638 98.7738 86.54 98.1141C89.342 97.1801 91.9889 95.7915 94.8492 95.0571C98.4079 94.1397 102.058 94.5554 105.553 95.5144C108.541 96.3375 111.515 98.3081 114.694 97.9201C115.179 97.8647 115.65 97.7427 116.127 97.557C118.214 96.7145 119.566 94.4612 119.383 92.2245C119.239 90.4341 118.178 88.7517 118.322 86.964C118.466 85.1542 119.785 83.7047 120.653 82.1082C122.515 78.6881 122.327 74.2868 119.799 71.2519Z" fill="#441D00"/>
<path d="M42.0726 71.2519C43.7633 69.2259 45.6092 68.1256 46.2827 65.4565C47.0255 62.4993 46.2328 59.1845 45.5593 56.2909C40.6564 35.1437 61.7592 17.7936 81.4541 17.8574V99.3503C79.3726 99.1951 77.305 98.7738 75.3317 98.1141C72.5268 97.1801 69.88 95.7915 67.0197 95.0571C63.4637 94.1397 59.8108 94.5554 56.3158 95.5144C53.3308 96.3375 50.3569 98.3081 47.1751 97.9201C46.6929 97.8647 46.2189 97.7427 45.7422 97.557C43.6552 96.7145 42.3027 94.4612 42.4856 92.2245C42.6297 90.4341 43.694 88.7517 43.5499 86.964C43.403 85.1542 42.0837 83.7047 41.2162 82.1082C39.3482 78.6881 39.5394 74.2868 42.0726 71.2519Z" fill="#441D00"/>
<path d="M117.975 115.387L98.6961 109.115C95.1374 107.959 92.7317 104.644 92.7317 100.908V86.1355H69.3783V101.091C69.3783 104.858 66.9338 108.186 63.3362 109.323L44.0266 115.415C34.024 118.458 26.4492 126.232 23.4448 135.827C26.4686 138.954 29.7446 141.828 33.2396 144.433C38.0677 148.025 43.3088 151.085 48.8907 153.527C58.7493 157.853 69.6361 160.25 81.0966 160.25C99.0232 160.25 115.575 154.375 128.926 144.433C132.365 141.886 135.594 139.053 138.574 135.988C135.619 126.307 128.028 118.466 117.975 115.387Z" fill="#EEC191"/>
<path d="M119.511 115.908C119.006 115.727 118.496 115.545 117.975 115.387L101.21 109.932C96.8669 114.541 91.1962 117.634 84.5472 118.344C77.2663 119.123 66.0912 116.875 62.5824 109.555L45.7173 114.874C49.2677 123.236 48.2699 133.133 45.3154 141.639C44.3287 144.472 43.1397 147.254 41.7567 149.954C44.071 151.254 46.4462 152.451 48.8991 153.521C58.7548 157.847 69.6416 160.245 81.1021 160.245C94.7799 160.245 107.654 156.816 118.926 150.777C114.763 139.56 114.669 126.822 119.511 115.908Z" fill="#AE6AA9"/>
<path d="M106.246 53.0509C106.182 35.1881 95.24 22.3584 81.0827 22.3584C81.0772 22.3584 81.0633 22.3584 81.0578 22.3584C81.0522 22.3584 81.0384 22.3584 81.0328 22.3584C66.8811 22.3584 55.9334 35.1881 55.8696 53.0509C55.8391 61.1938 56.0636 63.2226 56.8951 69.1317C59.4699 87.5045 76.4625 95.9911 81.0328 95.9911C86.6342 95.9911 102.513 87.5045 105.09 69.1317C105.919 63.2226 106.276 61.1938 106.246 53.0509Z" fill="#FBCB98"/>
<path d="M96.7339 59.8633C97.2439 58.3695 97.8481 53.8241 98.358 52.3219C100.658 57.5408 103.267 61.4819 105.365 64.83C105.101 64.4143 106.473 59.9077 106.584 59.2037C107.039 56.2658 107.357 53.303 107.227 50.3263C105.786 17.8517 80.7557 20.1687 80.7446 20.1687C66.5929 20.1687 54.8192 31.6264 54.7555 49.4893C54.7444 53.5968 54.6114 59.8689 56.3852 63.6105C58.6107 60.8805 60.8724 55.0158 62.0919 51.6955C62.1057 54.0125 62.2997 56.7037 63.3502 59.977C64.3424 60.0213 85.8527 60.3595 96.7339 59.8633Z" fill="#441D00"/>
<path d="M55.8696 55.7698C55.1213 54.9605 53.9766 54.5642 53.3364 55.6867C52.4052 57.2942 52.5049 59.4477 52.638 61.2271C52.7461 62.6628 52.9262 64.1067 53.3059 65.5009C53.6302 66.7148 54.0792 68.3722 55.1518 69.1233C55.3985 69.2952 55.7366 69.4642 56.0443 69.5335C56.2161 69.5695 57.2471 69.5889 56.9007 69.1372" fill="#FBCB98"/>
<path d="M106.113 55.7698C106.861 54.9605 108.006 54.5642 108.646 55.6867C109.577 57.2942 109.478 59.4477 109.345 61.2271C109.239 62.6628 109.056 64.1067 108.679 65.5009C108.352 66.7148 107.906 68.3722 106.831 69.1233C106.584 69.2952 106.246 69.4642 105.938 69.5335C105.769 69.5695 104.738 69.5889 105.082 69.1372" fill="#FBCB98"/>
</svg>
