<svg width="161" height="161" viewBox="0 0 161 161" fill="none" xmlns="http://www.w3.org/2000/svg">
<path d="M160.72 80.0936C160.72 99.9988 153.424 118.219 141.365 132.229C137.479 136.742 133.087 140.824 128.3 144.373C114.919 154.311 98.332 160.19 80.367 160.19C68.8804 160.19 57.9713 157.79 48.0918 153.463C42.4978 151.022 37.2442 147.963 32.4063 144.373C27.6241 140.813 23.2466 136.742 19.3601 132.234C7.30152 118.227 0 100.004 0 80.0936C0 35.8589 35.9831 0 80.367 0C110.817 0 137.314 16.8908 150.946 41.7876C157.179 53.164 160.72 66.2172 160.72 80.0936Z" fill="#FFDD3C"/>
<path d="M160.72 80.0935C160.72 99.9987 153.424 118.219 141.365 132.229C137.479 136.742 133.087 140.824 128.3 144.373C114.919 154.311 98.332 160.19 80.3669 160.19C68.8803 160.19 57.9713 157.79 48.0918 153.463L84.1335 31.6764L84.379 28.8956L89.5517 11.6906L150.955 41.7875C157.179 53.1639 160.72 66.2172 160.72 80.0935Z" fill="#FCC33D"/>
<path d="M141.366 132.229C137.479 136.742 133.093 140.824 128.3 144.373H32.4063C27.6186 140.813 23.241 136.742 19.3601 132.234C23.0011 122.985 30.7183 115.608 40.6704 112.582L57.2404 106.239C63.6408 104.142 63.3506 100.613 63.3506 93.8948V79.6041H97.3611V93.8837C97.3611 100.608 97.7015 104.601 104.116 106.692L120.072 112.563C130.027 115.602 137.738 122.98 141.366 132.229Z" fill="#FBCB98"/>
<path d="M53.3347 54.2124C52.5339 53.3392 51.3061 52.9248 50.6114 54.1234C49.618 55.8447 49.7185 58.1556 49.8636 60.0577C49.9836 61.5955 50.1705 63.1416 50.5751 64.6433C50.9211 65.9364 51.401 67.7189 52.559 68.5225C52.8241 68.7033 53.184 68.8868 53.516 68.9564C53.7002 68.9925 54.8079 69.012 54.4313 68.5337" fill="#FBCB98"/>
<path d="M107.296 54.2124C108.097 53.3392 109.325 52.9248 110.02 54.1234C111.013 55.8447 110.913 58.1556 110.768 60.0577C110.648 61.5955 110.461 63.1416 110.056 64.6433C109.71 65.9364 109.23 67.7189 108.072 68.5225C107.807 68.7033 107.447 68.8868 107.115 68.9564C106.931 68.9925 105.823 69.012 106.2 68.5337" fill="#FBCB98"/>
<path d="M141.366 132.229C126.631 149.345 104.771 160.19 80.367 160.19C55.9598 160.19 34.0999 149.345 19.3657 132.234C23.0067 122.985 30.724 115.608 40.6788 112.582L57.246 106.239C59.1098 105.624 60.4071 104.89 61.3083 103.992C64.5671 106.981 68.6684 108.753 73.032 109.632C75.2139 110.071 84.1782 110.191 86.3321 109.887C87.3393 109.743 88.3605 109.568 89.3872 109.348C93.3128 108.514 97.2802 107.107 100.745 105.035C101.622 105.68 102.724 106.233 104.121 106.692L120.08 112.563C130.027 115.602 137.739 122.98 141.366 132.229Z" fill="#5EC1ED"/>
<path d="M107.436 51.298C107.366 32.1603 95.5865 21.3734 80.3836 21.3734C80.3781 21.3734 80.3836 24.3378 80.3836 21.3734C80.3836 21.3679 80.392 21.3734 80.3836 21.3734C65.1891 21.3734 53.404 32.1603 53.3342 51.298C53.3008 60.027 53.6049 65.7722 54.4921 72.107C57.257 91.7981 75.4453 97.318 80.3529 97.318C86.3683 97.318 103.505 91.7981 106.27 72.107C107.165 65.7722 107.467 60.027 107.436 51.298Z" fill="#FBCB98"/>
<path d="M53.6497 61.4009C54.2663 65.3135 53.3401 70.6194 57.673 72.5214C56.7244 67.5549 54.9722 62.8525 55.8092 57.6857C56.4761 53.5784 56.5095 49.2264 59.2996 45.8421C62.5304 41.9239 67.3767 44.2737 71.1628 45.7364C76.196 47.6886 81.1149 49.3905 86.4271 47.1296C90.2996 45.4778 94.0048 41.974 98.0559 43.1252C104.211 44.8688 104.205 54.7908 104.707 59.8269C105.053 63.2863 105.148 66.8013 104.467 70.2106C104.738 70.4497 104.816 70.8835 104.646 71.2033C106.055 67.5104 107.821 65.7724 107.863 61.5789C107.902 58.1501 107.447 54.7408 107.436 51.312C107.366 32.1743 95.5868 21.3875 80.3839 21.3875C65.1893 21.3875 53.4042 32.1743 53.3345 51.312C53.3205 54.243 53.4293 57.1518 53.4963 60.0522C53.5102 60.397 53.566 60.8614 53.6497 61.4009Z" fill="#A66A43"/>
<path d="M56.0351 102.635C53.1893 105.783 46.6996 106.083 46.8949 111.589C47.0093 114.754 50.0951 116.934 53.0135 118.202C59.7709 121.139 67.2427 121.967 74.5888 122.629C84.2089 123.489 94.3199 124.028 103.109 120.035C106.044 118.697 108.814 116.826 110.656 114.189C113.1 110.691 113.881 105.394 110.089 102.549C107.933 100.933 104.677 100.463 103.611 98.0022C103.27 97.2097 103.22 96.3143 102.88 95.5217C101.987 93.4556 99.3141 92.7075 97.0905 93.1107C94.8668 93.5112 92.9026 94.7487 90.824 95.6274C84.8059 98.183 80.3419 96.2364 73.8271 95.7164C71.4528 95.5273 66.7516 96.6452 64.673 95.4272C63.571 94.782 62.1034 92.2682 60.7307 92.3071C56.3141 92.4322 58.122 99.2397 56.7047 101.726C56.515 102.051 56.289 102.354 56.0351 102.635Z" fill="#092838"/>
<path d="M101.733 73.1554C98.8426 76.2338 95.0258 77.8272 90.3943 75.2716C89.0412 74.5236 87.8889 73.4585 86.5329 72.7049C82.8026 70.6332 78.0401 71.2839 74.2735 73.2805C71.383 74.8128 68.3279 77.3183 64.8237 76.5147C61.763 75.8194 59.5449 73.0358 58.2029 70.3746C55.6779 65.3524 54.096 60.1467 53.3455 54.7908C53.4543 67.4352 53.0888 81.4117 60.9762 92.1429C67.0808 100.458 76.1261 101.656 85.6764 100.218C94.3255 98.9115 101.301 93.0467 104.375 84.9295C105.784 81.2059 106.504 77.2822 106.989 73.3445C107.215 71.4925 107.581 69.5153 107.561 67.6494C107.55 66.3424 106.75 64.6099 107.16 63.3363C106.825 64.3791 106.264 60.7918 106.119 62.0182C105.564 66.626 103.46 71.3228 101.733 73.1554Z" fill="#A66A43"/>
<path d="M91.3765 16.4708C91.3765 17.052 91.304 17.6304 91.1561 18.2005C91.0082 18.7706 90.7878 19.3267 90.4976 19.8662C90.2047 20.4029 89.8503 20.9146 89.4263 21.3985C89.005 21.8823 88.5251 22.33 87.9894 22.7444C87.4509 23.1559 86.865 23.523 86.2345 23.8456C85.6039 24.1709 84.9371 24.4435 84.234 24.6659C83.5309 24.8884 82.8083 25.058 82.0634 25.172C81.3184 25.2861 80.5651 25.3417 79.8062 25.3417C79.0445 25.3417 78.2912 25.2861 77.5463 25.172C76.8014 25.058 76.0787 24.8884 75.3756 24.6659C74.6753 24.4435 74.0085 24.1709 73.3752 23.8456C72.7446 23.523 72.1587 23.1559 71.623 22.7444C71.0846 22.33 70.6047 21.8823 70.1834 21.3985C69.7593 20.9146 69.405 20.4029 69.112 19.8662C68.8219 19.3267 68.6042 18.7706 68.4536 18.2005C68.3057 17.6304 68.2332 17.052 68.2332 16.4708C68.2332 15.8868 68.3057 15.3112 68.4536 14.7384C68.6042 14.1683 68.8219 13.6121 69.112 13.0754C69.405 12.5359 69.7593 12.0243 70.1834 11.5404C70.6047 11.0565 71.0846 10.6088 71.623 10.1972C72.1587 9.7829 72.7446 9.41583 73.3752 9.09326C74.0085 8.7679 74.6753 8.49538 75.3756 8.27291C76.0787 8.05044 76.8014 7.88081 77.5463 7.7668C78.2912 7.65557 79.0445 7.59717 79.8062 7.59717C80.5651 7.59717 81.3184 7.65557 82.0634 7.7668C82.8083 7.88081 83.5309 8.05044 84.234 8.27291C84.9371 8.49538 85.6039 8.7679 86.2345 9.09326C86.865 9.41583 87.4509 9.7829 87.9894 10.1972C88.5251 10.6088 89.005 11.0565 89.4263 11.5404C89.8503 12.0243 90.2047 12.5359 90.4976 13.0754C90.7878 13.6121 91.0082 14.1683 91.1561 14.7384C91.304 15.3112 91.3765 15.8868 91.3765 16.4708Z" fill="#A66A43"/>
</svg>
