<svg xmlns="http://www.w3.org/2000/svg" xmlns:xlink="http://www.w3.org/1999/xlink" width="500" zoomAndPan="magnify" viewBox="0 0 375 374.999991" height="500" preserveAspectRatio="xMidYMid meet" version="1.0"><path fill="#4aacd8" d="M 344.695312 182.28125 C 361.367188 163.480469 370.992188 139.5 371.886719 114.410156 C 374.175781 51.824219 322.730469 0 260.046875 1.785156 C 236.21875 2.429688 213.285156 10.9375 194.789062 25.984375 C 183.984375 34.667969 169.066406 36.0625 156.863281 29.523438 C 139.800781 20.445312 119.371094 16.835938 97.976562 21.015625 C 63.449219 27.769531 36.4375 54.683594 29.605469 89.140625 C 26.636719 104.1875 27.53125 118.734375 31.464844 131.992188 C 38.871094 156.90625 36.042969 183.640625 23.953125 206.65625 C 13.363281 226.78125 9.210938 250.796875 14.21875 275.996094 C 22.269531 316.207031 53.574219 347.765625 93.789062 356.058594 C 112.359375 359.882812 130.28125 358.703125 146.488281 353.699219 C 170.136719 346.371094 195.828125 348.800781 217.363281 360.988281 C 235.109375 370.996094 256.683594 375 279.332031 370.28125 C 309.671875 363.957031 340.011719 333.648438 346.308594 303.300781 C 350.886719 281.320312 347.203125 260.414062 337.828125 243.007812 C 327.203125 223.3125 329.886719 199.042969 344.695312 182.28125 Z M 344.695312 182.28125 " fill-opacity="1" fill-rule="nonzero"/><path fill="#fdb813" d="M 39.015625 168.558594 L 41.554688 167.019531 C 42.234375 166.625 43.128906 166.839844 43.523438 167.519531 C 43.59375 167.628906 43.628906 167.734375 43.664062 167.878906 L 44.308594 170.453125 C 44.488281 171.203125 44.023438 171.917969 43.308594 172.132812 L 41.160156 172.703125 C 40.554688 172.882812 39.910156 172.632812 39.585938 172.09375 L 38.550781 170.453125 C 38.121094 169.878906 38.335938 168.984375 39.015625 168.558594 C 38.980469 168.59375 39.015625 168.59375 39.015625 168.558594 Z M 39.015625 168.558594 " fill-opacity="1" fill-rule="nonzero"/><path fill="#fdb813" d="M 337.503906 284.214844 L 337.578125 281.25 C 337.613281 280.464844 338.257812 279.855469 339.078125 279.890625 C 339.222656 279.890625 339.332031 279.925781 339.472656 279.964844 L 342.011719 280.820312 C 342.730469 281.070312 343.121094 281.859375 342.90625 282.574219 L 342.265625 284.71875 C 342.085938 285.324219 341.511719 285.71875 340.90625 285.71875 L 338.972656 285.71875 C 338.113281 285.644531 337.46875 285.003906 337.503906 284.214844 Z M 337.503906 284.214844 " fill-opacity="1" fill-rule="nonzero"/><path fill="#fdb813" d="M 242.050781 73.554688 L 239.1875 72.734375 C 238.4375 72.484375 238.007812 71.699219 238.257812 70.945312 C 238.292969 70.804688 238.367188 70.695312 238.4375 70.589844 L 239.941406 68.375 C 240.371094 67.730469 241.226562 67.550781 241.871094 67.945312 L 243.769531 69.125 C 244.304688 69.445312 244.554688 70.089844 244.375 70.695312 L 243.839844 72.554688 C 243.589844 73.304688 242.800781 73.734375 242.050781 73.554688 Z M 242.050781 73.554688 " fill-opacity="1" fill-rule="nonzero"/><path fill="#ffffff" d="M 76.078125 123.273438 L 77.976562 125.558594 C 78.476562 126.167969 78.371094 127.0625 77.761719 127.5625 C 77.652344 127.632812 77.546875 127.703125 77.4375 127.777344 L 74.96875 128.8125 C 74.253906 129.097656 73.46875 128.777344 73.144531 128.097656 L 72.214844 126.058594 C 71.964844 125.488281 72.109375 124.808594 72.574219 124.417969 L 74.039062 123.164062 C 74.648438 122.59375 75.542969 122.628906 76.078125 123.273438 C 76.078125 123.238281 76.078125 123.238281 76.078125 123.273438 Z M 76.078125 123.273438 " fill-opacity="1" fill-rule="nonzero"/><path fill="#ffffff" d="M 116.402344 207.121094 L 113.96875 208.800781 C 113.324219 209.230469 112.429688 209.050781 112 208.410156 C 111.929688 208.300781 111.894531 208.195312 111.820312 208.085938 L 111.035156 205.550781 C 110.820312 204.835938 111.214844 204.046875 111.929688 203.796875 L 114.039062 203.082031 C 114.648438 202.867188 115.292969 203.082031 115.648438 203.582031 L 116.792969 205.15625 C 117.1875 205.800781 117.046875 206.691406 116.402344 207.121094 Z M 116.402344 207.121094 " fill-opacity="1" fill-rule="nonzero"/><path fill="#ffffff" d="M 35.578125 292.507812 L 34.003906 295.011719 C 33.578125 295.652344 32.683594 295.867188 32.039062 295.402344 C 31.929688 295.332031 31.824219 295.261719 31.75 295.152344 L 30.035156 293.117188 C 29.570312 292.542969 29.605469 291.6875 30.175781 291.148438 L 31.824219 289.648438 C 32.289062 289.21875 32.96875 289.183594 33.503906 289.507812 L 35.148438 290.507812 C 35.792969 290.972656 36.007812 291.828125 35.578125 292.507812 Z M 35.578125 292.507812 " fill-opacity="1" fill-rule="nonzero"/><path fill="#ffffff" d="M 154.359375 281.464844 L 152.679688 283.894531 C 152.25 284.539062 151.355469 284.679688 150.710938 284.253906 C 150.605469 284.179688 150.496094 284.074219 150.390625 283.964844 L 148.742188 281.859375 C 148.277344 281.25 148.386719 280.390625 148.957031 279.890625 L 150.675781 278.460938 C 151.175781 278.070312 151.855469 278.035156 152.355469 278.390625 L 153.96875 279.464844 C 154.648438 279.925781 154.789062 280.820312 154.359375 281.464844 Z M 154.359375 281.464844 " fill-opacity="1" fill-rule="nonzero"/><path fill="#ffffff" d="M 260.621094 317.171875 L 261.300781 320.066406 C 261.476562 320.851562 260.976562 321.601562 260.191406 321.746094 C 260.046875 321.78125 259.941406 321.78125 259.796875 321.78125 L 257.148438 321.566406 C 256.398438 321.496094 255.824219 320.851562 255.863281 320.101562 L 255.96875 317.886719 C 256.003906 317.277344 256.433594 316.742188 257.042969 316.5625 L 258.9375 316.097656 C 259.691406 315.917969 260.441406 316.417969 260.621094 317.171875 Z M 260.621094 317.171875 " fill-opacity="1" fill-rule="nonzero"/><path fill="#10294c" d="M 108.636719 32.347656 L 105.988281 33.703125 C 105.308594 34.0625 104.453125 33.777344 104.09375 33.097656 C 104.023438 32.953125 103.984375 32.8125 103.949219 32.667969 L 103.519531 30.058594 C 103.414062 29.308594 103.914062 28.59375 104.628906 28.449219 L 106.8125 28.019531 C 107.421875 27.914062 108.027344 28.199219 108.351562 28.734375 L 109.246094 30.453125 C 109.601562 31.09375 109.316406 31.953125 108.636719 32.347656 Z M 108.636719 32.347656 " fill-opacity="1" fill-rule="nonzero"/><path fill="#10294c" d="M 68.746094 282.679688 L 67.816406 279.855469 C 67.566406 279.105469 67.957031 278.320312 68.710938 278.070312 C 68.851562 278.035156 68.996094 277.996094 69.140625 277.996094 L 71.785156 277.960938 C 72.539062 277.960938 73.183594 278.535156 73.21875 279.320312 L 73.324219 281.535156 C 73.359375 282.144531 72.96875 282.714844 72.394531 282.929688 L 70.570312 283.574219 C 69.820312 283.824219 68.996094 283.429688 68.746094 282.679688 Z M 68.746094 282.679688 " fill-opacity="1" fill-rule="nonzero"/><path fill="#10294c" d="M 347.453125 119.804688 L 346.519531 116.980469 C 346.269531 116.230469 346.699219 115.410156 347.453125 115.195312 C 347.558594 115.160156 347.703125 115.125 347.84375 115.125 L 350.527344 115.085938 C 351.28125 115.085938 351.921875 115.660156 351.960938 116.445312 L 352.066406 118.660156 C 352.101562 119.304688 351.710938 119.878906 351.136719 120.054688 L 349.3125 120.699219 C 348.523438 120.949219 347.703125 120.554688 347.453125 119.804688 Z M 347.453125 119.804688 " fill-opacity="1" fill-rule="nonzero"/><path fill="#10294c" d="M 284.519531 354.664062 L 287.203125 353.375 C 287.917969 353.054688 288.777344 353.339844 289.097656 354.089844 C 289.171875 354.199219 289.207031 354.339844 289.207031 354.449219 L 289.597656 357.09375 C 289.707031 357.84375 289.207031 358.558594 288.453125 358.703125 L 286.273438 359.09375 C 285.664062 359.203125 285.054688 358.878906 284.769531 358.34375 L 283.910156 356.59375 C 283.515625 355.878906 283.804688 355.019531 284.519531 354.664062 Z M 284.519531 354.664062 " fill-opacity="1" fill-rule="nonzero"/><path fill="#10294c" d="M 264.699219 203.546875 L 264.625 200.582031 C 264.625 199.796875 265.269531 199.152344 266.058594 199.152344 C 266.199219 199.152344 266.308594 199.152344 266.453125 199.1875 L 269.027344 199.9375 C 269.742188 200.152344 270.171875 200.902344 269.992188 201.652344 L 269.457031 203.796875 C 269.3125 204.40625 268.777344 204.835938 268.132812 204.871094 L 266.199219 204.941406 C 265.378906 204.941406 264.734375 204.335938 264.699219 203.546875 Z M 264.699219 203.546875 " fill-opacity="1" fill-rule="nonzero"/><path fill="#10294c" d="M 48.460938 139.464844 L 47.277344 141 C 46.742188 141.714844 46.851562 142.714844 47.566406 143.289062 C 47.707031 143.394531 47.851562 143.464844 48.03125 143.539062 L 50.25 144.324219 C 51.105469 144.609375 52.039062 144.179688 52.324219 143.324219 C 52.464844 142.929688 52.429688 142.5 52.253906 142.109375 L 51.214844 139.820312 C 50.855469 139 49.855469 138.640625 49.066406 139 C 48.816406 139.105469 48.601562 139.25 48.460938 139.464844 Z M 48.460938 139.464844 " fill-opacity="1" fill-rule="nonzero"/><path fill="#10294c" d="M 141.910156 329.75 L 142.269531 331.644531 C 142.445312 332.539062 143.304688 333.109375 144.164062 332.933594 C 144.34375 332.894531 144.484375 332.824219 144.664062 332.753906 L 146.703125 331.609375 C 147.492188 331.179688 147.777344 330.179688 147.347656 329.394531 C 147.132812 329.035156 146.8125 328.75 146.382812 328.644531 L 143.949219 327.929688 C 143.089844 327.679688 142.195312 328.179688 141.945312 329.035156 C 141.910156 329.25 141.875 329.5 141.910156 329.75 Z M 141.910156 329.75 " fill-opacity="1" fill-rule="nonzero"/><path fill="#10294c" d="M 195.253906 217.203125 L 193.359375 217.023438 C 192.464844 216.949219 191.675781 217.59375 191.605469 218.488281 C 191.605469 218.667969 191.605469 218.84375 191.640625 219.023438 L 192.175781 221.3125 C 192.390625 222.167969 193.25 222.742188 194.144531 222.527344 C 194.539062 222.417969 194.898438 222.167969 195.148438 221.847656 L 196.542969 219.738281 C 197.042969 218.988281 196.828125 217.988281 196.078125 217.488281 C 195.792969 217.308594 195.503906 217.238281 195.253906 217.203125 Z M 195.253906 217.203125 " fill-opacity="1" fill-rule="nonzero"/><path fill="#10294c" d="M 318.6875 29.128906 L 317.828125 30.84375 C 317.433594 31.667969 317.757812 32.632812 318.542969 33.023438 C 318.6875 33.097656 318.867188 33.167969 319.042969 33.167969 L 321.371094 33.527344 C 322.265625 33.667969 323.085938 33.0625 323.230469 32.167969 C 323.300781 31.738281 323.195312 31.308594 322.945312 30.988281 L 321.476562 28.914062 C 320.976562 28.164062 319.9375 28.019531 319.222656 28.523438 C 319.007812 28.699219 318.828125 28.878906 318.6875 29.128906 Z M 318.6875 29.128906 " fill-opacity="1" fill-rule="nonzero"/><path fill="#10294c" d="M 216.21875 48.574219 L 215.433594 46.820312 C 215.074219 46 214.109375 45.640625 213.285156 46 C 213.144531 46.070312 212.964844 46.179688 212.855469 46.285156 L 211.105469 47.859375 C 210.425781 48.464844 210.386719 49.503906 210.996094 50.144531 C 211.28125 50.46875 211.675781 50.644531 212.070312 50.679688 L 214.574219 50.859375 C 215.46875 50.933594 216.253906 50.253906 216.328125 49.359375 C 216.363281 49.074219 216.328125 48.789062 216.21875 48.574219 Z M 216.21875 48.574219 " fill-opacity="1" fill-rule="nonzero"/><path fill="#10294c" d="M 331.101562 303.230469 L 329.167969 303.300781 C 328.273438 303.339844 327.558594 304.089844 327.59375 304.980469 C 327.59375 305.160156 327.632812 305.339844 327.703125 305.484375 L 328.523438 307.699219 C 328.847656 308.554688 329.777344 308.984375 330.601562 308.664062 C 330.992188 308.519531 331.316406 308.234375 331.496094 307.839844 L 332.605469 305.589844 C 332.996094 304.769531 332.675781 303.804688 331.851562 303.410156 C 331.636719 303.265625 331.386719 303.195312 331.101562 303.230469 Z M 331.101562 303.230469 " fill-opacity="1" fill-rule="nonzero"/><path fill="#ffffff" d="M 53.753906 71.660156 L 51.824219 71.589844 C 50.929688 71.554688 50.175781 72.269531 50.140625 73.164062 C 50.140625 73.339844 50.140625 73.519531 50.210938 73.664062 L 50.890625 75.914062 C 51.144531 76.773438 52.039062 77.273438 52.933594 77.023438 C 53.324219 76.914062 53.683594 76.628906 53.898438 76.273438 L 55.148438 74.09375 C 55.613281 73.304688 55.328125 72.304688 54.542969 71.875 C 54.292969 71.734375 54.039062 71.660156 53.753906 71.660156 Z M 53.753906 71.660156 " fill-opacity="1" fill-rule="nonzero"/><path fill="#ffffff" d="M 101.554688 342.546875 L 99.621094 342.476562 C 98.726562 342.441406 97.976562 343.15625 97.941406 344.046875 C 97.941406 344.226562 97.941406 344.40625 98.011719 344.546875 L 98.691406 346.800781 C 98.941406 347.65625 99.835938 348.15625 100.695312 347.90625 C 101.089844 347.800781 101.445312 347.515625 101.660156 347.15625 L 102.914062 344.976562 C 103.378906 344.191406 103.089844 343.191406 102.304688 342.761719 C 102.089844 342.652344 101.839844 342.546875 101.554688 342.546875 Z M 101.554688 342.546875 " fill-opacity="1" fill-rule="nonzero"/><path fill="#ffffff" d="M 220.621094 243.328125 L 220.261719 245.222656 C 220.082031 246.117188 220.65625 246.972656 221.550781 247.117188 C 221.730469 247.152344 221.871094 247.152344 222.050781 247.152344 L 224.378906 246.867188 C 225.273438 246.757812 225.878906 245.9375 225.773438 245.042969 C 225.699219 244.652344 225.523438 244.292969 225.199219 244.007812 L 223.230469 242.433594 C 222.550781 241.863281 221.515625 241.96875 220.941406 242.683594 C 220.765625 242.828125 220.65625 243.078125 220.621094 243.328125 Z M 220.621094 243.328125 " fill-opacity="1" fill-rule="nonzero"/><path fill="#ffffff" d="M 332.210938 97.894531 L 330.601562 96.859375 C 329.847656 96.359375 328.847656 96.574219 328.347656 97.324219 C 328.238281 97.46875 328.167969 97.644531 328.132812 97.789062 L 327.523438 100.078125 C 327.308594 100.933594 327.808594 101.828125 328.703125 102.078125 C 329.097656 102.183594 329.527344 102.113281 329.921875 101.933594 L 332.140625 100.71875 C 332.925781 100.289062 333.210938 99.289062 332.78125 98.503906 C 332.640625 98.253906 332.425781 98.039062 332.210938 97.894531 Z M 332.210938 97.894531 " fill-opacity="1" fill-rule="nonzero"/><path fill="#fdb813" d="M 73.46875 207.195312 L 71.929688 206.015625 C 71.214844 205.476562 70.175781 205.621094 69.640625 206.335938 C 69.53125 206.480469 69.460938 206.621094 69.390625 206.800781 L 68.636719 208.980469 C 68.351562 209.839844 68.78125 210.769531 69.640625 211.054688 C 70.035156 211.195312 70.460938 211.160156 70.855469 210.980469 L 73.144531 209.945312 C 73.96875 209.550781 74.289062 208.585938 73.933594 207.765625 C 73.824219 207.550781 73.648438 207.335938 73.46875 207.195312 Z M 73.46875 207.195312 " fill-opacity="1" fill-rule="nonzero"/><path fill="#fdb813" d="M 20.410156 276.175781 L 21.519531 274.601562 C 22.019531 273.851562 21.839844 272.851562 21.089844 272.351562 C 20.945312 272.242188 20.804688 272.171875 20.625 272.136719 L 18.371094 271.457031 C 17.511719 271.207031 16.617188 271.707031 16.332031 272.566406 C 16.222656 272.957031 16.261719 273.386719 16.4375 273.78125 L 17.582031 276.03125 C 18.011719 276.816406 18.980469 277.140625 19.765625 276.710938 C 20.089844 276.566406 20.265625 276.390625 20.410156 276.175781 Z M 20.410156 276.175781 " fill-opacity="1" fill-rule="nonzero"/><path fill="#fdb813" d="M 179.082031 293.652344 L 180.011719 291.972656 C 180.441406 291.1875 180.15625 290.183594 179.371094 289.757812 C 179.226562 289.683594 179.046875 289.613281 178.867188 289.578125 L 176.542969 289.148438 C 175.648438 289.007812 174.824219 289.578125 174.648438 290.472656 C 174.574219 290.898438 174.648438 291.328125 174.898438 291.652344 L 176.292969 293.757812 C 176.792969 294.511719 177.796875 294.722656 178.546875 294.222656 C 178.761719 294.082031 178.941406 293.867188 179.082031 293.652344 Z M 179.082031 293.652344 " fill-opacity="1" fill-rule="nonzero"/><path fill="#fdb813" d="M 274.25 349.515625 L 272.75 348.300781 C 272.03125 347.730469 271.03125 347.835938 270.457031 348.550781 C 270.351562 348.695312 270.28125 348.835938 270.207031 349.015625 L 269.386719 351.230469 C 269.0625 352.089844 269.492188 353.019531 270.351562 353.304688 C 270.746094 353.449219 271.175781 353.449219 271.53125 353.269531 L 273.859375 352.269531 C 274.679688 351.910156 275.074219 350.980469 274.714844 350.125 C 274.609375 349.910156 274.464844 349.695312 274.25 349.515625 Z M 274.25 349.515625 " fill-opacity="1" fill-rule="nonzero"/><path fill="#fdb813" d="M 261.335938 179.242188 L 263.015625 178.351562 C 263.804688 177.921875 264.125 176.921875 263.695312 176.132812 C 263.625 175.992188 263.519531 175.847656 263.375 175.742188 L 261.65625 174.132812 C 261.011719 173.523438 259.976562 173.523438 259.367188 174.203125 C 259.082031 174.527344 258.902344 174.917969 258.902344 175.347656 L 258.902344 177.886719 C 258.902344 178.777344 259.652344 179.53125 260.546875 179.492188 C 260.835938 179.457031 261.121094 179.386719 261.335938 179.242188 Z M 261.335938 179.242188 " fill-opacity="1" fill-rule="nonzero"/><path fill="#fdb813" d="M 135.433594 61.402344 L 137.367188 61.582031 C 138.261719 61.652344 139.046875 61.011719 139.121094 60.117188 C 139.121094 59.9375 139.121094 59.761719 139.082031 59.617188 L 138.546875 57.328125 C 138.332031 56.472656 137.472656 55.898438 136.578125 56.113281 C 136.1875 56.222656 135.828125 56.472656 135.578125 56.828125 L 134.21875 58.9375 C 133.71875 59.6875 133.933594 60.6875 134.71875 61.191406 C 134.898438 61.296875 135.148438 61.367188 135.433594 61.402344 Z M 135.433594 61.402344 " fill-opacity="1" fill-rule="nonzero"/><path fill="#fdb813" d="M 291.675781 45.285156 L 291.996094 47.179688 C 292.140625 48.074219 293 48.679688 293.894531 48.5 C 294.070312 48.464844 294.214844 48.429688 294.394531 48.324219 L 296.46875 47.214844 C 297.257812 46.785156 297.578125 45.820312 297.148438 45 C 296.96875 44.640625 296.613281 44.355469 296.21875 44.210938 L 293.820312 43.425781 C 292.960938 43.140625 292.03125 43.605469 291.746094 44.460938 C 291.675781 44.75 291.640625 45.035156 291.675781 45.285156 Z M 291.675781 45.285156 " fill-opacity="1" fill-rule="nonzero"/><path fill="#ffffff" d="M 57.796875 174.917969 L 58.15625 172.632812 C 58.261719 171.882812 58.800781 171.308594 59.550781 171.128906 L 60.230469 170.953125 C 61.230469 170.703125 62.234375 171.308594 62.519531 172.308594 C 62.589844 172.632812 62.589844 172.988281 62.484375 173.3125 L 61.695312 175.917969 C 61.410156 176.921875 60.375 177.457031 59.371094 177.171875 C 59.230469 177.136719 59.085938 177.0625 58.941406 176.992188 L 58.691406 176.847656 C 58.046875 176.421875 57.691406 175.667969 57.796875 174.917969 Z M 57.796875 174.917969 " fill-opacity="1" fill-rule="nonzero"/><path fill="#ffffff" d="M 319.367188 167.519531 L 318.078125 165.625 C 317.648438 165.019531 317.648438 164.195312 318.042969 163.589844 L 318.398438 162.980469 C 318.9375 162.125 320.117188 161.835938 320.976562 162.410156 C 321.261719 162.589844 321.511719 162.839844 321.65625 163.160156 L 322.871094 165.589844 C 323.335938 166.519531 322.945312 167.628906 322.050781 168.09375 C 321.90625 168.164062 321.761719 168.199219 321.621094 168.234375 L 321.335938 168.308594 C 320.582031 168.484375 319.796875 168.164062 319.367188 167.519531 Z M 319.367188 167.519531 " fill-opacity="1" fill-rule="nonzero"/><path fill="#ffffff" d="M 230.386719 86.816406 L 228.132812 86.386719 C 227.382812 86.246094 226.808594 85.671875 226.667969 84.957031 L 226.488281 84.277344 C 226.273438 83.277344 226.917969 82.277344 227.917969 82.0625 C 228.242188 81.992188 228.597656 81.992188 228.921875 82.097656 L 231.496094 82.957031 C 232.464844 83.277344 233 84.351562 232.675781 85.316406 C 232.640625 85.457031 232.570312 85.601562 232.5 85.707031 L 232.320312 85.957031 C 231.925781 86.636719 231.175781 86.960938 230.386719 86.816406 Z M 230.386719 86.816406 " fill-opacity="1" fill-rule="nonzero"/><path fill="#10294c" d="M 45.777344 216.488281 L 47.566406 217.953125 C 48.136719 218.417969 48.386719 219.203125 48.171875 219.917969 L 47.957031 220.597656 C 47.671875 221.597656 46.636719 222.167969 45.667969 221.882812 C 45.347656 221.777344 45.023438 221.597656 44.808594 221.347656 L 42.949219 219.34375 C 42.234375 218.59375 42.304688 217.414062 43.058594 216.699219 C 43.164062 216.59375 43.308594 216.523438 43.414062 216.449219 L 43.703125 216.308594 C 44.34375 215.914062 45.167969 215.984375 45.777344 216.488281 Z M 45.777344 216.488281 " fill-opacity="1" fill-rule="nonzero"/><path fill="#10294c" d="M 149.246094 65.941406 L 149.925781 68.160156 C 150.140625 68.875 149.925781 69.660156 149.351562 70.125 L 148.816406 70.589844 C 148.027344 71.269531 146.847656 71.160156 146.167969 70.375 C 145.953125 70.125 145.808594 69.804688 145.738281 69.445312 L 145.308594 66.765625 C 145.128906 65.730469 145.847656 64.800781 146.847656 64.621094 C 146.992188 64.585938 147.132812 64.585938 147.3125 64.585938 L 147.632812 64.621094 C 148.351562 64.691406 148.996094 65.191406 149.246094 65.941406 Z M 149.246094 65.941406 " fill-opacity="1" fill-rule="nonzero"/><path fill="#10294c" d="M 215.324219 263.664062 L 213.679688 265.273438 C 213.144531 265.808594 212.355469 265.953125 211.675781 265.703125 L 211.03125 265.453125 C 210.066406 265.058594 209.601562 263.988281 209.996094 263.023438 C 210.101562 262.699219 210.316406 262.449219 210.601562 262.234375 L 212.785156 260.589844 C 213.609375 259.949219 214.789062 260.125 215.398438 260.914062 C 215.503906 261.019531 215.574219 261.164062 215.648438 261.304688 L 215.753906 261.59375 C 216.042969 262.308594 215.863281 263.128906 215.324219 263.664062 Z M 215.324219 263.664062 " fill-opacity="1" fill-rule="nonzero"/><path fill="#10294c" d="M 284.949219 148.828125 L 285.269531 151.113281 C 285.378906 151.867188 285.019531 152.582031 284.375 152.972656 L 283.769531 153.332031 C 282.875 153.867188 281.726562 153.582031 281.191406 152.6875 C 281.011719 152.402344 280.90625 152.082031 280.90625 151.722656 L 280.90625 149.007812 C 280.90625 147.96875 281.726562 147.148438 282.765625 147.148438 C 282.910156 147.148438 283.050781 147.148438 283.230469 147.183594 L 283.515625 147.253906 C 284.269531 147.46875 284.839844 148.078125 284.949219 148.828125 Z M 284.949219 148.828125 " fill-opacity="1" fill-rule="nonzero"/><path fill="#fdb813" d="M 63.308594 88.101562 L 61.519531 89.53125 C 60.945312 89.996094 60.121094 90.070312 59.480469 89.746094 L 58.835938 89.425781 C 57.90625 88.960938 57.582031 87.816406 58.046875 86.886719 C 58.191406 86.601562 58.441406 86.351562 58.726562 86.171875 L 61.054688 84.742188 C 61.949219 84.207031 63.09375 84.492188 63.628906 85.386719 C 63.699219 85.53125 63.773438 85.636719 63.808594 85.78125 L 63.878906 86.066406 C 64.128906 86.78125 63.914062 87.601562 63.308594 88.101562 Z M 63.308594 88.101562 " fill-opacity="1" fill-rule="nonzero"/><path fill="#fdb813" d="M 159.511719 254.660156 L 157.367188 253.835938 C 156.6875 253.585938 156.183594 252.90625 156.148438 252.191406 L 156.113281 251.476562 C 156.078125 250.441406 156.867188 249.582031 157.902344 249.511719 C 158.261719 249.511719 158.582031 249.582031 158.90625 249.726562 L 161.300781 251.011719 C 162.195312 251.511719 162.554688 252.621094 162.054688 253.550781 C 161.980469 253.691406 161.910156 253.800781 161.800781 253.90625 L 161.585938 254.121094 C 161.050781 254.730469 160.226562 254.945312 159.511719 254.660156 Z M 159.511719 254.660156 " fill-opacity="1" fill-rule="nonzero"/><path fill="#fdb813" d="M 338.863281 83.207031 L 337.078125 84.636719 C 336.503906 85.101562 335.679688 85.171875 335.035156 84.851562 L 334.394531 84.527344 C 333.460938 84.0625 333.105469 82.921875 333.605469 81.992188 C 333.75 81.707031 334 81.417969 334.285156 81.242188 L 336.609375 79.847656 C 337.503906 79.308594 338.652344 79.597656 339.1875 80.488281 C 339.257812 80.632812 339.332031 80.738281 339.367188 80.917969 L 339.472656 81.203125 C 339.722656 81.917969 339.472656 82.707031 338.863281 83.207031 Z M 338.863281 83.207031 " fill-opacity="1" fill-rule="nonzero"/><path fill="#fdb813" d="M 108.851562 332.039062 L 106.777344 331.003906 C 106.097656 330.679688 105.703125 329.964844 105.738281 329.214844 L 105.773438 328.5 C 105.847656 327.464844 106.742188 326.675781 107.742188 326.75 C 108.066406 326.785156 108.421875 326.890625 108.671875 327.070312 L 110.925781 328.609375 C 111.785156 329.179688 112 330.359375 111.429688 331.214844 C 111.355469 331.359375 111.25 331.46875 111.140625 331.574219 L 110.925781 331.789062 C 110.355469 332.289062 109.53125 332.394531 108.851562 332.039062 Z M 108.851562 332.039062 " fill-opacity="1" fill-rule="nonzero"/><path fill="#fdb813" d="M 273.070312 303.765625 L 272.890625 301.480469 C 272.820312 300.730469 273.214844 300.050781 273.894531 299.691406 L 274.5 299.371094 C 275.394531 298.871094 276.539062 299.226562 277.042969 300.15625 C 277.183594 300.441406 277.292969 300.800781 277.257812 301.121094 L 277.113281 303.839844 C 277.042969 304.875 276.183594 305.660156 275.144531 305.589844 C 275.003906 305.589844 274.859375 305.554688 274.714844 305.519531 L 274.429688 305.445312 C 273.644531 305.195312 273.140625 304.554688 273.070312 303.765625 Z M 273.070312 303.765625 " fill-opacity="1" fill-rule="nonzero"/><path fill="#4aacd8" d="M 355.207031 190.292969 C 355.882812 190.417969 356.535156 190.628906 357.167969 190.925781 C 357.800781 191.226562 358.394531 191.605469 358.957031 192.066406 C 359.519531 192.523438 360.035156 193.058594 360.503906 193.660156 C 360.972656 194.265625 361.390625 194.929688 361.75 195.65625 C 362.109375 196.378906 362.410156 197.152344 362.648438 197.96875 C 362.882812 198.789062 363.054688 199.636719 363.160156 200.515625 C 363.265625 201.394531 363.300781 202.289062 363.269531 203.195312 C 363.238281 204.101562 363.136719 205.003906 362.972656 205.90625 C 362.804688 206.804688 362.574219 207.683594 362.277344 208.542969 C 361.980469 209.402344 361.625 210.222656 361.214844 211.003906 C 360.800781 211.789062 360.335938 212.519531 359.820312 213.199219 C 359.308594 213.878906 358.75 214.492188 358.15625 215.039062 C 357.558594 215.585938 356.933594 216.058594 356.277344 216.453125 C 355.621094 216.851562 354.949219 217.160156 354.257812 217.390625 C 353.570312 217.621094 352.878906 217.761719 352.179688 217.8125 C 351.484375 217.867188 350.796875 217.828125 350.121094 217.703125 C 349.445312 217.578125 348.789062 217.367188 348.160156 217.066406 C 347.527344 216.769531 346.929688 216.390625 346.371094 215.929688 C 345.808594 215.46875 345.292969 214.9375 344.824219 214.332031 C 344.351562 213.730469 343.9375 213.066406 343.578125 212.339844 C 343.214844 211.613281 342.917969 210.84375 342.679688 210.027344 C 342.441406 209.207031 342.273438 208.359375 342.167969 207.480469 C 342.0625 206.601562 342.027344 205.707031 342.058594 204.800781 C 342.089844 203.894531 342.1875 202.988281 342.355469 202.089844 C 342.523438 201.1875 342.753906 200.308594 343.050781 199.453125 C 343.34375 198.59375 343.699219 197.773438 344.113281 196.988281 C 344.527344 196.207031 344.992188 195.476562 345.503906 194.796875 C 346.019531 194.117188 346.574219 193.503906 347.171875 192.957031 C 347.769531 192.410156 348.394531 191.9375 349.050781 191.542969 C 349.707031 191.144531 350.378906 190.832031 351.066406 190.605469 C 351.757812 190.375 352.449219 190.234375 353.144531 190.183594 C 353.84375 190.128906 354.527344 190.164062 355.207031 190.292969 Z M 355.207031 190.292969 " fill-opacity="1" fill-rule="nonzero"/><path fill="#4aacd8" d="M 360.980469 228.144531 C 361.371094 228.207031 361.75 228.308594 362.121094 228.445312 C 362.492188 228.582031 362.84375 228.757812 363.179688 228.964844 C 363.515625 229.171875 363.828125 229.410156 364.117188 229.675781 C 364.40625 229.945312 364.664062 230.242188 364.894531 230.558594 C 365.125 230.878906 365.324219 231.21875 365.488281 231.578125 C 365.652344 231.9375 365.777344 232.308594 365.867188 232.691406 C 365.960938 233.074219 366.011719 233.464844 366.027344 233.859375 C 366.039062 234.253906 366.015625 234.644531 365.953125 235.03125 C 365.890625 235.421875 365.789062 235.800781 365.648438 236.171875 C 365.511719 236.539062 365.339844 236.890625 365.132812 237.226562 C 364.925781 237.5625 364.6875 237.875 364.417969 238.164062 C 364.148438 238.453125 363.855469 238.710938 363.535156 238.941406 C 363.214844 239.171875 362.875 239.371094 362.515625 239.535156 C 362.15625 239.699219 361.785156 239.824219 361.398438 239.914062 C 361.015625 240.003906 360.625 240.058594 360.230469 240.070312 C 359.835938 240.085938 359.445312 240.0625 359.054688 239.996094 C 358.667969 239.933594 358.285156 239.835938 357.917969 239.695312 C 357.546875 239.558594 357.195312 239.386719 356.859375 239.179688 C 356.523438 238.972656 356.210938 238.734375 355.921875 238.464844 C 355.632812 238.195312 355.375 237.902344 355.144531 237.582031 C 354.914062 237.261719 354.714844 236.921875 354.550781 236.5625 C 354.386719 236.207031 354.261719 235.835938 354.167969 235.449219 C 354.078125 235.066406 354.027344 234.679688 354.011719 234.285156 C 354 233.890625 354.023438 233.5 354.085938 233.109375 C 354.148438 232.71875 354.25 232.339844 354.386719 231.972656 C 354.527344 231.601562 354.699219 231.25 354.90625 230.914062 C 355.113281 230.578125 355.351562 230.265625 355.621094 229.976562 C 355.890625 229.691406 356.183594 229.429688 356.503906 229.199219 C 356.824219 228.96875 357.164062 228.773438 357.523438 228.609375 C 357.882812 228.445312 358.253906 228.316406 358.636719 228.226562 C 359.023438 228.136719 359.410156 228.085938 359.804688 228.070312 C 360.199219 228.054688 360.59375 228.082031 360.980469 228.144531 Z M 360.980469 228.144531 " fill-opacity="1" fill-rule="nonzero"/><path fill="#fdb813" d="M 352.246094 206.800781 L 354.644531 208.550781 C 355.285156 209.015625 355.394531 209.910156 354.929688 210.554688 C 354.859375 210.660156 354.75 210.730469 354.644531 210.839844 L 352.496094 212.449219 C 351.886719 212.914062 351.03125 212.804688 350.527344 212.199219 L 349.132812 210.445312 C 348.738281 209.945312 348.738281 209.265625 349.0625 208.765625 L 350.171875 207.15625 C 350.671875 206.480469 351.566406 206.335938 352.246094 206.800781 C 352.210938 206.765625 352.246094 206.800781 352.246094 206.800781 Z M 352.246094 206.800781 " fill-opacity="1" fill-rule="nonzero"/><path fill="#4aacd8" d="M 27.816406 161.160156 C 27.816406 161.773438 27.792969 162.386719 27.75 162.996094 C 27.710938 163.609375 27.644531 164.214844 27.558594 164.820312 C 27.476562 165.421875 27.371094 166.015625 27.242188 166.605469 C 27.117188 167.195312 26.96875 167.773438 26.804688 168.339844 C 26.636719 168.90625 26.449219 169.460938 26.246094 170.003906 C 26.039062 170.546875 25.816406 171.074219 25.574219 171.582031 C 25.332031 172.09375 25.070312 172.585938 24.796875 173.0625 C 24.519531 173.539062 24.226562 173.992188 23.917969 174.425781 C 23.609375 174.863281 23.285156 175.273438 22.949219 175.664062 C 22.613281 176.054688 22.261719 176.417969 21.902344 176.761719 C 21.539062 177.101562 21.164062 177.417969 20.78125 177.707031 C 20.394531 177.996094 20.003906 178.257812 19.601562 178.496094 C 19.199219 178.730469 18.789062 178.9375 18.371094 179.113281 C 17.953125 179.292969 17.53125 179.441406 17.101562 179.5625 C 16.675781 179.683594 16.246094 179.773438 15.8125 179.832031 C 15.378906 179.894531 14.941406 179.921875 14.507812 179.921875 C 14.070312 179.921875 13.636719 179.894531 13.203125 179.832031 C 12.769531 179.773438 12.335938 179.683594 11.910156 179.5625 C 11.484375 179.441406 11.058594 179.292969 10.644531 179.113281 C 10.226562 178.9375 9.816406 178.730469 9.414062 178.496094 C 9.011719 178.257812 8.617188 177.996094 8.234375 177.707031 C 7.847656 177.417969 7.476562 177.101562 7.113281 176.761719 C 6.75 176.417969 6.402344 176.054688 6.0625 175.664062 C 5.726562 175.273438 5.402344 174.863281 5.097656 174.425781 C 4.789062 173.992188 4.496094 173.539062 4.21875 173.0625 C 3.941406 172.585938 3.683594 172.09375 3.441406 171.582031 C 3.199219 171.074219 2.972656 170.546875 2.769531 170.003906 C 2.5625 169.460938 2.378906 168.90625 2.210938 168.339844 C 2.042969 167.773438 1.898438 167.195312 1.769531 166.605469 C 1.644531 166.015625 1.539062 165.421875 1.453125 164.820312 C 1.367188 164.214844 1.304688 163.609375 1.261719 162.996094 C 1.21875 162.386719 1.199219 161.773438 1.199219 161.160156 C 1.199219 160.542969 1.21875 159.929688 1.261719 159.320312 C 1.304688 158.707031 1.367188 158.101562 1.453125 157.496094 C 1.539062 156.894531 1.644531 156.300781 1.769531 155.710938 C 1.898438 155.125 2.042969 154.546875 2.210938 153.976562 C 2.378906 153.410156 2.5625 152.855469 2.769531 152.3125 C 2.972656 151.769531 3.199219 151.246094 3.441406 150.734375 C 3.683594 150.222656 3.941406 149.730469 4.21875 149.253906 C 4.496094 148.78125 4.789062 148.324219 5.097656 147.890625 C 5.402344 147.457031 5.726562 147.042969 6.0625 146.652344 C 6.402344 146.261719 6.75 145.898438 7.113281 145.554688 C 7.476562 145.214844 7.847656 144.898438 8.234375 144.609375 C 8.617188 144.320312 9.011719 144.058594 9.414062 143.824219 C 9.816406 143.585938 10.226562 143.378906 10.644531 143.203125 C 11.058594 143.023438 11.484375 142.875 11.910156 142.753906 C 12.335938 142.636719 12.769531 142.542969 13.203125 142.484375 C 13.636719 142.425781 14.070312 142.394531 14.507812 142.394531 C 14.941406 142.394531 15.378906 142.425781 15.8125 142.484375 C 16.246094 142.542969 16.675781 142.636719 17.101562 142.753906 C 17.53125 142.875 17.953125 143.023438 18.371094 143.203125 C 18.789062 143.378906 19.199219 143.585938 19.601562 143.824219 C 20.003906 144.058594 20.394531 144.320312 20.78125 144.609375 C 21.164062 144.898438 21.539062 145.214844 21.902344 145.554688 C 22.261719 145.898438 22.613281 146.261719 22.949219 146.652344 C 23.285156 147.042969 23.609375 147.457031 23.917969 147.890625 C 24.226562 148.324219 24.519531 148.78125 24.796875 149.253906 C 25.070312 149.730469 25.332031 150.222656 25.574219 150.734375 C 25.816406 151.246094 26.039062 151.769531 26.246094 152.3125 C 26.449219 152.855469 26.636719 153.410156 26.804688 153.976562 C 26.96875 154.546875 27.117188 155.125 27.242188 155.710938 C 27.371094 156.300781 27.476562 156.894531 27.558594 157.496094 C 27.644531 158.101562 27.710938 158.707031 27.75 159.320312 C 27.792969 159.929688 27.816406 160.542969 27.816406 161.160156 Z M 27.816406 161.160156 " fill-opacity="1" fill-rule="nonzero"/><path fill="#ffffff" d="M 11.324219 165.839844 L 11.964844 164.019531 C 12.253906 163.160156 11.824219 162.230469 10.964844 161.945312 C 10.785156 161.875 10.644531 161.875 10.464844 161.835938 L 8.101562 161.765625 C 7.207031 161.765625 6.457031 162.480469 6.457031 163.375 C 6.457031 163.804688 6.601562 164.195312 6.886719 164.484375 L 8.605469 166.339844 C 9.210938 167.019531 10.25 167.054688 10.894531 166.449219 C 11.070312 166.304688 11.25 166.089844 11.324219 165.839844 Z M 11.324219 165.839844 " fill-opacity="1" fill-rule="nonzero"/><path fill="#10294c" d="M 18.335938 153.972656 L 16.222656 154.867188 C 15.542969 155.152344 14.757812 155.011719 14.21875 154.511719 L 13.71875 154.011719 C 12.96875 153.296875 12.933594 152.117188 13.648438 151.367188 C 13.898438 151.113281 14.183594 150.9375 14.507812 150.863281 L 17.117188 150.148438 C 18.121094 149.863281 19.15625 150.472656 19.410156 151.472656 C 19.445312 151.617188 19.480469 151.757812 19.480469 151.902344 L 19.480469 152.222656 C 19.480469 152.972656 19.050781 153.652344 18.335938 153.972656 Z M 18.335938 153.972656 " fill-opacity="1" fill-rule="nonzero"/></svg>