<svg width="1472" height="718" viewBox="0 0 1472 718" fill="none" xmlns="http://www.w3.org/2000/svg">
<path d="M6.64339 652.453C11.4698 659.049 19.6501 659.596 26.017 654.275C33.6339 647.901 34.6171 635.664 28.0928 628.422C23.2099 623.007 15.7158 621.308 8.62388 624.011C2.81929 626.224 0.830645 630.267 1.54795 637.76C2.00343 642.493 4.27165 649.217 6.64339 652.453Z" fill="#464243" fill-opacity="0.54"/>
<path d="M65.3453 698.801C69.068 704.008 74.6232 704.872 80.3732 701.356C87.1316 697.225 90.2519 691.194 89.7419 684.034C89.2652 677.35 84.0383 672.904 78.2036 669.734C71.1889 665.931 60.1576 669.878 59.5788 677.24C59.0421 684.007 62.7989 695.246 65.3453 698.801Z" fill="#464243" fill-opacity="0.54"/>
<path d="M92.1266 606.14C93.555 611.154 94.6188 616.243 97.4329 620.727C100.537 625.668 104.731 626.319 110.635 623.941C119.615 620.327 123.893 611.504 120.633 603.325C117.63 595.801 106.491 590.181 98.1187 591.977C91.8173 593.326 89.7505 597.794 92.1266 606.14Z" fill="#464243" fill-opacity="0.54"/>
<path d="M96.8751 696.077C95.8525 696.726 93.7207 698.899 94.158 700.743C94.9472 704.06 99.3924 706.536 102.009 705.562C105.651 704.203 106.239 701.897 106.45 699.538C106.692 696.807 101.552 693.094 96.8751 696.077Z" fill="#464243" fill-opacity="0.54"/>
<path d="M102.622 675.513C99.0417 676.177 97.351 679.169 98.3839 681.798C99.6909 685.129 102.784 686.291 106.321 685.779C109.489 685.317 111.738 683.017 111.132 679.597C110.592 676.579 106.641 674.769 102.622 675.513Z" fill="#464243" fill-opacity="0.54"/>
<path d="M88.042 666.702C88.6921 668.22 92.1486 669.498 94.492 669.389C98.5346 669.207 100.713 665.348 99.5222 662.076C98.3041 658.717 95.5409 658.24 92.1421 659.01C88.4207 659.851 86.5679 663.267 88.042 666.702Z" fill="#464243" fill-opacity="0.54"/>
<path d="M44.7878 624.616C40.835 625.224 39.8141 627.353 39.8229 629.681C39.834 632.847 43.7397 635.67 46.6653 634.562C48.931 633.7 51.3495 631.851 51.4079 629.863C51.4542 628.214 49.3853 623.906 44.7878 624.616Z" fill="#464243" fill-opacity="0.54"/>
<path d="M132.791 593.571C128.555 593.994 127.63 596.368 127.438 598.673C127.159 602.007 130.439 603.717 134.005 603.568C137.52 603.424 141.25 600.4 140.156 597.348C139.435 595.345 137.017 593.143 132.791 593.571Z" fill="#464243" fill-opacity="0.54"/>
<path d="M42.907 644.927C38.5787 645.809 37.6466 648.484 38.0633 650.579C38.6862 653.685 42.2406 654.413 44.4013 654.394C47.5606 654.37 49.9076 651.004 49.6942 649.158C49.4636 647.147 47.2774 644.037 42.907 644.927Z" fill="#464243" fill-opacity="0.54"/>
<path d="M125.987 621.241C126.893 625.705 131.036 625.16 133.08 624.582C135.227 623.971 137.64 622.189 137.469 620.278C137.166 616.898 133.433 615.197 130.49 616.144C128.389 616.821 125.391 618.28 125.987 621.241Z" fill="#464243" fill-opacity="0.54"/>
<path d="M119.206 578.485C115.09 579.062 114.001 582.117 114.426 584.286C114.977 587.094 118.752 587.642 120.13 587.43C123.798 586.869 126.099 584.511 125.864 581.987C125.667 579.861 123.102 577.934 119.206 578.485Z" fill="#464243" fill-opacity="0.54"/>
<path d="M24.9384 615.419C25.7455 619.39 29.8457 619.573 31.9259 619.131C35.6142 618.343 36.8573 615.299 36.0189 612.853C35.3765 610.975 32.2866 609.37 30.623 609.658C28.4501 610.029 24.0863 611.253 24.9384 615.419Z" fill="#464243" fill-opacity="0.54"/>
<path d="M159.028 638.356C157.8 630.578 163.577 625.433 172.333 625.778C182.815 626.192 192.617 634.876 193.04 644.127C193.356 651.05 188.946 656.664 181.58 658.72C175.551 660.406 171.059 658.497 166.056 652.415C162.891 648.574 159.631 642.176 159.028 638.356Z" fill="#464243" fill-opacity="0.54"/>
<path d="M169.114 569.361C168.081 563.271 171.641 559.402 178.59 558.736C186.758 557.956 193.581 560.708 198.499 566.421C203.088 571.75 202.424 578.136 200.356 583.906C197.867 590.843 186.603 594.235 180.715 589.002C175.3 584.191 169.821 573.525 169.114 569.361Z" fill="#464243" fill-opacity="0.54"/>
<path d="M257.962 623.949C255.326 619.33 252.367 614.866 251.177 609.846C249.865 604.316 252.558 601.399 258.778 599.78C268.248 597.32 278.017 601.523 281.604 609.593C284.902 617.02 280.633 627.708 272.974 631.196C267.213 633.819 262.341 631.633 257.962 623.949Z" fill="#464243" fill-opacity="0.54"/>
<path d="M194.977 553.187C193.726 553.284 190.505 552.877 189.468 551.227C187.612 548.264 189.142 543.82 191.841 543.045C195.597 541.968 197.751 543.371 199.655 545.032C201.865 546.956 200.721 552.738 194.977 553.187Z" fill="#464243" fill-opacity="0.54"/>
<path d="M214.545 565.416C211.345 566.986 207.851 565.696 206.687 563.115C205.212 559.837 206.69 557.17 209.741 555.513C212.483 554.027 215.886 554.468 217.957 557.408C219.783 559.999 218.134 563.656 214.545 565.416Z" fill="#464243" fill-opacity="0.54"/>
<path d="M210.043 580.51C209.412 578.987 211.079 576.021 212.928 574.746C216.124 572.548 220.627 574.206 222.15 577.369C223.715 580.615 221.977 582.572 218.839 583.956C215.401 585.469 211.47 583.961 210.043 580.51Z" fill="#464243" fill-opacity="0.54"/>
<path d="M208.486 637.355C205.045 639.179 202.697 638.159 200.981 636.392C198.644 633.991 199.511 629.6 202.542 628.744C204.89 628.086 208.091 628.088 209.605 629.555C210.864 630.777 212.484 635.23 208.486 637.355Z" fill="#464243" fill-opacity="0.54"/>
<path d="M298.022 609.939C294.499 612.068 292.046 610.807 290.193 609.175C287.511 606.813 288.732 603.628 291.538 601.675C294.303 599.751 299.36 599.88 300.792 602.822C301.732 604.757 301.529 607.818 298.022 609.939Z" fill="#464243" fill-opacity="0.54"/>
<path d="M192.029 623.077C188.099 624.917 185.414 623.432 184.183 621.607C182.353 618.896 184.502 616.289 186.146 615.054C188.554 613.247 192.824 614.435 194.024 615.954C195.341 617.606 195.992 621.225 192.029 623.077Z" fill="#464243" fill-opacity="0.54"/>
<path d="M272.39 592.948C269.772 589.049 273.307 587.065 275.282 586.32C277.356 585.535 280.501 585.491 281.786 587.04C284.059 589.766 282.495 593.213 279.571 594.198C277.479 594.904 274.128 595.529 272.39 592.948Z" fill="#464243" fill-opacity="0.54"/>
<path d="M298.912 629.207C295.368 631.146 292.288 629.471 291.002 627.583C289.338 625.139 291.79 622.542 292.99 621.903C296.177 620.206 299.659 620.66 301.35 622.704C302.778 624.427 302.264 627.371 298.912 629.207Z" fill="#464243" fill-opacity="0.54"/>
<path d="M200.279 655.787C197.951 652.316 200.916 649.806 202.818 648.937C206.19 647.399 209.378 648.983 210.558 651.316C211.463 653.11 210.313 656.11 208.847 656.858C206.925 657.831 202.722 659.429 200.279 655.787Z" fill="#464243" fill-opacity="0.54"/>
<path d="M254.946 546.792C262.457 550.98 270.131 548.426 273.368 541.219C277.243 532.59 272.321 521.111 262.967 516.974C255.965 513.877 248.372 515.129 243.229 520.229C239.018 524.403 239.136 528.815 243.347 535.348C246.01 539.479 251.263 544.736 254.946 546.792Z" fill="#464243" fill-opacity="0.54"/>
<path d="M330.169 566.976C336.016 570.315 341.463 569.025 345.002 563.692C349.161 557.418 349.122 550.783 345.259 544.467C341.65 538.575 334.803 536.489 328.005 535.792C319.841 534.951 311.723 542.652 314.695 549.551C317.428 555.895 326.17 564.698 330.169 566.976Z" fill="#464243" fill-opacity="0.54"/>
<path d="M310.406 472.86C314.083 476.879 317.468 481.103 322.147 484.127C327.308 487.456 331.418 486.477 335.64 482.122C342.06 475.49 341.742 465.88 334.902 459.672C328.603 453.961 315.839 453.016 309.103 457.764C304.034 461.339 304.293 466.17 310.406 472.86Z" fill="#464243" fill-opacity="0.54"/>
<path d="M357.445 552.741C356.83 553.716 355.925 556.482 357.201 557.993C359.493 560.707 364.7 561.3 366.605 559.439C369.259 556.849 368.699 554.537 367.766 552.314C366.69 549.742 360.267 548.291 357.445 552.741Z" fill="#464243" fill-opacity="0.54"/>
<path d="M352.881 531.93C349.953 533.865 349.846 537.217 352.027 539.215C354.797 541.751 358.153 541.655 361.112 539.873C363.766 538.27 364.714 535.343 362.536 532.464C360.611 529.927 356.17 529.758 352.881 531.93Z" fill="#464243" fill-opacity="0.54"/>
<path d="M335.482 529.368C336.794 530.504 340.537 530.373 342.608 529.403C346.182 527.729 346.32 523.414 343.691 520.887C340.992 518.294 338.262 518.887 335.543 520.857C332.572 523.007 332.517 526.797 335.482 529.368Z" fill="#464243" fill-opacity="0.54"/>
<path d="M276.285 507.291C272.993 509.314 273.081 511.63 274.193 513.739C275.709 516.612 280.586 517.715 282.712 515.62C284.359 513.993 285.668 511.411 284.778 509.585C284.039 508.07 280.113 504.933 276.285 507.291Z" fill="#464243" fill-opacity="0.54"/>
<path d="M341.284 446.282C337.647 448.248 337.939 450.748 338.859 452.909C340.191 456.041 343.972 456.366 347.134 454.904C350.254 453.462 352.197 449.328 349.752 446.964C348.151 445.413 344.912 444.319 341.284 446.282Z" fill="#464243" fill-opacity="0.54"/>
<path d="M284.233 526.43C280.727 528.849 281.157 531.626 282.533 533.37C284.569 535.958 288.14 535.293 290.088 534.47C292.935 533.27 293.462 529.338 292.397 527.742C291.231 526.005 287.771 523.992 284.233 526.43Z" fill="#464243" fill-opacity="0.54"/>
<path d="M348.269 473.942C351.211 477.658 354.704 475.615 356.283 474.326C357.941 472.976 359.278 470.457 358.214 468.782C356.335 465.827 352.145 465.677 349.927 467.63C348.343 469.031 346.32 471.478 348.269 473.942Z" fill="#464243" fill-opacity="0.54"/>
<path d="M321.803 437.65C318.352 439.714 318.811 442.888 320.229 444.702C322.062 447.049 325.746 446.133 326.895 445.427C329.949 443.551 330.916 440.553 329.502 438.351C328.313 436.493 325.072 435.697 321.803 437.65Z" fill="#464243" fill-opacity="0.54"/>
<path d="M253.928 506.342C256.551 509.65 260.351 508.284 262.022 507.107C264.993 505.015 264.67 501.792 262.749 499.883C261.277 498.415 257.71 498.113 256.34 498.991C254.548 500.142 251.175 502.875 253.928 506.342Z" fill="#464243" fill-opacity="0.54"/>
<path d="M393.111 484.318C392.182 476.505 398.154 471.536 406.889 472.141C417.35 472.869 426.814 481.843 426.886 491.1C426.936 498.029 422.318 503.505 414.879 505.341C408.786 506.845 404.365 504.804 399.596 498.576C396.586 494.64 393.57 488.15 393.111 484.318Z" fill="#464243" fill-opacity="0.54"/>
<path d="M405.826 415.661C405.022 409.549 408.73 405.789 415.701 405.334C423.895 404.794 430.609 407.751 435.306 413.607C439.689 419.071 438.782 425.434 436.495 431.136C433.746 437.993 422.358 441.044 416.673 435.64C411.441 430.673 406.374 419.845 405.826 415.661Z" fill="#464243" fill-opacity="0.54"/>
<path d="M492.543 472.878C490.09 468.187 487.3 463.633 486.301 458.581C485.204 453.016 488.004 450.183 494.287 448.75C503.839 446.576 513.447 451.067 516.72 459.238C519.738 466.762 515.064 477.314 507.277 480.57C501.414 483.022 496.632 480.688 492.543 472.878Z" fill="#464243" fill-opacity="0.54"/>
<path d="M432.295 400.275C431.039 400.335 427.833 399.833 426.862 398.155C425.118 395.135 426.816 390.742 429.542 390.05C433.344 389.085 435.441 390.549 437.279 392.268C439.414 394.257 438.055 400 432.295 400.275Z" fill="#464243" fill-opacity="0.54"/>
<path d="M451.381 413.083C448.126 414.557 444.684 413.164 443.619 410.547C442.27 407.229 443.845 404.608 446.961 403.042C449.759 401.643 453.142 402.18 455.1 405.181C456.824 407.828 455.039 411.431 451.381 413.083Z" fill="#464243" fill-opacity="0.54"/>
<path d="M446.311 428.035C445.736 426.492 447.515 423.576 449.415 422.36C452.689 420.258 457.126 422.052 458.527 425.255C459.965 428.545 458.158 430.452 454.965 431.74C451.472 433.15 447.608 431.522 446.311 428.035Z" fill="#464243" fill-opacity="0.54"/>
<path d="M442.58 484.792C439.075 486.516 436.765 485.422 435.119 483.61C432.876 481.136 433.906 476.775 436.969 476.015C439.344 475.423 442.54 475.52 444.002 477.032C445.209 478.291 446.661 482.792 442.58 484.792Z" fill="#464243" fill-opacity="0.54"/>
<path d="M533.12 460.077C529.52 462.097 527.114 460.767 525.326 459.082C522.734 456.642 524.075 453.491 526.956 451.625C529.79 449.784 534.841 450.066 536.16 453.049C537.026 455.008 536.707 458.064 533.12 460.077Z" fill="#464243" fill-opacity="0.54"/>
<path d="M426.678 470.035C422.683 471.755 420.05 470.187 418.89 468.326C417.167 465.566 419.414 463.026 421.109 461.841C423.582 460.105 427.804 461.421 428.948 462.973C430.199 464.665 430.71 468.299 426.678 470.035Z" fill="#464243" fill-opacity="0.54"/>
<path d="M508.148 442.33C505.68 438.353 509.293 436.481 511.296 435.791C513.397 435.073 516.542 435.123 517.77 436.705C519.935 439.5 518.241 442.897 515.28 443.794C513.161 444.438 509.788 444.964 508.148 442.33Z" fill="#464243" fill-opacity="0.54"/>
<path d="M533.273 479.358C529.661 481.188 526.642 479.423 525.431 477.499C523.86 475.005 526.415 472.484 527.633 471.882C530.885 470.285 534.352 470.838 535.963 472.935C537.32 474.699 536.694 477.621 533.273 479.358Z" fill="#464243" fill-opacity="0.54"/>
<path d="M433.676 502.971C431.484 499.431 434.546 497.013 436.475 496.202C439.903 494.767 443.034 496.442 444.125 498.812C444.96 500.629 443.694 503.595 442.199 504.294C440.241 505.212 435.978 506.682 433.676 502.971Z" fill="#464243" fill-opacity="0.54"/>
<path d="M492.594 390.637C498.227 396.711 506.419 396.44 512.067 390.517C518.831 383.425 518.256 371.163 510.854 364.616C505.318 359.721 497.659 358.777 490.958 362.169C485.466 364.947 484.008 369.16 485.669 376.537C486.722 381.196 489.828 387.654 492.594 390.637Z" fill="#464243" fill-opacity="0.54"/>
<path d="M556.782 430.864C561.143 435.662 566.773 435.969 572.037 431.907C578.227 427.126 580.561 420.825 579.15 413.756C577.828 407.16 572.074 403.259 565.875 400.695C558.425 397.607 547.963 402.63 548.322 410.004C548.649 416.786 553.804 427.581 556.782 430.864Z" fill="#464243" fill-opacity="0.54"/>
<path d="M571.645 336.099C573.7 340.945 575.404 345.895 578.767 350.073C582.481 354.676 586.73 354.901 592.288 351.954C600.753 347.469 603.885 338.272 599.61 330.469C595.675 323.288 583.892 318.813 575.803 321.429C569.715 323.396 568.23 328.047 571.645 336.099Z" fill="#464243" fill-opacity="0.54"/>
<path d="M587.764 425.013C586.829 425.766 584.985 428.132 585.656 429.924C586.862 433.142 591.591 435.161 594.065 433.933C597.509 432.221 597.803 429.871 597.711 427.506C597.608 424.764 592.03 421.584 587.764 425.013Z" fill="#464243" fill-opacity="0.54"/>
<path d="M590.864 404.009C587.393 405.022 586.093 408.165 587.449 410.674C589.172 413.854 592.39 414.704 595.84 413.843C598.931 413.067 600.875 410.557 599.834 407.217C598.92 404.274 594.76 402.867 590.864 404.009Z" fill="#464243" fill-opacity="0.54"/>
<path d="M575.264 396.7C576.106 398.142 579.701 399.068 582.013 398.732C586.008 398.145 587.679 394.095 586.086 390.961C584.447 387.743 581.644 387.542 578.364 388.648C574.775 389.854 573.369 393.431 575.264 396.7Z" fill="#464243" fill-opacity="0.54"/>
<path d="M526.955 359.173C523.107 360.17 522.365 362.388 522.668 364.697C523.081 367.847 527.316 370.263 530.081 368.868C532.227 367.79 534.396 365.708 534.202 363.73C534.038 362.084 531.435 358.011 526.955 359.173Z" fill="#464243" fill-opacity="0.54"/>
<path d="M610.452 319.562C606.296 320.408 605.679 322.859 605.781 325.166C605.926 328.508 609.4 329.88 612.928 329.38C616.399 328.884 619.721 325.509 618.243 322.586C617.279 320.664 614.598 318.72 610.452 319.562Z" fill="#464243" fill-opacity="0.54"/>
<path d="M527.664 379.548C523.477 380.856 522.89 383.609 523.573 385.649C524.584 388.671 528.206 389.044 530.35 388.809C533.484 388.471 535.39 384.891 534.943 383.08C534.46 381.104 531.894 378.227 527.664 379.548Z" fill="#464243" fill-opacity="0.54"/>
<path d="M607.199 347.741C608.666 352.089 612.71 351.135 614.672 350.353C616.727 349.539 618.895 347.523 618.481 345.639C617.753 342.313 613.83 340.995 611.03 342.225C609.025 343.109 606.229 344.86 607.199 347.741Z" fill="#464243" fill-opacity="0.54"/>
<path d="M595.04 305.92C591.028 306.903 590.33 310.048 591.031 312.162C591.932 314.898 595.757 315.066 597.099 314.717C600.667 313.796 602.653 311.225 602.104 308.74C601.636 306.644 598.841 304.984 595.04 305.92Z" fill="#464243" fill-opacity="0.54"/>
<path d="M506.072 352.005C507.379 355.873 511.478 355.646 513.486 354.997C517.051 353.849 517.898 350.701 516.756 348.352C515.884 346.551 512.605 345.263 510.991 345.713C508.877 346.299 504.701 347.947 506.072 352.005Z" fill="#464243" fill-opacity="0.54"/>
<path d="M648.699 379.146C648.778 371.292 655.351 366.956 663.953 368.441C674.256 370.217 682.508 380.087 681.391 389.288C680.555 396.173 675.26 401.152 667.631 402.221C661.384 403.1 657.252 400.627 653.313 393.963C650.828 389.751 648.662 382.999 648.699 379.146Z" fill="#464243" fill-opacity="0.54"/>
<path d="M670.148 312.238C670.138 306.083 674.305 302.723 681.289 302.971C689.504 303.262 695.792 306.874 699.711 313.165C703.363 319.032 701.646 325.26 698.642 330.697C695.028 337.227 683.318 339.115 678.36 333.17C673.805 327.709 670.16 316.447 670.148 312.238Z" fill="#464243" fill-opacity="0.54"/>
<path d="M748.98 377.806C747.14 372.896 744.954 368.095 744.609 362.978C744.231 357.336 747.383 354.803 753.806 354.017C763.583 352.817 772.549 358.244 774.756 366.696C776.787 374.468 770.787 384.481 762.629 386.931C756.491 388.773 752.035 385.975 748.98 377.806Z" fill="#464243" fill-opacity="0.54"/>
<path d="M698.428 299.619C697.169 299.551 694.049 298.731 693.303 296.964C691.957 293.791 694.209 289.597 697.007 289.182C700.904 288.606 702.798 290.275 704.411 292.166C706.274 294.355 704.184 299.927 698.428 299.619Z" fill="#464243" fill-opacity="0.54"/>
<path d="M715.754 314.265C712.329 315.398 709.087 313.668 708.362 310.963C707.448 307.532 709.349 305.084 712.649 303.846C715.607 302.734 718.899 303.613 720.459 306.788C721.836 309.59 719.596 312.99 715.754 314.265Z" fill="#464243" fill-opacity="0.54"/>
<path d="M708.79 328.601C708.421 327.011 710.562 324.296 712.605 323.28C716.133 321.523 720.31 323.748 721.29 327.072C722.298 330.487 720.254 332.198 716.919 333.158C713.266 334.207 709.629 332.201 708.79 328.601Z" fill="#464243" fill-opacity="0.54"/>
<path d="M697.8 384.605C694.093 385.963 691.939 384.643 690.536 382.676C688.622 379.998 690.206 375.77 693.35 375.32C695.784 374.973 698.949 375.392 700.205 377.039C701.248 378.412 702.111 383.028 697.8 384.605Z" fill="#464243" fill-opacity="0.54"/>
<path d="M790.942 369.178C787.106 370.824 784.884 369.256 783.322 367.403C781.067 364.718 782.8 361.727 785.902 360.161C788.957 358.62 793.939 359.409 794.865 362.505C795.474 364.535 794.768 367.539 790.942 369.178Z" fill="#464243" fill-opacity="0.54"/>
<path d="M683.889 368.342C679.697 369.647 677.285 367.829 676.373 365.862C675.011 362.944 677.573 360.646 679.406 359.64C682.087 358.17 686.114 359.902 687.052 361.56C688.078 363.366 688.118 367.025 683.889 368.342Z" fill="#464243" fill-opacity="0.54"/>
<path d="M768.411 349.034C766.463 344.838 770.292 343.34 772.373 342.857C774.556 342.354 777.67 342.719 778.687 344.418C780.483 347.414 778.361 350.616 775.304 351.207C773.117 351.631 769.7 351.818 768.411 349.034Z" fill="#464243" fill-opacity="0.54"/>
<path d="M788.618 388.345C784.794 389.802 782.025 387.741 781.066 385.707C779.824 383.076 782.684 380.826 783.976 380.353C787.411 379.091 790.782 379.992 792.117 382.235C793.24 384.125 792.241 386.969 788.618 388.345Z" fill="#464243" fill-opacity="0.54"/>
<path d="M686.617 401.763C684.889 398.024 688.243 395.931 690.264 395.324C693.856 394.241 696.752 396.221 697.529 398.683C698.13 400.573 696.487 403.391 694.915 403.936C692.851 404.651 688.428 405.681 686.617 401.763Z" fill="#464243" fill-opacity="0.54"/>
<path d="M800.111 308.287C804.403 315.168 812.523 316.227 819.293 311.314C827.405 305.433 829.362 293.291 823.429 285.66C818.987 279.951 811.651 277.791 804.358 280.041C798.388 281.889 796.083 285.793 796.203 293.31C796.281 298.061 798.006 304.908 800.111 308.287Z" fill="#464243" fill-opacity="0.54"/>
<path d="M854.98 358.186C858.281 363.608 863.754 364.819 869.772 361.673C876.839 357.974 880.434 352.158 880.498 344.978C880.558 338.282 875.698 333.524 870.127 329.998C863.433 325.763 852.114 329.014 850.948 336.317C849.875 343.034 852.725 354.476 854.98 358.186Z" fill="#464243" fill-opacity="0.54"/>
<path d="M889.086 267.443C890.113 272.536 890.77 277.68 893.219 282.327C895.925 287.45 900.056 288.357 906.135 286.357C915.38 283.316 920.355 274.783 917.751 266.419C915.355 258.727 904.693 252.429 896.195 253.694C889.803 254.642 887.388 258.975 889.086 267.443Z" fill="#464243" fill-opacity="0.54"/>
<path d="M886.657 357.44C885.584 358.026 883.28 360.053 883.573 361.924C884.096 365.281 888.333 368.028 891.019 367.219C894.761 366.093 895.531 363.834 895.928 361.493C896.394 358.781 891.556 354.756 886.657 357.44Z" fill="#464243" fill-opacity="0.54"/>
<path d="M894.024 337.29C890.399 337.728 888.476 340.61 889.299 343.295C890.339 346.698 893.329 348.054 896.896 347.761C900.099 347.498 902.525 345.348 902.19 341.897C901.893 338.856 898.093 336.803 894.024 337.29Z" fill="#464243" fill-opacity="0.54"/>
<path d="M880.185 327.589C880.713 329.143 884.06 330.634 886.407 330.675C890.452 330.745 892.933 327.033 892.009 323.697C891.062 320.271 888.342 319.62 884.889 320.174C881.109 320.784 878.991 324.069 880.185 327.589Z" fill="#464243" fill-opacity="0.54"/>
<path d="M840.386 282.906C836.394 283.266 835.21 285.327 835.032 287.649C834.791 290.81 838.462 293.866 841.465 292.944C843.8 292.228 846.357 290.533 846.574 288.555C846.755 286.915 845.033 282.49 840.386 282.906Z" fill="#464243" fill-opacity="0.54"/>
<path d="M930.662 257.452C926.401 257.611 925.29 259.921 924.911 262.208C924.366 265.515 927.505 267.422 931.074 267.501C934.596 267.576 938.553 264.793 937.706 261.682C937.149 259.635 934.91 257.293 930.662 257.452Z" fill="#464243" fill-opacity="0.54"/>
<path d="M836.893 303.047C832.501 303.656 831.36 306.267 831.613 308.382C831.984 311.519 835.471 312.469 837.626 312.586C840.779 312.757 843.39 309.546 843.326 307.693C843.254 305.675 841.326 302.435 836.893 303.047Z" fill="#464243" fill-opacity="0.54"/>
<path d="M921.669 284.624C922.215 289.135 926.389 288.847 928.479 288.397C930.667 287.928 933.214 286.299 933.197 284.381C933.165 280.991 929.578 279.064 926.567 279.82C924.411 280.364 921.307 281.637 921.669 284.624Z" fill="#464243" fill-opacity="0.54"/>
<path d="M918.306 241.553C914.16 241.878 912.824 244.852 913.077 247.041C913.403 249.88 917.13 250.659 918.521 250.534C922.22 250.205 924.707 248.001 924.672 245.467C924.647 243.333 922.238 241.251 918.306 241.553Z" fill="#464243" fill-opacity="0.54"/>
<path d="M821.317 272.492C821.811 276.506 825.886 276.945 827.993 276.631C831.735 276.08 833.22 273.12 832.578 270.63C832.09 268.716 829.128 266.922 827.451 267.102C825.252 267.336 820.801 268.283 821.317 272.492Z" fill="#464243" fill-opacity="0.54"/>
<path d="M950.821 316.639C951.539 308.811 958.45 304.912 966.907 306.941C977.041 309.373 984.468 319.745 982.601 328.849C981.205 335.659 975.516 340.283 967.821 340.864C961.517 341.341 957.602 338.613 954.215 331.711C952.076 327.352 950.467 320.481 950.821 316.639Z" fill="#464243" fill-opacity="0.54"/>
<path d="M977.671 251.289C978.165 245.15 982.595 242.065 989.542 242.763C997.711 243.579 1003.69 247.585 1007.09 254.107C1010.25 260.194 1008.03 266.294 1004.59 271.524C1000.45 277.806 988.618 278.936 984.157 272.694C980.056 266.956 977.337 255.486 977.671 251.289Z" fill="#464243" fill-opacity="0.54"/>
<path d="M1050.96 321.726C1049.53 316.712 1047.74 311.782 1047.81 306.656C1047.89 301.006 1051.25 298.686 1057.72 298.309C1067.56 297.742 1076.07 303.728 1077.58 312.293C1078.97 320.176 1072.17 329.777 1063.83 331.696C1057.56 333.141 1053.34 330.063 1050.96 321.726Z" fill="#464243" fill-opacity="0.54"/>
<path d="M1006.91 240.517C1005.66 240.37 1002.62 239.349 1002.02 237.541C1000.93 234.291 1003.52 230.249 1006.34 230.016C1010.28 229.693 1012.03 231.477 1013.49 233.469C1015.17 235.773 1012.63 241.192 1006.91 240.517Z" fill="#464243" fill-opacity="0.54"/>
<path d="M1023 256.231C1019.49 257.141 1016.4 255.209 1015.9 252.464C1015.26 248.982 1017.36 246.668 1020.75 245.642C1023.79 244.725 1027.01 245.81 1028.3 249.078C1029.45 251.96 1026.94 255.205 1023 256.231Z" fill="#464243" fill-opacity="0.54"/>
<path d="M1014.88 270.083C1014.64 268.473 1017 265.904 1019.12 265.021C1022.78 263.493 1026.77 265.981 1027.47 269.36C1028.21 272.826 1026.03 274.404 1022.62 275.145C1018.89 275.957 1015.43 273.725 1014.88 270.083Z" fill="#464243" fill-opacity="0.54"/>
<path d="M999.35 325.229C995.543 326.343 993.501 324.892 992.263 322.839C990.574 320.043 992.502 315.929 995.673 315.683C998.129 315.492 1001.25 316.113 1002.37 317.838C1003.3 319.272 1003.78 323.931 999.35 325.229Z" fill="#464243" fill-opacity="0.54"/>
<path d="M1093.52 315.806C1089.56 317.199 1087.48 315.495 1086.07 313.549C1084.03 310.729 1086.01 307.852 1089.23 306.494C1092.4 305.152 1097.31 306.255 1097.98 309.402C1098.42 311.468 1097.47 314.416 1093.52 315.806Z" fill="#464243" fill-opacity="0.54"/>
<path d="M986.804 308.119C982.516 309.154 980.26 307.184 979.507 305.165C978.388 302.171 981.126 300.039 983.038 299.154C985.834 297.858 989.709 299.842 990.512 301.556C991.388 303.423 991.129 307.08 986.804 308.119Z" fill="#464243" fill-opacity="0.54"/>
<path d="M1072.69 294.274C1071.09 289.966 1075.03 288.717 1077.15 288.371C1079.36 288.009 1082.44 288.571 1083.32 290.331C1084.87 293.432 1082.49 296.488 1079.39 296.884C1077.17 297.168 1073.75 297.131 1072.69 294.274Z" fill="#464243" fill-opacity="0.54"/>
<path d="M1089.64 334.774C1085.71 335.978 1083.11 333.749 1082.32 331.659C1081.3 328.955 1084.34 326.897 1085.66 326.507C1089.19 325.465 1092.48 326.584 1093.63 328.904C1094.6 330.859 1093.37 333.631 1089.64 334.774Z" fill="#464243" fill-opacity="0.54"/>
<path d="M986.797 341.621C985.382 337.781 988.898 335.909 990.964 335.434C994.634 334.584 997.36 336.743 997.937 339.249C998.378 341.171 996.513 343.88 994.899 344.321C992.78 344.903 988.285 345.647 986.797 341.621Z" fill="#464243" fill-opacity="0.54"/>
<path d="M1085.51 255.054C1092.39 260.022 1100.36 258.323 1104.57 251.52C1109.61 243.38 1106.3 231.456 1097.59 226.336C1091.06 222.503 1083.35 222.927 1077.54 227.427C1072.78 231.116 1072.3 235.507 1075.57 242.446C1077.65 246.828 1082.13 252.616 1085.51 255.054Z" fill="#464243" fill-opacity="0.54"/>
<path d="M1157.4 283.233C1162.74 287.176 1168.33 286.486 1172.58 281.577C1177.57 275.806 1178.45 269.216 1175.49 262.531C1172.72 256.295 1166.21 253.484 1159.56 252.052C1151.57 250.337 1142.45 257.095 1144.44 264.267C1146.28 270.855 1153.74 280.537 1157.4 283.233Z" fill="#464243" fill-opacity="0.54"/>
<path d="M1150.77 187.701C1153.87 192.092 1156.64 196.65 1160.87 200.153C1165.54 204.016 1169.75 203.492 1174.54 199.625C1181.83 193.741 1182.85 184.175 1176.91 177.272C1171.45 170.922 1158.91 168.603 1151.56 172.585C1146.04 175.582 1145.63 180.403 1150.77 187.701Z" fill="#464243" fill-opacity="0.54"/>
<path d="M1186.44 272.061C1185.7 272.96 1184.42 275.607 1185.48 277.245C1187.38 280.192 1192.46 281.342 1194.61 279.702C1197.6 277.416 1197.37 275.061 1196.75 272.758C1196.04 270.09 1189.86 267.951 1186.44 272.061Z" fill="#464243" fill-opacity="0.54"/>
<path d="M1184.79 250.918C1181.61 252.521 1181.04 255.836 1182.93 258.055C1185.33 260.873 1188.68 261.141 1191.86 259.691C1194.71 258.388 1196.06 255.588 1194.29 252.494C1192.74 249.769 1188.35 249.117 1184.79 250.918Z" fill="#464243" fill-opacity="0.54"/>
<path d="M1167.87 246.487C1169.01 247.758 1172.74 248.036 1174.93 247.298C1178.72 246.023 1179.45 241.759 1177.18 238.966C1174.86 236.099 1172.07 236.394 1169.1 238.052C1165.86 239.865 1165.28 243.617 1167.87 246.487Z" fill="#464243" fill-opacity="0.54"/>
<path d="M1112.14 218.172C1108.6 219.825 1108.36 222.13 1109.18 224.344C1110.29 227.359 1114.98 228.981 1117.38 227.132C1119.24 225.696 1120.89 223.275 1120.26 221.368C1119.74 219.785 1116.28 216.246 1112.14 218.172Z" fill="#464243" fill-opacity="0.54"/>
<path d="M1185.09 164.673C1181.21 166.232 1181.16 168.745 1181.77 170.991C1182.66 174.243 1186.37 174.977 1189.72 173.868C1193 172.771 1195.51 168.881 1193.4 166.271C1192.03 164.557 1188.96 163.122 1185.09 164.673Z" fill="#464243" fill-opacity="0.54"/>
<path d="M1117.4 238.024C1113.58 240.043 1113.62 242.846 1114.75 244.724C1116.41 247.512 1120.05 247.24 1122.1 246.637C1125.09 245.752 1126.16 241.908 1125.32 240.21C1124.4 238.359 1121.25 235.989 1117.4 238.024Z" fill="#464243" fill-opacity="0.54"/>
<path d="M1188.21 192.876C1190.62 196.885 1194.37 195.238 1196.11 194.128C1197.94 192.969 1199.62 190.614 1198.79 188.838C1197.34 185.701 1193.2 185.096 1190.73 186.799C1188.96 188.017 1186.62 190.221 1188.21 192.876Z" fill="#464243" fill-opacity="0.54"/>
<path d="M1166.95 154.003C1163.24 155.675 1163.25 158.875 1164.41 160.828C1165.91 163.354 1169.69 162.847 1170.93 162.271C1174.22 160.739 1175.59 157.869 1174.49 155.529C1173.57 153.557 1170.46 152.42 1166.95 154.003Z" fill="#464243" fill-opacity="0.54"/>
<path d="M1090.08 214.809C1092.23 218.37 1096.19 217.427 1098.01 216.442C1101.25 214.691 1101.38 211.455 1099.73 209.35C1098.47 207.739 1094.98 207.053 1093.49 207.773C1091.56 208.72 1087.83 211.07 1090.08 214.809Z" fill="#464243" fill-opacity="0.54"/>
<path d="M1228.52 195.128C1227.59 187.32 1233.56 182.351 1242.3 182.956C1252.76 183.683 1262.22 192.658 1262.29 201.915C1262.34 208.839 1257.72 214.32 1250.29 216.156C1244.19 217.66 1239.78 215.618 1235.01 209.39C1231.99 205.455 1228.98 198.964 1228.52 195.128Z" fill="#464243" fill-opacity="0.54"/>
<path d="M1241.23 126.477C1240.43 120.364 1244.14 116.604 1251.11 116.145C1259.31 115.609 1266.02 118.567 1270.72 124.422C1275.1 129.887 1274.19 136.245 1271.9 141.952C1269.15 148.808 1257.77 151.86 1252.08 146.455C1246.85 141.484 1241.78 130.661 1241.23 126.477Z" fill="#464243" fill-opacity="0.54"/>
<path d="M1327.95 183.694C1325.5 179.002 1322.71 174.448 1321.71 169.396C1320.61 163.827 1323.42 160.998 1329.69 159.566C1339.25 157.392 1348.85 161.882 1352.13 170.053C1355.14 177.577 1350.47 188.13 1342.68 191.385C1336.82 193.833 1332.04 191.503 1327.95 183.694Z" fill="#464243" fill-opacity="0.54"/>
<path d="M1267.7 111.089C1266.45 111.149 1263.24 110.647 1262.27 108.969C1260.53 105.949 1262.23 101.553 1264.95 100.86C1268.75 99.8951 1270.85 101.363 1272.69 103.082C1274.82 105.071 1273.46 110.815 1267.7 111.089Z" fill="#464243" fill-opacity="0.54"/>
<path d="M1286.79 123.898C1283.54 125.371 1280.09 123.979 1279.03 121.361C1277.68 118.043 1279.25 115.418 1282.37 113.857C1285.17 112.454 1288.55 112.994 1290.51 115.995C1292.24 118.639 1290.45 122.245 1286.79 123.898Z" fill="#464243" fill-opacity="0.54"/>
<path d="M1281.72 138.846C1281.14 137.303 1282.93 134.391 1284.82 133.175C1288.1 131.073 1292.53 132.867 1293.93 136.07C1295.38 139.36 1293.57 141.263 1290.38 142.555C1286.88 143.965 1283.01 142.337 1281.72 138.846Z" fill="#464243" fill-opacity="0.54"/>
<path d="M1277.99 195.607C1274.48 197.327 1272.17 196.237 1270.53 194.421C1268.28 191.951 1269.31 187.59 1272.38 186.826C1274.75 186.238 1277.95 186.335 1279.41 187.847C1280.62 189.106 1282.07 193.603 1277.99 195.607Z" fill="#464243" fill-opacity="0.54"/>
<path d="M1368.53 170.892C1364.93 172.912 1362.52 171.582 1360.73 169.897C1358.14 167.457 1359.48 164.306 1362.36 162.44C1365.2 160.599 1370.25 160.881 1371.57 163.864C1372.43 165.823 1372.11 168.879 1368.53 170.892Z" fill="#464243" fill-opacity="0.54"/>
<path d="M1262.08 180.85C1258.09 182.566 1255.46 181.002 1254.3 179.14C1252.57 176.381 1254.82 173.837 1256.52 172.652C1258.99 170.919 1263.21 172.236 1264.35 173.787C1265.61 175.48 1266.12 179.114 1262.08 180.85Z" fill="#464243" fill-opacity="0.54"/>
<path d="M1343.56 153.143C1341.09 149.167 1344.7 147.291 1346.7 146.605C1348.8 145.886 1351.95 145.937 1353.18 147.518C1355.34 150.314 1353.65 153.711 1350.69 154.608C1348.57 155.248 1345.2 155.778 1343.56 153.143Z" fill="#464243" fill-opacity="0.54"/>
<path d="M1368.68 190.173C1365.07 192.004 1362.05 190.238 1360.84 188.314C1359.27 185.821 1361.82 183.3 1363.04 182.698C1366.29 181.1 1369.76 181.654 1371.37 183.746C1372.73 185.515 1372.1 188.436 1368.68 190.173Z" fill="#464243" fill-opacity="0.54"/>
<path d="M1269.09 213.785C1266.89 210.241 1269.95 207.823 1271.88 207.016C1275.31 205.577 1278.44 207.256 1279.53 209.626C1280.37 211.443 1279.1 214.405 1277.61 215.108C1275.65 216.026 1271.39 217.496 1269.09 213.785Z" fill="#464243" fill-opacity="0.54"/>
<path d="M1357.37 114.142C1364.25 119.11 1372.22 117.407 1376.43 110.608C1381.46 102.464 1378.16 90.5436 1369.44 85.4239C1362.92 81.5915 1355.21 82.0114 1349.4 86.5148C1344.64 90.2043 1344.16 94.5906 1347.44 101.534C1349.5 105.916 1354 111.704 1357.37 114.142Z" fill="#464243" fill-opacity="0.54"/>
<path d="M1429.26 142.323C1434.6 146.266 1440.19 145.576 1444.44 140.667C1449.43 134.896 1450.31 128.305 1447.34 121.621C1444.58 115.385 1438.07 112.573 1431.41 111.142C1423.43 109.426 1414.3 116.184 1416.3 123.352C1418.14 129.945 1425.6 139.626 1429.26 142.323Z" fill="#464243" fill-opacity="0.54"/>
<path d="M1422.63 46.7907C1425.72 51.1817 1428.5 55.7397 1432.73 59.2431C1437.4 63.1056 1441.61 62.5824 1446.4 58.7154C1453.69 52.831 1454.7 43.261 1448.77 36.3619C1443.3 30.0083 1430.77 27.6887 1423.42 31.6751C1417.89 34.672 1417.48 39.493 1422.63 46.7907Z" fill="#464243" fill-opacity="0.54"/>
<path d="M1458.31 131.15C1457.56 132.049 1456.28 134.697 1457.34 136.334C1459.24 139.277 1464.32 140.427 1466.47 138.787C1469.46 136.505 1469.23 134.151 1468.61 131.847C1467.9 129.179 1461.72 127.04 1458.31 131.15Z" fill="#464243" fill-opacity="0.54"/>
<path d="M1456.64 110.007C1453.47 111.609 1452.9 114.92 1454.79 117.143C1457.19 119.962 1460.53 120.229 1463.72 118.775C1466.58 117.476 1467.92 114.672 1466.15 111.582C1464.59 108.857 1460.21 108.205 1456.64 110.007Z" fill="#464243" fill-opacity="0.54"/>
<path d="M1439.73 105.576C1440.87 106.846 1444.6 107.125 1446.79 106.387C1450.57 105.112 1451.31 100.843 1449.05 98.0504C1446.72 95.1829 1443.93 95.4781 1440.96 97.1361C1437.71 98.953 1437.14 102.706 1439.73 105.576Z" fill="#464243" fill-opacity="0.54"/>
<path d="M1384.01 77.2565C1380.45 78.9138 1380.23 81.2187 1381.04 83.433C1382.15 86.4434 1386.84 88.0696 1389.24 86.2209C1391.09 84.7853 1392.75 82.3641 1392.12 80.4572C1391.59 78.8737 1388.13 75.3353 1384.01 77.2565Z" fill="#464243" fill-opacity="0.54"/>
<path d="M1456.95 23.7629C1453.07 25.3223 1453.01 27.8312 1453.63 30.081C1454.52 33.3335 1458.23 34.0629 1461.57 32.9537C1464.87 31.8606 1467.36 27.9705 1465.27 25.3612C1463.89 23.6466 1460.83 22.2074 1456.95 23.7629Z" fill="#464243" fill-opacity="0.54"/>
<path d="M1389.25 97.1138C1385.44 99.1286 1385.48 101.932 1386.6 103.814C1388.28 106.601 1391.91 106.33 1393.96 105.727C1396.95 104.842 1398.01 100.998 1397.17 99.3001C1396.26 97.4446 1393.1 95.0745 1389.25 97.1138Z" fill="#464243" fill-opacity="0.54"/>
<path d="M1460.07 51.9658C1462.47 55.9708 1466.22 54.3234 1467.97 53.2175C1469.8 52.0545 1471.48 49.7038 1470.65 47.9235C1469.2 44.7903 1465.06 44.1855 1462.58 45.8848C1460.82 47.1021 1458.47 49.3109 1460.07 51.9658Z" fill="#464243" fill-opacity="0.54"/>
<path d="M1438.8 13.0912C1435.09 14.7596 1435.11 17.9636 1436.27 19.9161C1437.77 22.442 1441.55 21.9317 1442.79 21.3591C1446.08 19.8278 1447.45 16.9577 1446.35 14.6171C1445.43 12.6458 1442.32 11.5081 1438.8 13.0912Z" fill="#464243" fill-opacity="0.54"/>
<path d="M1361.94 73.8943C1364.09 77.459 1368.05 76.5161 1369.87 75.5308C1373.11 73.78 1373.23 70.5441 1371.59 68.4387C1370.33 66.8285 1366.83 66.1381 1365.35 66.8617C1363.41 67.8088 1359.69 70.1592 1361.94 73.8943Z" fill="#464243" fill-opacity="0.54"/>
</svg>
