<svg width="1328" height="846" viewBox="0 0 1328 846" fill="none" xmlns="http://www.w3.org/2000/svg">
<path d="M149.418 761.995C157.539 766.068 165.104 762.358 167.64 753.726C170.678 743.389 164.422 730.655 154.423 726.823C146.944 723.953 139.32 726.16 134.611 732.553C130.759 737.79 131.352 742.859 136.35 749.97C139.508 754.462 145.435 759.997 149.418 761.995Z" fill="white"/>
<path d="M228.408 777.719C234.736 780.98 240.16 778.949 243.206 772.444C246.786 764.798 246.037 757.151 241.415 750.262C237.102 743.831 229.882 742.115 222.869 741.99C214.439 741.84 206.967 751.529 210.741 759.185C214.209 766.225 224.078 775.494 228.408 777.719Z" fill="white"/>
<path d="M198.166 671.213C202.352 675.483 206.258 680.01 211.364 683.021C216.99 686.342 221.085 684.805 224.929 679.358C230.779 671.072 229.43 660.027 221.778 653.559C214.736 647.604 201.596 647.797 195.226 653.95C190.428 658.576 191.204 664.117 198.166 671.213Z" fill="white"/>
<path d="M254.75 758.577C254.222 759.757 253.594 763.037 255.061 764.652C257.692 767.554 263.07 767.711 264.82 765.378C267.25 762.123 266.434 759.516 265.245 757.048C263.872 754.192 257.152 753.162 254.75 758.577Z" fill="white"/>
<path d="M247.861 735.046C245.077 737.572 245.324 741.443 247.771 743.531C250.868 746.174 254.285 745.726 257.118 743.372C259.658 741.26 260.313 737.792 257.776 734.691C255.543 731.961 250.991 732.209 247.861 735.046Z" fill="white"/>
<path d="M229.819 733.834C231.278 735.013 235.087 734.49 237.096 733.161C240.57 730.871 240.252 725.884 237.297 723.238C234.26 720.518 231.533 721.478 228.972 724.017C226.166 726.796 226.514 731.169 229.819 733.834Z" fill="white"/>
<path d="M166.994 714.321C163.846 716.989 164.186 719.648 165.546 721.966C167.402 725.126 172.504 725.91 174.447 723.28C175.956 721.241 177.021 718.133 175.915 716.118C174.997 714.446 170.655 711.221 166.994 714.321Z" fill="white"/>
<path d="M226.868 637.481C223.363 640.112 223.925 642.967 225.098 645.367C226.791 648.845 230.691 648.839 233.766 646.835C236.793 644.86 238.336 639.903 235.589 637.421C233.786 635.793 230.361 634.858 226.868 637.481Z" fill="white"/>
<path d="M177.159 735.59C173.836 738.725 174.571 741.884 176.158 743.756C178.519 746.535 182.093 745.414 183.996 744.271C186.778 742.601 186.895 738.017 185.635 736.285C184.257 734.395 180.513 732.423 177.159 735.59Z" fill="white"/>
<path d="M236.955 668.664C240.358 672.655 243.708 669.951 245.182 668.307C246.731 666.582 247.827 663.545 246.56 661.723C244.325 658.506 240.03 658.75 237.974 661.228C236.505 662.999 234.702 666.02 236.955 668.664Z" fill="white"/>
<path d="M206.046 629.489C202.741 632.212 203.552 635.828 205.192 637.773C207.315 640.292 210.978 638.869 212.077 637.944C214.999 635.474 215.662 631.921 213.987 629.52C212.571 627.501 209.175 626.91 206.046 629.489Z" fill="white"/>
<path d="M144.055 715.474C147.088 719.021 150.825 717.065 152.406 715.541C155.217 712.835 154.547 709.147 152.379 707.141C150.716 705.598 147.042 705.609 145.737 706.757C144.027 708.261 140.878 711.755 144.055 715.474Z" fill="white"/>
<path d="M276.336 694.785C276.647 685.706 283.523 680.835 292.313 682.736C302.839 685.013 311.023 696.602 309.602 707.219C308.542 715.161 302.957 720.803 295.094 721.881C288.654 722.764 284.488 719.814 280.639 712.021C278.207 707.096 276.184 699.241 276.336 694.785Z" fill="white"/>
<path d="M300.325 617.872C300.493 610.751 304.872 606.959 312.038 607.393C320.461 607.907 326.816 612.221 330.652 619.581C334.232 626.446 332.284 633.609 329.036 639.834C325.134 647.309 313.055 649.237 308.143 642.258C303.624 635.842 300.212 622.74 300.325 617.872Z" fill="white"/>
<path d="M379.339 695.397C377.597 689.677 375.489 684.077 375.291 678.15C375.067 671.617 378.377 668.759 384.996 667.987C395.065 666.812 404.114 673.281 406.134 683.099C407.989 692.135 401.536 703.583 393.088 706.238C386.731 708.237 382.239 704.905 379.339 695.397Z" fill="white"/>
<path d="M329.733 603.891C328.441 603.785 325.262 602.767 324.546 600.706C323.259 597.007 325.694 592.205 328.579 591.788C332.599 591.206 334.498 593.173 336.096 595.397C337.943 597.972 335.636 604.367 329.733 603.891Z" fill="white"/>
<path d="M347.088 621.198C343.541 622.434 340.262 620.365 339.6 617.219C338.759 613.23 340.786 610.444 344.209 609.082C347.277 607.861 350.636 608.946 352.145 612.655C353.474 615.925 351.077 619.807 347.088 621.198Z" fill="white"/>
<path d="M339.52 637.628C339.186 635.781 341.468 632.686 343.593 631.553C347.265 629.599 351.488 632.265 352.4 636.128C353.335 640.1 351.186 642.031 347.733 643.071C343.949 644.204 340.276 641.805 339.52 637.628Z" fill="white"/>
<path d="M326.587 702.158C322.744 703.644 320.57 702.075 319.185 699.77C317.301 696.626 319.055 691.77 322.295 691.32C324.806 690.972 328.043 691.524 329.282 693.46C330.312 695.066 331.06 700.423 326.587 702.158Z" fill="white"/>
<path d="M422.679 686.321C418.692 688.138 416.458 686.279 414.911 684.101C412.67 680.95 414.539 677.528 417.768 675.786C420.951 674.069 426.044 675.087 426.905 678.688C427.471 681.051 426.656 684.509 422.679 686.321Z" fill="white"/>
<path d="M312.787 683.049C308.444 684.469 306.018 682.313 305.136 680.02C303.831 676.617 306.522 674.014 308.437 672.889C311.236 671.247 315.316 673.337 316.231 675.271C317.231 677.385 317.165 681.62 312.787 683.049Z" fill="white"/>
<path d="M400.134 662.539C398.261 657.643 402.238 655.991 404.386 655.483C406.64 654.945 409.83 655.438 410.824 657.421C412.581 660.923 410.31 664.582 407.151 665.201C404.894 665.644 401.378 665.782 400.134 662.539Z" fill="white"/>
<path d="M419.732 708.436C415.762 710.037 412.974 707.598 412.054 705.223C410.855 702.152 413.86 699.614 415.199 699.094C418.762 697.707 422.199 698.823 423.504 701.443C424.602 703.656 423.493 706.919 419.732 708.436Z" fill="white"/>
<path d="M314.602 721.756C312.942 717.396 316.444 715.049 318.537 714.388C322.26 713.212 325.173 715.566 325.899 718.431C326.457 720.627 324.69 723.853 323.059 724.448C320.92 725.232 316.347 726.33 314.602 721.756Z" fill="white"/>
<path d="M429.665 616.699C433.779 624.797 442.072 626.306 449.235 620.869C457.815 614.36 460.34 600.397 454.57 591.371C450.253 584.62 442.811 581.864 435.226 584.21C429.016 586.133 426.486 590.567 426.287 599.256C426.164 604.75 427.646 612.724 429.665 616.699Z" fill="white"/>
<path d="M483.886 676.278C487.046 682.66 492.615 684.248 498.927 680.826C506.347 676.801 510.281 670.205 510.651 661.915C510.998 654.18 506.207 648.507 500.638 644.24C493.946 639.112 482.182 642.47 480.674 650.869C479.29 658.593 481.726 671.913 483.886 676.278Z" fill="white"/>
<path d="M522.772 572.623C523.607 578.542 524.064 584.509 526.38 589.963C528.939 595.978 533.146 597.171 539.471 595.077C549.096 591.884 554.567 582.198 552.25 572.448C550.116 563.472 539.433 555.822 530.655 556.982C524.047 557.859 521.384 562.779 522.772 572.623Z" fill="white"/>
<path d="M516.446 676.527C515.32 677.167 512.87 679.433 513.089 681.602C513.483 685.498 517.719 688.822 520.513 687.981C524.4 686.808 525.288 684.223 525.797 681.533C526.389 678.419 521.596 673.598 516.446 676.527Z" fill="white"/>
<path d="M524.871 653.502C521.132 653.882 519.033 657.142 519.759 660.273C520.683 664.245 523.697 665.915 527.375 665.703C530.672 665.511 533.258 663.108 533.06 659.111C532.884 655.585 529.07 653.079 524.871 653.502Z" fill="white"/>
<path d="M511.073 641.809C511.547 643.625 514.922 645.466 517.328 645.591C521.481 645.816 524.184 641.614 523.378 637.724C522.548 633.731 519.785 632.885 516.216 633.405C512.308 633.975 509.994 637.702 511.073 641.809Z" fill="white"/>
<path d="M472.101 588.782C467.987 589.061 466.682 591.399 466.4 594.072C466.02 597.718 469.658 601.379 472.785 600.42C475.207 599.674 477.91 597.805 478.215 595.527C478.472 593.638 476.888 588.463 472.101 588.782Z" fill="white"/>
<path d="M565.888 562.536C561.506 562.572 560.265 565.2 559.781 567.83C559.081 571.632 562.223 573.945 565.884 574.16C569.494 574.372 573.68 571.296 572.941 567.668C572.457 565.288 570.256 562.498 565.888 562.536Z" fill="white"/>
<path d="M467.658 611.935C463.123 612.483 461.837 615.461 462.006 617.913C462.259 621.55 465.797 622.768 468.006 622.98C471.237 623.288 474.053 619.672 474.066 617.53C474.08 615.192 472.236 611.379 467.658 611.935Z" fill="white"/>
<path d="M555.494 593.618C555.866 598.848 560.165 598.662 562.328 598.218C564.598 597.749 567.281 595.959 567.347 593.741C567.456 589.823 563.856 587.466 560.73 588.24C558.495 588.79 555.25 590.151 555.494 593.618Z" fill="white"/>
<path d="M553.878 543.735C549.604 543.959 548.108 547.352 548.272 549.892C548.485 553.182 552.28 554.211 553.714 554.118C557.528 553.867 560.175 551.406 560.249 548.477C560.312 546.012 557.927 543.519 553.878 543.735Z" fill="white"/>
<path d="M452.963 576.081C453.298 580.736 457.466 581.385 459.643 581.097C463.508 580.592 465.156 577.225 464.606 574.323C464.184 572.095 461.222 569.919 459.489 570.067C457.222 570.263 452.612 571.203 452.963 576.081Z" fill="white"/>
<path d="M599.306 625.921C598.679 616.857 605.016 611.304 613.956 612.287C624.659 613.463 633.995 624.145 633.679 634.852C633.442 642.863 628.471 649.052 620.759 650.934C614.446 652.478 609.998 649.974 605.365 642.622C602.44 637.972 599.616 630.37 599.306 625.921Z" fill="white"/>
<path d="M615.235 546.94C614.666 539.841 618.629 535.616 625.801 535.308C634.232 534.951 640.997 538.584 645.574 545.51C649.842 551.966 648.644 559.295 646.058 565.818C642.946 573.657 631.133 576.822 625.524 570.391C620.37 564.474 615.621 551.794 615.235 546.94Z" fill="white"/>
<path d="M701.822 615.89C699.498 610.382 696.826 605.029 696.015 599.156C695.119 592.681 698.115 589.496 704.621 588.044C714.515 585.837 724.184 591.338 727.204 600.892C729.984 609.688 724.746 621.746 716.617 625.256C710.498 627.904 705.687 625.05 701.822 615.89Z" fill="white"/>
<path d="M643.041 529.995C641.748 530.024 638.48 529.34 637.555 527.367C635.893 523.818 637.821 518.793 640.649 518.077C644.585 517.083 646.674 518.847 648.491 520.892C650.598 523.263 648.963 529.862 643.041 529.995Z" fill="white"/>
<path d="M662.091 545.418C658.688 547.019 655.213 545.298 654.229 542.236C652.985 538.356 654.714 535.373 657.974 533.665C660.904 532.134 664.354 532.867 666.237 536.4C667.897 539.516 665.912 543.623 662.091 545.418Z" fill="white"/>
<path d="M656.259 562.545C655.736 560.743 657.682 557.428 659.683 556.082C663.133 553.757 667.607 555.972 668.912 559.725C670.253 563.576 668.316 565.722 664.986 567.111C661.341 568.627 657.442 566.622 656.259 562.545Z" fill="white"/>
<path d="M650.051 628.064C646.381 629.942 644.056 628.606 642.442 626.456C640.246 623.523 641.487 618.514 644.662 617.73C647.123 617.123 650.398 617.337 651.831 619.136C653.021 620.629 654.322 625.878 650.051 628.064Z" fill="white"/>
<path d="M743.995 602.389C740.215 604.61 737.801 602.993 736.037 600.988C733.482 598.084 734.99 594.483 738.025 592.417C741.011 590.383 746.182 590.87 747.411 594.362C748.216 596.654 747.762 600.177 743.995 602.389Z" fill="white"/>
<path d="M634.35 610.483C630.177 612.343 627.544 610.449 626.433 608.26C624.778 605.012 627.192 602.145 628.977 600.829C631.588 598.905 635.864 600.562 636.975 602.392C638.185 604.389 638.563 608.611 634.35 610.483Z" fill="white"/>
<path d="M719.116 581.061C716.749 576.386 720.535 574.336 722.619 573.603C724.807 572.841 728.03 572.996 729.221 574.867C731.327 578.17 729.446 582.041 726.372 582.986C724.171 583.661 720.688 584.161 719.116 581.061Z" fill="white"/>
<path d="M743.342 624.692C739.561 626.695 736.536 624.553 735.376 622.29C733.867 619.357 736.592 616.522 737.871 615.868C741.274 614.121 744.805 614.873 746.373 617.348C747.695 619.432 746.927 622.795 743.342 624.692Z" fill="white"/>
<path d="M640.151 648.798C638.049 644.632 641.291 641.935 643.307 641.062C646.887 639.51 650.025 641.55 651.047 644.325C651.826 646.45 650.402 649.841 648.84 650.603C646.792 651.603 642.358 653.163 640.151 648.798Z" fill="white"/>
<path d="M709.195 534.202C717.148 538.586 724.855 535.171 727.722 526.644C731.158 516.434 725.399 503.465 715.558 499.247C708.193 496.092 700.49 498 695.539 504.209C691.483 509.289 691.881 514.38 696.601 521.678C699.586 526.291 705.292 532.049 709.195 534.202Z" fill="white"/>
<path d="M787.516 552.977C793.715 556.475 799.212 554.658 802.507 548.277C806.381 540.775 805.929 533.107 801.578 526.042C797.515 519.448 790.367 517.453 783.364 517.058C774.947 516.581 767.105 525.975 770.58 533.768C773.773 540.937 783.275 550.581 787.516 552.977Z" fill="white"/>
<path d="M761.42 445.377C765.436 449.805 769.168 454.483 774.149 457.688C779.645 461.226 783.794 459.845 787.849 454.554C794.014 446.501 793.095 435.412 785.698 428.652C778.893 422.429 765.757 422.112 759.15 428.009C754.179 432.451 754.739 438.017 761.42 445.377Z" fill="white"/>
<path d="M814.578 534.864C814.008 536.026 813.255 539.279 814.653 540.949C817.171 543.95 822.542 544.318 824.376 542.052C826.934 538.894 826.217 536.258 825.127 533.747C823.864 530.84 817.191 529.548 814.578 534.864Z" fill="white"/>
<path d="M808.606 511.087C805.727 513.503 805.826 517.381 808.188 519.559C811.18 522.322 814.611 522.008 817.532 519.768C820.155 517.755 820.943 514.314 818.531 511.117C816.404 508.3 811.843 508.373 808.606 511.087Z" fill="white"/>
<path d="M790.625 509.175C792.04 510.408 795.863 510.033 797.926 508.789C801.485 506.634 801.359 501.638 798.505 498.879C795.576 496.042 792.817 496.895 790.158 499.336C787.245 502.002 787.423 506.387 790.625 509.175Z" fill="white"/>
<path d="M728.601 487.248C725.353 489.788 725.588 492.458 726.861 494.829C728.591 498.057 733.659 499.036 735.703 496.486C737.292 494.506 738.473 491.442 737.448 489.384C736.593 487.679 732.381 484.288 728.601 487.248Z" fill="white"/>
<path d="M791.403 412.782C787.802 415.278 788.255 418.148 789.33 420.595C790.889 424.133 794.789 424.28 797.935 422.399C801.039 420.542 802.771 415.644 800.123 413.06C798.384 411.362 794.998 410.294 791.403 412.782Z" fill="white"/>
<path d="M737.937 508.891C734.495 511.897 735.105 515.083 736.62 517.015C738.874 519.881 742.487 518.899 744.432 517.83C747.276 516.268 747.573 511.693 746.378 509.913C745.077 507.974 741.409 505.858 737.937 508.891Z" fill="white"/>
<path d="M800.279 444.334C803.524 448.449 806.974 445.88 808.514 444.293C810.129 442.629 811.341 439.639 810.147 437.768C808.037 434.465 803.735 434.546 801.585 436.94C800.047 438.654 798.13 441.603 800.279 444.334Z" fill="white"/>
<path d="M770.907 403.988C767.502 406.58 768.169 410.224 769.733 412.233C771.758 414.835 775.477 413.554 776.608 412.67C779.623 410.317 780.426 406.791 778.841 404.329C777.509 402.253 774.136 401.533 770.907 403.988Z" fill="white"/>
<path d="M705.635 487.507C708.527 491.169 712.34 489.361 713.98 487.898C716.89 485.302 716.363 481.593 714.277 479.501C712.676 477.899 709.002 477.764 707.653 478.861C705.888 480.299 702.603 483.668 705.635 487.507Z" fill="white"/>
<path d="M844.586 455.66C840.609 447.491 844.406 439.965 853.061 437.528C863.425 434.607 876.084 441.011 879.8 451.059C882.578 458.573 880.286 466.176 873.841 470.812C868.567 474.609 863.503 473.957 856.454 468.873C852 465.662 846.539 459.669 844.586 455.66Z" fill="white"/>
<path d="M829.78 376.458C826.595 370.09 828.685 364.686 835.222 361.714C842.904 358.221 850.539 359.056 857.372 363.758C863.75 368.147 865.38 375.39 865.427 382.409C865.479 390.843 855.707 398.208 848.1 394.342C841.104 390.794 831.956 380.812 829.78 376.458Z" fill="white"/>
<path d="M935.876 407.937C931.659 403.698 927.178 399.736 924.225 394.596C920.973 388.928 922.557 384.852 928.046 381.069C936.392 375.312 947.415 376.786 953.795 384.517C959.663 391.632 959.322 404.772 953.1 411.075C948.42 415.82 942.889 414.983 935.876 407.937Z" fill="white"/>
<path d="M849.214 350.325C848.028 350.838 844.74 351.426 843.144 349.944C840.275 347.277 840.179 341.893 842.532 340.173C845.813 337.776 848.409 338.627 850.86 339.841C853.702 341.25 854.653 347.98 849.214 350.325Z" fill="white"/>
<path d="M872.652 357.484C870.095 360.242 866.233 359.949 864.174 357.48C861.563 354.352 862.05 350.935 864.436 348.132C866.577 345.615 870.052 344.999 873.118 347.568C875.825 349.835 875.523 354.388 872.652 357.484Z" fill="white"/>
<path d="M873.658 375.55C872.496 374.077 873.061 370.273 874.412 368.274C876.742 364.827 881.721 365.204 884.332 368.191C887.019 371.26 886.028 373.976 883.459 376.512C880.649 379.284 876.28 378.889 873.658 375.55Z" fill="white"/>
<path d="M892.435 438.626C889.732 441.743 887.08 441.376 884.78 439.984C881.642 438.093 880.918 432.982 883.57 431.066C885.623 429.579 888.742 428.551 890.743 429.68C892.406 430.619 895.578 435.001 892.435 438.626Z" fill="white"/>
<path d="M969.922 379.61C967.248 383.086 964.404 382.488 962.021 381.291C958.562 379.558 958.615 375.652 960.652 372.603C962.66 369.593 967.635 368.107 970.083 370.887C971.688 372.711 972.585 376.146 969.922 379.61Z" fill="white"/>
<path d="M871.297 428.213C868.122 431.499 864.976 430.73 863.123 429.117C860.371 426.726 861.536 423.163 862.698 421.272C864.399 418.51 868.982 418.442 870.699 419.726C872.573 421.123 874.498 424.894 871.297 428.213Z" fill="white"/>
<path d="M938.87 369.161C934.923 365.711 937.665 362.391 939.324 360.934C941.064 359.403 944.111 358.34 945.92 359.629C949.11 361.901 948.816 366.196 946.317 368.225C944.527 369.676 941.486 371.444 938.87 369.161Z" fill="white"/>
<path d="M977.671 400.532C974.911 403.806 971.307 402.956 969.381 401.294C966.887 399.14 968.351 395.491 969.289 394.402C971.792 391.506 975.351 390.884 977.727 392.588C979.735 394.027 980.284 397.432 977.671 400.532Z" fill="white"/>
<path d="M891.022 461.561C887.509 458.488 889.507 454.769 891.049 453.205C893.786 450.424 897.464 451.14 899.444 453.331C900.967 455.011 900.917 458.684 899.752 459.978C898.227 461.673 894.702 464.782 891.022 461.561Z" fill="white"/>
<path d="M914.804 312.092C922.389 317.088 930.338 314.282 933.863 306.007C938.085 296.099 933.359 282.719 923.876 277.744C916.781 274.024 908.951 275.322 903.531 281.124C899.091 285.87 899.09 290.978 903.224 298.623C905.838 303.455 911.08 309.642 914.804 312.092Z" fill="white"/>
<path d="M991.416 336.935C997.321 340.91 1002.95 339.527 1006.73 333.426C1011.18 326.25 1011.32 318.57 1007.54 311.184C1004.01 304.294 997.034 301.745 990.084 300.804C981.73 299.67 973.18 308.419 976.032 316.464C978.655 323.862 987.378 334.216 991.416 336.935Z" fill="white"/>
<path d="M973.809 227.628C977.467 232.354 980.822 237.309 985.539 240.898C990.74 244.853 994.985 243.801 999.439 238.842C1006.22 231.295 1006.17 220.17 999.319 212.851C993.02 206.116 979.95 204.771 972.905 210.135C967.6 214.174 967.725 219.768 973.809 227.628Z" fill="white"/>
<path d="M1019.81 321.001C1019.15 322.114 1018.14 325.298 1019.41 327.072C1021.69 330.261 1027.01 331.048 1029.02 328.93C1031.81 325.984 1031.31 323.297 1030.41 320.71C1029.38 317.713 1022.83 315.903 1019.81 321.001Z" fill="white"/>
<path d="M1015.72 296.826C1012.66 299.011 1012.45 302.884 1014.64 305.242C1017.4 308.233 1020.85 308.187 1023.94 306.178C1026.71 304.378 1027.76 301.009 1025.61 297.633C1023.71 294.658 1019.15 294.374 1015.72 296.826Z" fill="white"/>
<path d="M997.939 293.516C999.252 294.855 1003.09 294.781 1005.25 293.697C1008.97 291.83 1009.23 286.839 1006.6 283.864C1003.9 280.807 1001.08 281.446 998.243 283.666C995.132 286.098 994.968 290.482 997.939 293.516Z" fill="white"/>
<path d="M937.82 266.799C934.382 269.079 934.407 271.76 935.49 274.221C936.967 277.576 941.939 278.951 944.18 276.566C945.913 274.718 947.334 271.753 946.471 269.622C945.753 267.856 941.817 264.147 937.82 266.799Z" fill="white"/>
<path d="M1006.25 197.478C1002.46 199.684 1002.69 202.581 1003.57 205.103C1004.85 208.756 1008.72 209.207 1012.01 207.574C1015.25 205.967 1017.36 201.22 1014.92 198.436C1013.32 196.609 1010.03 195.279 1006.25 197.478Z" fill="white"/>
<path d="M945.434 289.109C941.769 291.835 942.127 295.057 943.49 297.102C945.508 300.138 949.189 299.442 951.209 298.528C954.168 297.195 954.82 292.653 953.772 290.787C952.624 288.752 949.133 286.355 945.434 289.109Z" fill="white"/>
<path d="M1012.63 229.628C1015.54 233.984 1019.19 231.693 1020.85 230.233C1022.58 228.701 1024.03 225.811 1022.98 223.853C1021.14 220.397 1016.84 220.139 1014.51 222.357C1012.85 223.948 1010.7 226.739 1012.63 229.628Z" fill="white"/>
<path d="M986.504 187.109C982.905 189.427 983.288 193.113 984.689 195.235C986.506 197.987 990.311 197.002 991.507 196.207C994.699 194.097 995.773 190.647 994.387 188.069C993.219 185.894 989.915 184.914 986.504 187.109Z" fill="white"/>
<path d="M914.905 265.263C917.5 269.139 921.44 267.635 923.191 266.307C926.296 263.948 926.058 260.207 924.142 257.958C922.671 256.234 919.021 255.814 917.592 256.803C915.718 258.096 912.181 261.199 914.905 265.263Z" fill="white"/>
<path d="M1056.09 254.202C1055.85 245.122 1062.42 239.843 1071.31 241.209C1081.95 242.844 1090.82 253.916 1090.05 264.6C1089.46 272.595 1084.23 278.562 1076.45 280.115C1070.07 281.383 1065.74 278.692 1061.43 271.147C1058.7 266.377 1056.21 258.661 1056.09 254.202Z" fill="white"/>
<path d="M1075.38 175.978C1075.12 168.861 1079.26 164.809 1086.44 164.81C1094.88 164.813 1101.48 168.738 1105.76 175.849C1109.75 182.485 1108.24 189.755 1105.37 196.16C1101.93 203.861 1089.99 206.515 1084.66 199.846C1079.76 193.718 1075.56 180.843 1075.38 175.978Z" fill="white"/>
<path d="M1158.94 248.581C1156.85 242.977 1154.41 237.517 1153.86 231.611C1153.24 225.106 1156.37 222.053 1162.93 220.882C1172.91 219.098 1182.33 225.009 1184.94 234.687C1187.34 243.593 1181.59 255.411 1173.32 258.574C1167.09 260.953 1162.41 257.897 1158.94 248.581Z" fill="white"/>
<path d="M1103.89 160.243C1102.6 160.217 1099.37 159.393 1098.53 157.381C1097.02 153.767 1099.16 148.825 1102.01 148.235C1105.99 147.409 1108 149.258 1109.73 151.383C1111.73 153.837 1109.81 160.361 1103.89 160.243Z" fill="white"/>
<path d="M1122.27 176.467C1118.8 177.92 1115.4 176.051 1114.55 172.951C1113.47 169.023 1115.32 166.115 1118.66 164.551C1121.65 163.147 1125.06 164.024 1126.79 167.637C1128.32 170.817 1126.16 174.839 1122.27 176.467Z" fill="white"/>
<path d="M1115.7 193.329C1115.26 191.503 1117.34 188.277 1119.4 187.018C1122.95 184.842 1127.33 187.25 1128.47 191.054C1129.64 194.958 1127.61 197.019 1124.23 198.262C1120.52 199.622 1116.71 197.451 1115.7 193.329Z" fill="white"/>
<path d="M1106.69 258.521C1102.94 260.237 1100.68 258.802 1099.16 256.587C1097.09 253.565 1098.55 248.61 1101.75 247.966C1104.24 247.463 1107.5 247.82 1108.86 249.676C1109.98 251.22 1111.05 256.521 1106.69 258.521Z" fill="white"/>
<path d="M1201.65 236.903C1197.78 238.959 1195.44 237.239 1193.76 235.158C1191.33 232.147 1192.99 228.616 1196.11 226.682C1199.19 224.776 1204.33 225.484 1205.41 229.027C1206.12 231.35 1205.51 234.851 1201.65 236.903Z" fill="white"/>
<path d="M1091.76 240.286C1087.51 241.961 1084.96 239.956 1083.94 237.72C1082.43 234.404 1084.97 231.645 1086.81 230.405C1089.5 228.596 1093.7 230.433 1094.73 232.312C1095.85 234.359 1096.05 238.589 1091.76 240.286Z" fill="white"/>
<path d="M1177.71 214.526C1175.54 209.753 1179.41 207.864 1181.53 207.224C1183.75 206.554 1186.96 206.849 1188.07 208.773C1190.04 212.162 1187.99 215.95 1184.88 216.759C1182.65 217.338 1179.15 217.69 1177.71 214.526Z" fill="white"/>
<path d="M1200.05 259.153C1196.18 260.994 1193.25 258.725 1192.19 256.412C1190.81 253.418 1193.65 250.703 1194.96 250.101C1198.43 248.506 1201.93 249.41 1203.38 251.947C1204.62 254.088 1203.71 257.414 1200.05 259.153Z" fill="white"/>
<path d="M1095.91 278.81C1093.99 274.559 1097.35 272 1099.4 271.215C1103.04 269.819 1106.09 271.993 1106.99 274.809C1107.68 276.967 1106.11 280.291 1104.52 280.986C1102.43 281.897 1097.93 283.266 1095.91 278.81Z" fill="white"/>
<path d="M1177.16 154.615C1180.92 162.887 1189.14 164.755 1196.53 159.633C1205.39 153.505 1208.52 139.663 1203.15 130.398C1199.13 123.465 1191.81 120.387 1184.13 122.402C1177.85 124.05 1175.12 128.37 1174.55 137.042C1174.18 142.524 1175.32 150.555 1177.16 154.615Z" fill="white"/>
<path d="M1228.74 216.5C1231.62 223.013 1237.11 224.843 1243.57 221.699C1251.16 218.001 1255.38 211.585 1256.1 203.317C1256.79 195.602 1252.25 189.73 1246.87 185.223C1240.41 179.81 1228.51 182.65 1226.64 190.976C1224.92 198.632 1226.77 212.047 1228.74 216.5Z" fill="white"/>
<path d="M1272.1 114.637C1272.67 120.588 1272.87 126.57 1274.95 132.121C1277.25 138.242 1281.39 139.618 1287.81 137.798C1297.56 135.029 1303.45 125.59 1301.56 115.748C1299.82 106.69 1289.47 98.5791 1280.65 99.3566C1274.02 99.9441 1271.14 104.741 1272.1 114.637Z" fill="white"/>
<path d="M1261.26 218.167C1260.11 218.758 1257.56 220.914 1257.68 223.089C1257.91 227.002 1261.99 230.507 1264.82 229.788C1268.76 228.786 1269.76 226.244 1270.38 223.579C1271.11 220.492 1266.53 215.466 1261.26 218.167Z" fill="white"/>
<path d="M1270.68 195.535C1266.92 195.748 1264.69 198.916 1265.28 202.074C1266.02 206.081 1268.96 207.88 1272.65 207.828C1275.95 207.785 1278.64 205.495 1278.61 201.492C1278.59 197.963 1274.89 195.293 1270.68 195.535Z" fill="white"/>
<path d="M1257.4 183.248C1257.8 185.083 1261.09 187.069 1263.48 187.301C1267.63 187.704 1270.51 183.624 1269.87 179.705C1269.22 175.681 1266.49 174.715 1262.91 175.077C1258.98 175.477 1256.5 179.099 1257.4 183.248Z" fill="white"/>
<path d="M1220.77 128.578C1216.65 128.671 1215.25 130.955 1214.85 133.615C1214.31 137.238 1217.78 141.053 1220.95 140.229C1223.4 139.59 1226.18 137.844 1226.59 135.58C1226.93 133.704 1225.57 128.466 1220.77 128.578Z" fill="white"/>
<path d="M1315.61 106.437C1311.23 106.283 1309.88 108.857 1309.28 111.462C1308.42 115.229 1311.46 117.68 1315.1 118.053C1318.7 118.418 1323.02 115.53 1322.44 111.876C1322.06 109.474 1319.98 106.592 1315.61 106.437Z" fill="white"/>
<path d="M1215.33 151.51C1210.77 151.863 1209.36 154.78 1209.42 157.237C1209.51 160.882 1213 162.253 1215.19 162.56C1218.41 163.011 1221.38 159.518 1221.49 157.377C1221.6 155.043 1219.92 151.157 1215.33 151.51Z" fill="white"/>
<path d="M1303.88 137.041C1304.02 142.281 1308.32 142.283 1310.5 141.93C1312.79 141.565 1315.55 139.889 1315.71 137.675C1316 133.767 1312.5 131.258 1309.34 131.895C1307.09 132.349 1303.78 133.564 1303.88 137.041Z" fill="white"/>
<path d="M1304.43 87.1328C1300.15 87.172 1298.51 90.4948 1298.57 93.0392C1298.63 96.3362 1302.38 97.5323 1303.82 97.5002C1307.64 97.4168 1310.39 95.0718 1310.59 92.149C1310.76 89.6871 1308.49 87.0949 1304.43 87.1328Z" fill="white"/>
<path d="M1202.21 115.051C1202.34 119.719 1206.47 120.546 1208.66 120.355C1212.55 120.016 1214.34 116.727 1213.91 113.8C1213.59 111.559 1210.73 109.256 1208.99 109.327C1206.72 109.426 1202.07 110.16 1202.21 115.051Z" fill="white"/>
</svg>
