<svg xmlns="http://www.w3.org/2000/svg" xmlns:xlink="http://www.w3.org/1999/xlink" width="500" zoomAndPan="magnify" viewBox="0 0 375 187.499995" height="250" preserveAspectRatio="xMidYMid meet" version="1.0"><defs><g/><clipPath id="51e0e04b18"><path d="M 244.074219 27 L 294 27 L 294 75 L 244.074219 75 Z M 244.074219 27 " clip-rule="nonzero"/></clipPath><clipPath id="d72fdb10ce"><path d="M 281 53 L 321 53 L 321 138 L 281 138 Z M 281 53 " clip-rule="nonzero"/></clipPath><clipPath id="b58372bbc8"><path d="M 257.535156 77.21875 L 315.988281 48.617188 L 348.863281 115.804688 L 290.410156 144.410156 Z M 257.535156 77.21875 " clip-rule="nonzero"/></clipPath><clipPath id="93ee53a30f"><path d="M 257.535156 77.21875 L 315.988281 48.617188 L 348.863281 115.804688 L 290.410156 144.410156 Z M 257.535156 77.21875 " clip-rule="nonzero"/></clipPath><clipPath id="83cb7303ca"><path d="M 280 52 L 324 52 L 324 138 L 280 138 Z M 280 52 " clip-rule="nonzero"/></clipPath><clipPath id="5b139ce58c"><path d="M 257.535156 77.21875 L 315.988281 48.617188 L 348.863281 115.804688 L 290.410156 144.410156 Z M 257.535156 77.21875 " clip-rule="nonzero"/></clipPath><clipPath id="f4bcddd694"><path d="M 257.535156 77.21875 L 315.988281 48.617188 L 348.863281 115.804688 L 290.410156 144.410156 Z M 257.535156 77.21875 " clip-rule="nonzero"/></clipPath><clipPath id="31530d58c5"><path d="M 316 102 L 323 102 L 323 118 L 316 118 Z M 316 102 " clip-rule="nonzero"/></clipPath><clipPath id="177af5e497"><path d="M 257.535156 77.21875 L 315.988281 48.617188 L 348.863281 115.804688 L 290.410156 144.410156 Z M 257.535156 77.21875 " clip-rule="nonzero"/></clipPath><clipPath id="d421770bdd"><path d="M 257.535156 77.21875 L 315.988281 48.617188 L 348.863281 115.804688 L 290.410156 144.410156 Z M 257.535156 77.21875 " clip-rule="nonzero"/></clipPath><clipPath id="a9d7471510"><path d="M 306 90 L 316 90 L 316 99 L 306 99 Z M 306 90 " clip-rule="nonzero"/></clipPath><clipPath id="08a1430f0e"><path d="M 257.535156 77.21875 L 315.988281 48.617188 L 348.863281 115.804688 L 290.410156 144.410156 Z M 257.535156 77.21875 " clip-rule="nonzero"/></clipPath><clipPath id="1ff668df0e"><path d="M 257.535156 77.21875 L 315.988281 48.617188 L 348.863281 115.804688 L 290.410156 144.410156 Z M 257.535156 77.21875 " clip-rule="nonzero"/></clipPath><clipPath id="73218ac91f"><path d="M 321 119 L 323 119 L 323 121 L 321 121 Z M 321 119 " clip-rule="nonzero"/></clipPath><clipPath id="940cb2f3ca"><path d="M 257.535156 77.21875 L 315.988281 48.617188 L 348.863281 115.804688 L 290.410156 144.410156 Z M 257.535156 77.21875 " clip-rule="nonzero"/></clipPath><clipPath id="dec7823a7b"><path d="M 257.535156 77.21875 L 315.988281 48.617188 L 348.863281 115.804688 L 290.410156 144.410156 Z M 257.535156 77.21875 " clip-rule="nonzero"/></clipPath><clipPath id="27401bbd70"><path d="M 300 65 L 306 65 L 306 71 L 300 71 Z M 300 65 " clip-rule="nonzero"/></clipPath><clipPath id="e04b7121df"><path d="M 257.535156 77.21875 L 315.988281 48.617188 L 348.863281 115.804688 L 290.410156 144.410156 Z M 257.535156 77.21875 " clip-rule="nonzero"/></clipPath><clipPath id="3290668435"><path d="M 257.535156 77.21875 L 315.988281 48.617188 L 348.863281 115.804688 L 290.410156 144.410156 Z M 257.535156 77.21875 " clip-rule="nonzero"/></clipPath><clipPath id="e210e008f9"><path d="M 299 75 L 306 75 L 306 86 L 299 86 Z M 299 75 " clip-rule="nonzero"/></clipPath><clipPath id="abbb621037"><path d="M 257.535156 77.21875 L 315.988281 48.617188 L 348.863281 115.804688 L 290.410156 144.410156 Z M 257.535156 77.21875 " clip-rule="nonzero"/></clipPath><clipPath id="8acfb11787"><path d="M 257.535156 77.21875 L 315.988281 48.617188 L 348.863281 115.804688 L 290.410156 144.410156 Z M 257.535156 77.21875 " clip-rule="nonzero"/></clipPath><clipPath id="64a2f6d7a3"><path d="M 307 122 L 321 122 L 321 135 L 307 135 Z M 307 122 " clip-rule="nonzero"/></clipPath><clipPath id="54dc680f9d"><path d="M 257.535156 77.21875 L 315.988281 48.617188 L 348.863281 115.804688 L 290.410156 144.410156 Z M 257.535156 77.21875 " clip-rule="nonzero"/></clipPath><clipPath id="8038f099fe"><path d="M 257.535156 77.21875 L 315.988281 48.617188 L 348.863281 115.804688 L 290.410156 144.410156 Z M 257.535156 77.21875 " clip-rule="nonzero"/></clipPath></defs><g fill="#ffd852" fill-opacity="1"><g transform="translate(70.733106, 75.169981)"><g><path d="M 20.992188 0 L 20.992188 -35.214844 L 31.949219 -35.214844 L 31.949219 -43.953125 L 1.230469 -43.953125 L 1.230469 -35.214844 L 12.1875 -35.214844 L 12.1875 0 Z M 20.992188 0 "/></g></g></g><g fill="#ffd852" fill-opacity="1"><g transform="translate(100.706838, 75.169981)"><g><path d="M 13.726562 0 L 13.726562 -44.015625 L 4.925781 -44.015625 L 4.925781 0 Z M 13.726562 0 "/></g></g></g><g fill="#ffd852" fill-opacity="1"><g transform="translate(115.724077, 75.169981)"><g><path d="M 0.984375 0 L 10.957031 0 L 12.679688 -4.738281 L 27.273438 -4.738281 L 29.058594 0 L 38.96875 0 L 20.4375 -45.617188 L 19.515625 -45.617188 Z M 15.882812 -12.988281 L 20.007812 -24.441406 L 24.007812 -12.988281 Z M 15.882812 -12.988281 "/></g></g></g><g fill="#ffd852" fill-opacity="1"><g transform="translate(152.222037, 75.169981)"><g><path d="M 36.691406 -2.707031 L 36.691406 -22.039062 L 27.765625 -22.039062 L 27.765625 -8.804688 C 26.964844 -8.679688 26.101562 -8.558594 25.300781 -8.558594 C 8.3125 -8.558594 7.511719 -34.84375 25.300781 -35.460938 C 29.980469 -35.582031 32.8125 -34.597656 34.535156 -33.859375 L 35.582031 -42.785156 C 34.78125 -43.03125 30.535156 -44.570312 25.300781 -44.386719 C -5.234375 -43.277344 -3.753906 0.246094 25.300781 0.246094 C 29.488281 0.246094 33.304688 -0.800781 36.691406 -2.707031 Z M 36.691406 -2.707031 "/></g></g></g><g fill="#ffd852" fill-opacity="1"><g transform="translate(189.950995, 75.169981)"><g><path d="M 26.101562 0.617188 C 56.390625 0.617188 56.390625 -44.753906 26.101562 -44.753906 C -4.1875 -44.753906 -4.1875 0.617188 26.101562 0.617188 Z M 26.101562 -8.496094 C 8.496094 -8.496094 8.496094 -35.707031 26.101562 -35.707031 C 43.707031 -35.707031 43.707031 -8.496094 26.101562 -8.496094 Z M 26.101562 -8.496094 "/></g></g></g><g clip-path="url(#51e0e04b18)"><path fill="#ffd852" d="M 293.378906 53.324219 C 294.066406 53.15625 293.773438 51.84375 293.089844 52.011719 C 291.886719 52.300781 290.710938 52.570312 289.535156 52.855469 C 289.683594 51.011719 289.769531 49.136719 289.90625 47.214844 C 290.359375 40.996094 290.320312 34.777344 289.789062 28.5625 C 290.136719 28.03125 289.644531 27.109375 289.109375 27.542969 C 287.480469 28.867188 286.066406 31.246094 284.71875 32.972656 C 283.976562 33.914062 283.332031 34.914062 282.785156 35.972656 C 282.363281 36.777344 281.859375 37.566406 281.425781 38.375 C 281.332031 38.414062 281.253906 38.472656 281.199219 38.558594 C 280.730469 39.210938 278.441406 38.757812 277.796875 38.753906 C 276.410156 38.753906 275.023438 38.753906 273.640625 38.691406 C 271.398438 38.589844 269.230469 38.042969 267.011719 37.792969 C 262.53125 37.296875 258.222656 38.632812 253.796875 38.945312 C 253.550781 38.308594 253.425781 37.511719 253.21875 36.90625 C 252.769531 35.535156 252.316406 34.148438 251.816406 32.800781 C 251.113281 30.902344 250.234375 28.878906 249.1875 27.253906 C 248.902344 26.824219 248.496094 27.050781 248.34375 27.445312 C 248.207031 27.46875 248.082031 27.570312 248.003906 27.789062 C 246.449219 32.3125 246.347656 38.28125 246.320312 43.140625 C 246.300781 46.726562 246.894531 50.371094 247.8125 53.839844 C 246.894531 53.496094 245.976562 53.179688 245.050781 52.921875 C 244.367188 52.730469 244.074219 54.035156 244.761719 54.234375 C 245.9375 54.558594 247.101562 54.984375 248.261719 55.433594 C 248.527344 56.324219 248.804688 57.207031 249.101562 58.0625 C 249.402344 58.917969 249.742188 59.730469 250.101562 60.519531 C 248.691406 60.878906 247.289062 61.273438 245.851562 61.339844 C 245.359375 61.363281 245.15625 62.054688 245.464844 62.5 L 245.53125 62.59375 C 245.742188 62.890625 246.007812 62.851562 246.199219 62.664062 C 247.671875 62.550781 249.089844 62.171875 250.539062 61.796875 C 250.589844 61.785156 250.648438 61.773438 250.699219 61.761719 C 251.128906 62.589844 251.597656 63.394531 252.113281 64.171875 C 252.023438 64.230469 251.929688 64.285156 251.835938 64.347656 C 250.546875 65.21875 249.039062 66.054688 247.902344 67.207031 C 247.355469 67.761719 248.132812 68.71875 248.671875 68.171875 C 249.308594 67.523438 250.109375 67.195312 250.816406 66.691406 C 251.5 66.203125 252.160156 65.691406 252.855469 65.238281 C 256.746094 70.515625 262.246094 73.535156 268.261719 74.265625 C 275.054688 75.089844 282.503906 71.722656 286.445312 64.679688 L 286.488281 64.710938 C 287.550781 65.398438 288.699219 65.894531 289.757812 66.566406 C 290.382812 66.964844 290.9375 65.792969 290.308594 65.394531 C 289.246094 64.714844 288.109375 64.222656 287.039062 63.535156 L 287.027344 63.527344 C 287.378906 62.8125 287.683594 62.078125 287.949219 61.328125 C 288.089844 60.921875 288.203125 60.515625 288.320312 60.113281 C 289.859375 60.589844 291.394531 61.121094 292.957031 61.3125 C 293.65625 61.398438 293.652344 60.039062 292.957031 59.949219 C 291.503906 59.769531 290.078125 59.296875 288.652344 58.851562 C 289.003906 57.339844 289.253906 55.808594 289.40625 54.265625 C 290.71875 53.945312 292.042969 53.648438 293.378906 53.324219 Z M 293.378906 53.324219 " fill-opacity="1" fill-rule="nonzero"/></g><path fill="#562f2f" d="M 272.425781 61.496094 C 272.441406 62.773438 271.277344 64.222656 270.203125 63.0625 C 269.863281 62.699219 269.710938 62.03125 269.601562 61.511719 C 269.425781 60.6875 269.417969 59.808594 269.425781 58.957031 C 270.074219 58.671875 270.433594 57.71875 270.785156 57.050781 C 270.871094 56.867188 270.835938 56.707031 270.683594 56.570312 C 269.925781 55.867188 268.644531 55.933594 267.765625 56.226562 C 267.527344 56.300781 267.328125 56.433594 267.164062 56.621094 C 266.960938 56.652344 266.792969 56.980469 266.984375 57.214844 L 267.042969 57.289062 C 267.085938 57.375 267.144531 57.453125 267.21875 57.519531 C 267.675781 58.152344 268.175781 58.925781 268.859375 59.027344 C 268.867188 60.027344 268.71875 61.1875 268.3125 62.058594 C 267.644531 63.492188 266.054688 63.5 265.707031 61.753906 C 265.617188 61.316406 265.078125 61.503906 265.164062 61.9375 C 265.464844 63.425781 266.667969 64.292969 267.835938 63.601562 C 268.421875 63.253906 268.800781 62.570312 269.046875 61.785156 C 269.234375 62.75 269.605469 63.605469 270.328125 63.976562 C 271.75 64.714844 273.011719 63.234375 272.988281 61.5 C 272.980469 61.046875 272.421875 61.046875 272.425781 61.496094 Z M 272.425781 61.496094 " fill-opacity="1" fill-rule="nonzero"/><path fill="#562f2f" d="M 280.332031 51.457031 C 280.167969 52.792969 279.410156 53.835938 278.277344 53.835938 C 277.300781 53.835938 276.558594 52.996094 276.015625 52.070312 C 275.804688 51.710938 275.320312 52.058594 275.535156 52.421875 C 276.253906 53.652344 277.253906 54.667969 278.542969 54.511719 C 279.800781 54.363281 280.683594 53.164062 280.871094 51.644531 C 280.925781 51.203125 280.382812 51.011719 280.332031 51.457031 Z M 280.332031 51.457031 " fill-opacity="1" fill-rule="nonzero"/><path fill="#562f2f" d="M 262 51.808594 C 261.699219 53.105469 260.839844 54.015625 259.714844 53.832031 C 258.746094 53.667969 258.101562 52.714844 257.660156 51.714844 C 257.488281 51.324219 256.96875 51.589844 257.144531 51.984375 C 257.726562 53.320312 258.609375 54.488281 259.90625 54.546875 C 261.171875 54.605469 262.171875 53.558594 262.515625 52.082031 C 262.617188 51.652344 262.101562 51.378906 262 51.808594 Z M 262 51.808594 " fill-opacity="1" fill-rule="nonzero"/><path fill="#562f2f" d="M 287.433594 34.875 C 287.492188 34.625 287.269531 34.300781 287.023438 34.460938 C 286.144531 35.023438 285.097656 36.566406 284.84375 37.765625 C 284.515625 39.320312 286.21875 39.359375 286.980469 39.738281 C 287.128906 39.808594 287.28125 39.652344 287.328125 39.488281 C 287.746094 38.03125 287.515625 36.386719 287.433594 34.875 Z M 286.867188 38.953125 C 286.808594 38.933594 286.742188 38.914062 286.683594 38.894531 C 286.683594 37.964844 286.902344 37.054688 286.851562 36.113281 C 286.847656 36.042969 286.828125 35.976562 286.785156 35.917969 C 286.832031 35.835938 286.878906 35.753906 286.929688 35.675781 C 287.007812 36.773438 287.089844 37.90625 286.867188 38.953125 Z M 286.867188 38.953125 " fill-opacity="1" fill-rule="nonzero"/><path fill="#562f2f" d="M 249.582031 34.757812 C 249.550781 34.664062 249.484375 34.609375 249.382812 34.59375 C 249.285156 34.578125 249.207031 34.609375 249.144531 34.6875 C 248.109375 35.898438 248.039062 38.550781 248.113281 40.214844 C 248.125 40.4375 248.152344 40.699219 248.308594 40.816406 C 248.464844 40.9375 248.625 40.867188 248.777344 40.816406 L 250.179688 40.320312 C 250.484375 40.210938 250.984375 40.1875 251.203125 39.886719 C 251.515625 39.464844 251.328125 38.671875 251.195312 38.214844 C 250.855469 37.007812 250.21875 35.75 249.582031 34.757812 Z M 249.039062 37.730469 C 249.003906 37.777344 248.976562 37.824219 248.964844 37.878906 C 248.839844 38.394531 248.753906 38.914062 248.703125 39.441406 C 248.507812 39.238281 248.570312 38.929688 248.691406 38.5 C 248.808594 38.109375 248.945312 37.730469 249.097656 37.355469 C 249.078125 37.484375 249.0625 37.609375 249.039062 37.734375 Z M 250.597656 39.589844 C 250.6875 38.933594 250.535156 38.226562 250.304688 37.566406 C 250.496094 38.003906 250.703125 38.480469 250.777344 38.972656 C 250.832031 39.332031 250.753906 39.503906 250.597656 39.589844 Z M 250.597656 39.589844 " fill-opacity="1" fill-rule="nonzero"/><g fill="#ffd852" fill-opacity="1"><g transform="translate(71.764788, 137.229133)"><g><path d="M 3.488281 -3.414062 C 10.683594 0.296875 17.285156 0.667969 20.253906 0.445312 C 30.195312 -0.0742188 36.277344 -6.824219 36.277344 -15.652344 C 36.277344 -24.113281 29.15625 -28.859375 20.921875 -31.902344 C 17.878906 -32.941406 15.28125 -34.273438 14.984375 -37.242188 C 14.761719 -40.210938 16.46875 -42.957031 20.253906 -43.179688 C 21.886719 -43.253906 25.222656 -43.328125 31.085938 -40.953125 L 32.421875 -51.191406 C 25.59375 -53.5625 21.960938 -53.5625 19.214844 -53.414062 C 10.386719 -52.972656 4.230469 -46.144531 4.230469 -37.242188 C 4.230469 -28.339844 11.648438 -24.113281 19.957031 -21.070312 C 22.925781 -20.03125 25.222656 -18.695312 25.445312 -15.652344 C 25.742188 -12.761719 23.074219 -10.535156 19.957031 -10.3125 C 17.507812 -10.089844 10.90625 -10.238281 4.824219 -14.539062 Z M 3.488281 -3.414062 "/></g></g></g><g fill="#ffd852" fill-opacity="1"><g transform="translate(106.555676, 137.229133)"><g><path d="M 31.457031 0.742188 C 67.957031 0.742188 67.957031 -53.933594 31.457031 -53.933594 C -5.042969 -53.933594 -5.042969 0.742188 31.457031 0.742188 Z M 31.457031 -10.238281 C 10.238281 -10.238281 10.238281 -43.03125 31.457031 -43.03125 C 52.675781 -43.03125 52.675781 -10.238281 31.457031 -10.238281 Z M 31.457031 -10.238281 "/></g></g></g><g fill="#ffd852" fill-opacity="1"><g transform="translate(164.936543, 137.229133)"><g><path d="M 43.992188 -18.472656 L 43.992188 -53.046875 L 33.460938 -53.046875 L 33.460938 -18.546875 C 33.460938 -7.417969 16.246094 -7.417969 16.246094 -18.546875 L 16.246094 -53.046875 L 5.636719 -53.046875 L 5.636719 -18.472656 C 5.636719 6.75 43.992188 6.75 43.992188 -18.472656 Z M 43.992188 -18.472656 "/></g></g></g><g fill="#ffd852" fill-opacity="1"><g transform="translate(210.261316, 137.229133)"><g><path d="M 37.167969 0 L 37.167969 -10.683594 L 17.433594 -10.683594 L 36.574219 -53.046875 L 4.453125 -53.046875 L 4.453125 -42.734375 L 20.773438 -42.734375 C 14.394531 -28.5625 8.011719 -14.246094 1.632812 0 Z M 37.167969 0 "/></g></g></g><g fill="#ffd852" fill-opacity="1"><g transform="translate(245.497292, 137.229133)"><g><path d="M 1.1875 0 L 13.207031 0 L 15.28125 -5.710938 L 32.867188 -5.710938 L 35.015625 0 L 46.960938 0 L 24.628906 -54.972656 L 23.519531 -54.972656 Z M 19.140625 -15.652344 L 24.113281 -29.453125 L 28.933594 -15.652344 Z M 19.140625 -15.652344 "/></g></g></g><g clip-path="url(#d72fdb10ce)"><g clip-path="url(#b58372bbc8)"><g clip-path="url(#93ee53a30f)"><path fill="#ffd852" d="M 286.753906 136.9375 L 281.195312 125.574219 C 287.324219 126.925781 293.765625 127.328125 298.882812 126.6875 C 305.046875 125.910156 309.195312 123.746094 311.210938 120.253906 C 315.109375 113.5 310.457031 107.046875 302.90625 97.976562 C 301.066406 95.757812 299.324219 93.664062 297.824219 91.546875 C 295.277344 87.945312 293.429688 83.816406 292.484375 79.609375 C 291.410156 74.835938 291.59375 70.234375 293.003906 66.296875 C 294.050781 63.386719 295.742188 60.878906 298.027344 58.847656 C 298.488281 58.4375 298.972656 58.046875 299.476562 57.683594 C 301.582031 56.152344 304.070312 54.996094 306.902344 54.234375 C 308.734375 53.738281 310.757812 53.367188 313.09375 53.097656 C 315.925781 52.769531 318.488281 54.804688 318.820312 57.640625 C 319.148438 60.472656 317.121094 63.039062 314.289062 63.367188 C 312.523438 63.570312 311.027344 63.835938 309.722656 64.179688 C 308.746094 64.339844 307.863281 64.527344 307.050781 64.746094 C 305.390625 65.195312 304.015625 65.824219 302.921875 66.640625 C 301.625 67.605469 300.71875 68.832031 300.175781 70.339844 C 298.664062 74.554688 300.113281 81.042969 303.703125 86.113281 C 304.96875 87.902344 306.582031 89.84375 308.292969 91.902344 C 311.859375 96.1875 315.90625 101.050781 318.285156 106.417969 C 321.34375 113.3125 321.117188 119.890625 317.609375 125.964844 C 315.589844 129.460938 312.609375 132.242188 308.75 134.230469 C 308.59375 134.3125 308.433594 134.390625 308.273438 134.472656 C 306.4375 135.371094 304.40625 136.09375 302.199219 136.640625 C 301.539062 136.753906 300.867188 136.855469 300.179688 136.941406 C 295.433594 137.539062 290.730469 137.367188 286.753906 136.9375 " fill-opacity="1" fill-rule="nonzero"/></g></g></g><g clip-path="url(#83cb7303ca)"><g clip-path="url(#5b139ce58c)"><g clip-path="url(#f4bcddd694)"><path fill="#ffd852" d="M 307.574219 134.828125 C 307.621094 133.933594 307.570312 133.039062 307.417969 132.148438 C 307.113281 130.347656 306.40625 128.597656 305.316406 126.945312 C 305.054688 126.554688 304.789062 126.1875 304.515625 125.84375 C 307.335938 124.847656 309.472656 123.390625 310.902344 121.480469 C 311.722656 121.222656 313.070312 120.886719 314.605469 120.875 C 317.105469 120.855469 319.136719 121.65625 320.773438 123.316406 C 320.480469 123.957031 320.15625 124.59375 319.792969 125.222656 C 317.816406 128.644531 314.894531 131.371094 311.105469 133.324219 C 310 133.890625 308.824219 134.394531 307.574219 134.828125 Z M 314.320312 115.476562 C 313.878906 115.484375 313.449219 115.511719 313.035156 115.550781 C 313.089844 113.75 312.660156 111.859375 311.734375 109.8125 C 311.304688 108.859375 310.773438 107.882812 310.167969 106.894531 C 312.792969 104.117188 315.015625 103.105469 316.480469 102.761719 C 317.753906 102.460938 318.589844 102.640625 318.597656 102.640625 L 318.632812 102.546875 C 319.304688 103.691406 319.917969 104.859375 320.449219 106.050781 C 322.226562 110.058594 322.871094 113.949219 322.390625 117.695312 C 321.75 117.273438 321.078125 116.910156 320.371094 116.605469 C 318.527344 115.808594 316.492188 115.425781 314.320312 115.476562 Z M 321.90625 120.167969 C 321.996094 119.828125 322.078125 119.484375 322.152344 119.140625 C 322.078125 119.484375 321.996094 119.828125 321.90625 120.167969 Z M 315.230469 97.503906 C 313.621094 97.882812 312.003906 98.597656 310.425781 99.625 C 309.269531 100.378906 308.128906 101.304688 307.015625 102.394531 C 307.101562 102.507812 307.1875 102.617188 307.273438 102.730469 C 306.019531 101.082031 304.640625 99.402344 303.230469 97.707031 C 302.191406 96.457031 301.183594 95.246094 300.234375 94.046875 C 301.46875 92.199219 303.230469 91 305.488281 90.480469 C 307.324219 90.058594 308.929688 90.214844 309.390625 90.277344 C 309.390625 90.277344 309.390625 90.273438 309.386719 90.273438 C 309.757812 90.722656 310.136719 91.175781 310.519531 91.636719 C 312.058594 93.484375 313.6875 95.445312 315.230469 97.503906 Z M 292.480469 70.082031 C 292.679688 68.816406 292.984375 67.597656 293.398438 66.441406 C 294.421875 63.59375 296.074219 61.144531 298.304688 59.160156 C 298.75 58.765625 299.226562 58.382812 299.722656 58.023438 C 299.808594 57.960938 299.894531 57.902344 299.980469 57.839844 C 301.875 58.488281 305.902344 60.476562 305.523438 65.550781 C 305.417969 65.621094 305.316406 65.695312 305.214844 65.769531 C 303.867188 66.777344 302.894531 68.085938 302.328125 69.664062 C 302.191406 70.042969 302.082031 70.4375 301.992188 70.851562 C 301.5625 70.679688 301.101562 70.515625 300.609375 70.367188 C 298.601562 69.765625 295.773438 69.351562 292.480469 70.082031 Z M 292.304688 75.742188 C 294.503906 74.972656 296.707031 74.882812 298.867188 75.488281 C 300.507812 75.945312 301.65625 76.6875 302.066406 76.976562 C 302.597656 79.667969 303.726562 82.480469 305.355469 85.003906 C 305.082031 85.046875 304.804688 85.097656 304.523438 85.160156 C 301.46875 85.808594 298.90625 87.277344 296.957031 89.46875 C 295.0625 86.375 293.667969 82.972656 292.894531 79.519531 C 292.605469 78.246094 292.410156 76.980469 292.304688 75.742188 Z M 286.972656 137.382812 C 291.703125 137.878906 296.160156 137.871094 300.234375 137.359375 C 304.296875 136.847656 307.921875 135.824219 311.003906 134.3125 C 311.167969 134.234375 311.328125 134.152344 311.488281 134.070312 C 315.421875 132.042969 318.460938 129.207031 320.519531 125.640625 C 324.097656 119.441406 324.332031 112.738281 321.214844 105.710938 C 318.808594 100.292969 314.746094 95.40625 311.164062 91.097656 C 309.457031 89.050781 307.847656 87.113281 306.589844 85.339844 C 303.078125 80.371094 301.648438 74.042969 303.117188 69.949219 C 303.636719 68.507812 304.484375 67.363281 305.71875 66.445312 C 306.761719 65.664062 308.105469 65.050781 309.707031 64.621094 C 311.023438 64.265625 312.535156 63.992188 314.335938 63.785156 C 314.980469 63.707031 315.589844 63.527344 316.140625 63.253906 C 318.207031 62.246094 319.515625 60.007812 319.234375 57.589844 C 318.878906 54.53125 316.101562 52.328125 313.042969 52.683594 C 310.6875 52.953125 308.644531 53.328125 306.792969 53.828125 C 303.921875 54.601562 301.375 55.785156 299.230469 57.34375 C 298.714844 57.71875 298.214844 58.117188 297.75 58.53125 C 295.410156 60.609375 293.679688 63.175781 292.609375 66.15625 C 291.171875 70.167969 290.984375 74.851562 292.074219 79.703125 C 293.03125 83.964844 294.902344 88.144531 297.480469 91.789062 C 298.992188 93.921875 300.738281 96.019531 302.585938 98.242188 C 306.050781 102.410156 309.300781 106.457031 310.96875 110.15625 C 312.640625 113.863281 312.605469 117.003906 310.851562 120.042969 C 309.828125 121.8125 308.226562 123.234375 306.0625 124.289062 C 304.109375 125.246094 301.691406 125.910156 298.828125 126.269531 C 293.746094 126.910156 287.332031 126.503906 281.234375 125.15625 C 281.144531 125.136719 281.054688 125.117188 280.964844 125.101562 L 281.429688 126.058594 C 287.242188 127.300781 293.308594 127.703125 298.261719 127.179688 C 298.6875 127.507812 299.921875 128.527344 300.898438 130.054688 C 302.1875 132.074219 302.511719 134.117188 301.882812 136.265625 C 301.304688 136.363281 300.722656 136.449219 300.128906 136.523438 C 295.972656 137.046875 291.398438 137.039062 286.535156 136.492188 L 286.972656 137.382812 " fill-opacity="1" fill-rule="nonzero"/><path fill="#ffd852" d="M 307.574219 134.828125 C 307.621094 133.933594 307.570312 133.039062 307.417969 132.148438 C 307.113281 130.347656 306.40625 128.597656 305.316406 126.945312 C 305.054688 126.554688 304.789062 126.1875 304.515625 125.84375 C 307.335938 124.847656 309.472656 123.390625 310.902344 121.480469 C 311.722656 121.222656 313.070312 120.886719 314.605469 120.875 C 317.105469 120.855469 319.136719 121.65625 320.773438 123.316406 C 320.480469 123.957031 320.15625 124.59375 319.792969 125.222656 C 317.816406 128.644531 314.894531 131.371094 311.105469 133.324219 C 310 133.890625 308.824219 134.394531 307.574219 134.828125 Z M 314.320312 115.476562 C 313.878906 115.484375 313.449219 115.511719 313.035156 115.550781 C 313.089844 113.75 312.660156 111.859375 311.734375 109.8125 C 311.304688 108.859375 310.773438 107.882812 310.167969 106.894531 C 312.792969 104.117188 315.015625 103.105469 316.480469 102.761719 C 317.753906 102.460938 318.589844 102.640625 318.597656 102.640625 L 318.632812 102.546875 C 319.304688 103.691406 319.917969 104.859375 320.449219 106.050781 C 322.226562 110.058594 322.871094 113.949219 322.390625 117.695312 C 321.75 117.273438 321.078125 116.910156 320.371094 116.605469 C 318.527344 115.808594 316.492188 115.425781 314.320312 115.476562 Z M 321.90625 120.167969 C 321.996094 119.828125 322.078125 119.484375 322.152344 119.140625 C 322.078125 119.484375 321.996094 119.828125 321.90625 120.167969 Z M 315.230469 97.503906 C 313.621094 97.882812 312.003906 98.597656 310.425781 99.625 C 309.269531 100.378906 308.128906 101.304688 307.015625 102.394531 C 307.101562 102.507812 307.1875 102.617188 307.273438 102.730469 C 306.019531 101.082031 304.640625 99.402344 303.230469 97.707031 C 302.191406 96.457031 301.183594 95.246094 300.234375 94.046875 C 301.46875 92.199219 303.230469 91 305.488281 90.480469 C 307.324219 90.058594 308.929688 90.214844 309.390625 90.277344 C 309.390625 90.277344 309.390625 90.273438 309.386719 90.273438 C 309.757812 90.722656 310.136719 91.175781 310.519531 91.636719 C 312.058594 93.484375 313.6875 95.445312 315.230469 97.503906 Z M 292.480469 70.082031 C 292.679688 68.816406 292.984375 67.597656 293.398438 66.441406 C 294.421875 63.59375 296.074219 61.144531 298.304688 59.160156 C 298.75 58.765625 299.226562 58.382812 299.722656 58.023438 C 299.808594 57.960938 299.894531 57.902344 299.980469 57.839844 C 301.875 58.488281 305.902344 60.476562 305.523438 65.550781 C 305.417969 65.621094 305.316406 65.695312 305.214844 65.769531 C 303.867188 66.777344 302.894531 68.085938 302.328125 69.664062 C 302.191406 70.042969 302.082031 70.4375 301.992188 70.851562 C 301.5625 70.679688 301.101562 70.515625 300.609375 70.367188 C 298.601562 69.765625 295.773438 69.351562 292.480469 70.082031 Z M 292.304688 75.742188 C 294.503906 74.972656 296.707031 74.882812 298.867188 75.488281 C 300.507812 75.945312 301.65625 76.6875 302.066406 76.976562 C 302.597656 79.667969 303.726562 82.480469 305.355469 85.003906 C 305.082031 85.046875 304.804688 85.097656 304.523438 85.160156 C 301.46875 85.808594 298.90625 87.277344 296.957031 89.46875 C 295.0625 86.375 293.667969 82.972656 292.894531 79.519531 C 292.605469 78.246094 292.410156 76.980469 292.304688 75.742188 Z M 286.972656 137.382812 C 291.703125 137.878906 296.160156 137.871094 300.234375 137.359375 C 304.296875 136.847656 307.921875 135.824219 311.003906 134.3125 C 311.167969 134.234375 311.328125 134.152344 311.488281 134.070312 C 315.421875 132.042969 318.460938 129.207031 320.519531 125.640625 C 324.097656 119.441406 324.332031 112.738281 321.214844 105.710938 C 318.808594 100.292969 314.746094 95.40625 311.164062 91.097656 C 309.457031 89.050781 307.847656 87.113281 306.589844 85.339844 C 303.078125 80.371094 301.648438 74.042969 303.117188 69.949219 C 303.636719 68.507812 304.484375 67.363281 305.71875 66.445312 C 306.761719 65.664062 308.105469 65.050781 309.707031 64.621094 C 311.023438 64.265625 312.535156 63.992188 314.335938 63.785156 C 314.980469 63.707031 315.589844 63.527344 316.140625 63.253906 C 318.207031 62.246094 319.515625 60.007812 319.234375 57.589844 C 318.878906 54.53125 316.101562 52.328125 313.042969 52.683594 C 310.6875 52.953125 308.644531 53.328125 306.792969 53.828125 C 303.921875 54.601562 301.375 55.785156 299.230469 57.34375 C 298.714844 57.71875 298.214844 58.117188 297.75 58.53125 C 295.410156 60.609375 293.679688 63.175781 292.609375 66.15625 C 291.171875 70.167969 290.984375 74.851562 292.074219 79.703125 C 293.03125 83.964844 294.902344 88.144531 297.480469 91.789062 C 298.992188 93.921875 300.738281 96.019531 302.585938 98.242188 C 306.050781 102.410156 309.300781 106.457031 310.96875 110.15625 C 312.640625 113.863281 312.605469 117.003906 310.851562 120.042969 C 309.828125 121.8125 308.226562 123.234375 306.0625 124.289062 C 304.109375 125.246094 301.691406 125.910156 298.828125 126.269531 C 293.746094 126.910156 287.332031 126.503906 281.234375 125.15625 C 281.144531 125.136719 281.054688 125.117188 280.964844 125.101562 L 281.429688 126.058594 C 287.242188 127.300781 293.308594 127.703125 298.261719 127.179688 C 298.6875 127.507812 299.921875 128.527344 300.898438 130.054688 C 302.1875 132.074219 302.511719 134.117188 301.882812 136.265625 C 301.304688 136.363281 300.722656 136.449219 300.128906 136.523438 C 295.972656 137.046875 291.398438 137.039062 286.535156 136.492188 L 286.972656 137.382812 " fill-opacity="1" fill-rule="nonzero"/></g></g></g><g clip-path="url(#31530d58c5)"><g clip-path="url(#177af5e497)"><g clip-path="url(#d421770bdd)"><path fill="#ffd852" d="M 316.394531 102.78125 C 316.425781 102.773438 316.453125 102.765625 316.480469 102.761719 C 317.753906 102.460938 318.589844 102.640625 318.597656 102.640625 L 318.632812 102.546875 C 319.304688 103.691406 319.917969 104.859375 320.449219 106.050781 C 322.226562 110.058594 322.871094 113.949219 322.390625 117.695312 C 321.761719 117.28125 321.097656 116.921875 320.40625 116.621094 C 320.539062 113.316406 319.832031 109.90625 318.285156 106.417969 C 317.734375 105.175781 317.097656 103.964844 316.394531 102.78125 " fill-opacity="1" fill-rule="nonzero"/></g></g></g><g clip-path="url(#a9d7471510)"><g clip-path="url(#08a1430f0e)"><g clip-path="url(#1ff668df0e)"><path fill="#ffd852" d="M 313.273438 98.128906 C 311.652344 95.9375 309.921875 93.859375 308.292969 91.902344 C 307.828125 91.34375 307.371094 90.792969 306.925781 90.25 C 308.117188 90.136719 309.058594 90.234375 309.390625 90.277344 C 309.390625 90.277344 309.390625 90.273438 309.386719 90.273438 C 309.757812 90.722656 310.136719 91.175781 310.519531 91.636719 C 312.058594 93.484375 313.6875 95.445312 315.230469 97.503906 C 314.578125 97.65625 313.925781 97.867188 313.273438 98.128906 " fill-opacity="1" fill-rule="nonzero"/></g></g></g><g clip-path="url(#73218ac91f)"><g clip-path="url(#940cb2f3ca)"><g clip-path="url(#dec7823a7b)"><path fill="#ffd852" d="M 322.152344 119.140625 C 322.078125 119.484375 321.996094 119.828125 321.90625 120.167969 C 321.996094 119.828125 322.078125 119.484375 322.152344 119.140625 " fill-opacity="1" fill-rule="nonzero"/></g></g></g><g clip-path="url(#27401bbd70)"><g clip-path="url(#e04b7121df)"><g clip-path="url(#3290668435)"><path fill="#ffd852" d="M 305.214844 65.769531 C 303.867188 66.773438 302.894531 68.085938 302.328125 69.664062 C 302.191406 70.042969 302.082031 70.4375 301.988281 70.851562 C 301.5625 70.679688 301.101562 70.515625 300.609375 70.367188 C 300.480469 70.328125 300.347656 70.289062 300.210938 70.253906 C 300.753906 68.785156 301.652344 67.585938 302.921875 66.640625 C 303.664062 66.085938 304.539062 65.617188 305.542969 65.234375 C 305.539062 65.339844 305.53125 65.445312 305.523438 65.550781 C 305.421875 65.621094 305.316406 65.695312 305.214844 65.769531 " fill-opacity="1" fill-rule="nonzero"/></g></g></g><g clip-path="url(#e210e008f9)"><g clip-path="url(#abbb621037)"><g clip-path="url(#8acfb11787)"><path fill="#ffd852" d="M 304.519531 85.160156 C 304.09375 85.25 303.675781 85.355469 303.269531 85.480469 C 301.257812 82.421875 300 78.925781 299.671875 75.746094 C 300.882812 76.1875 301.726562 76.734375 302.066406 76.976562 C 302.597656 79.667969 303.726562 82.480469 305.355469 85.003906 C 305.082031 85.046875 304.804688 85.097656 304.519531 85.160156 " fill-opacity="1" fill-rule="nonzero"/></g></g></g><g clip-path="url(#64a2f6d7a3)"><g clip-path="url(#54dc680f9d)"><g clip-path="url(#8038f099fe)"><path fill="#ffd852" d="M 311.105469 133.324219 C 310.003906 133.890625 308.824219 134.394531 307.574219 134.828125 C 307.574219 134.820312 307.574219 134.808594 307.574219 134.800781 C 307.8125 134.691406 308.042969 134.582031 308.273438 134.472656 C 308.433594 134.394531 308.59375 134.3125 308.75 134.230469 C 312.609375 132.242188 315.589844 129.460938 317.609375 125.964844 C 318.328125 124.71875 318.910156 123.449219 319.355469 122.15625 C 319.859375 122.480469 320.332031 122.867188 320.773438 123.316406 C 320.480469 123.957031 320.15625 124.59375 319.792969 125.222656 C 317.816406 128.644531 314.894531 131.371094 311.105469 133.324219 " fill-opacity="1" fill-rule="nonzero"/></g></g></g></svg>