<svg xmlns="http://www.w3.org/2000/svg" xmlns:xlink="http://www.w3.org/1999/xlink" width="500" zoomAndPan="magnify" viewBox="0 0 375 374.999991" height="500" preserveAspectRatio="xMidYMid meet" version="1.0"><defs><clipPath id="3d570590e6"><path d="M 35 177 L 129 177 L 129 286 L 35 286 Z M 35 177 " clip-rule="nonzero"/></clipPath><clipPath id="228c53800e"><path d="M 100.34375 0 L 374.980469 109.066406 L 274.5 362.09375 L -0.136719 253.027344 Z M 100.34375 0 " clip-rule="nonzero"/></clipPath><clipPath id="382c2ad95f"><path d="M 100.34375 0 L 374.980469 109.066406 L 274.5 362.09375 L -0.136719 253.027344 Z M 100.34375 0 " clip-rule="nonzero"/></clipPath><clipPath id="daf7ad27f3"><path d="M 100.34375 0 L 374.980469 109.066406 L 274.5 362.09375 L -0.136719 253.027344 Z M 100.34375 0 " clip-rule="nonzero"/></clipPath><clipPath id="a51facbd02"><path d="M 144 71 L 224 71 L 224 244 L 144 244 Z M 144 71 " clip-rule="nonzero"/></clipPath><clipPath id="d7bebf1979"><path d="M 100.34375 0 L 374.980469 109.066406 L 274.5 362.09375 L -0.136719 253.027344 Z M 100.34375 0 " clip-rule="nonzero"/></clipPath><clipPath id="439d32ef61"><path d="M 100.34375 0 L 374.980469 109.066406 L 274.5 362.09375 L -0.136719 253.027344 Z M 100.34375 0 " clip-rule="nonzero"/></clipPath><clipPath id="40b8924f40"><path d="M 100.34375 0 L 374.980469 109.066406 L 274.5 362.09375 L -0.136719 253.027344 Z M 100.34375 0 " clip-rule="nonzero"/></clipPath><clipPath id="1a2d16d3f2"><path d="M 287 98 L 334 98 L 334 233 L 287 233 Z M 287 98 " clip-rule="nonzero"/></clipPath><clipPath id="a3734ef562"><path d="M 100.34375 0 L 374.980469 109.066406 L 274.5 362.09375 L -0.136719 253.027344 Z M 100.34375 0 " clip-rule="nonzero"/></clipPath><clipPath id="eafe11f944"><path d="M 100.34375 0 L 374.980469 109.066406 L 274.5 362.09375 L -0.136719 253.027344 Z M 100.34375 0 " clip-rule="nonzero"/></clipPath><clipPath id="4bbc16d575"><path d="M 100.34375 0 L 374.980469 109.066406 L 274.5 362.09375 L -0.136719 253.027344 Z M 100.34375 0 " clip-rule="nonzero"/></clipPath></defs><g clip-path="url(#3d570590e6)"><g clip-path="url(#228c53800e)"><g clip-path="url(#382c2ad95f)"><g clip-path="url(#daf7ad27f3)"><path fill="#e5a024" d="M 39.207031 206.671875 C 56.839844 231.78125 75.851562 255.890625 96.140625 278.894531 C 111.40625 296.082031 139.628906 274.046875 124.109375 256.695312 C 103.910156 233.652344 85 209.519531 67.464844 184.390625 C 54.132812 165.542969 26 187.679688 39.492188 206.59375 Z M 39.207031 206.671875 " fill-opacity="1" fill-rule="nonzero"/></g></g></g></g><g clip-path="url(#a51facbd02)"><g clip-path="url(#d7bebf1979)"><g clip-path="url(#439d32ef61)"><g clip-path="url(#40b8924f40)"><path fill="#e5a024" d="M 145.789062 96.960938 L 189.714844 232.492188 C 196.8125 254.492188 229.625 240.03125 222.550781 218.296875 L 178.625 82.761719 C 171.527344 60.765625 138.714844 75.226562 145.789062 96.960938 Z M 145.789062 96.960938 " fill-opacity="1" fill-rule="nonzero"/></g></g></g></g><g clip-path="url(#1a2d16d3f2)"><g clip-path="url(#a3734ef562)"><g clip-path="url(#eafe11f944)"><g clip-path="url(#4bbc16d575)"><path fill="#e5a024" d="M 297.269531 113.257812 C 291.023438 146.066406 287.816406 179.378906 287.695312 212.773438 C 287.585938 235.554688 323.234375 239.675781 323.246094 216.660156 C 323.34375 183.261719 326.53125 149.941406 332.765625 117.125 C 337.097656 94.484375 301.449219 90.683594 297.214844 113.234375 Z M 297.269531 113.257812 " fill-opacity="1" fill-rule="nonzero"/></g></g></g></g></svg>