<svg width="53" height="53" viewBox="0 0 53 53" fill="none" xmlns="http://www.w3.org/2000/svg">
<path d="M39.5061 0H13.1825C5.94272 0 0 5.94272 0 13.2238V39.5474C0 46.7899 5.94272 52.7327 13.1825 52.7327H39.5061C46.7872 52.7327 52.7299 46.7899 52.7299 39.5061V13.2238C52.7299 5.94272 46.7872 0 39.5061 0ZM33.4367 26.3649H28.4578V42.6868H22.1792V26.3649H18.8305V19.6704H21.7606V16.823C21.7606 14.1436 23.1017 9.91921 28.7497 9.91921H33.8994V15.4847H30.2561C29.6723 15.4847 28.8764 15.8619 28.8764 17.159V19.6704H34.0233L33.4367 26.3649Z" fill="white"/>
</svg>
