<svg width="54" height="53" viewBox="0 0 54 53" fill="none" xmlns="http://www.w3.org/2000/svg">
<path d="M26.4931 4.77263C33.5662 4.77263 34.4022 4.79754 37.201 4.92489C39.7811 5.04116 41.1847 5.47025 42.1259 5.84121C43.3579 6.31737 44.241 6.89872 45.1684 7.82888C46.0985 8.75628 46.6688 9.63938 47.156 10.8713C47.5159 11.8015 47.945 13.205 48.0723 15.7962C48.1997 18.595 48.2246 19.431 48.2246 26.5042C48.2246 33.5773 48.1997 34.4161 48.0723 37.2149C47.9561 39.7922 47.527 41.1985 47.156 42.1398C46.6799 43.3689 46.0985 44.252 45.1684 45.1822C44.241 46.1124 43.3579 46.6799 42.1259 47.1671C41.1958 47.527 39.7922 47.9588 37.201 48.0862C34.4022 48.2135 33.5662 48.2357 26.4931 48.2357C19.42 48.2357 18.5839 48.2135 15.7823 48.0862C13.205 47.9699 11.7987 47.5408 10.8575 47.1671C9.62831 46.6909 8.74521 46.1124 7.81504 45.1822C6.88765 44.252 6.31737 43.3689 5.83014 42.1398C5.47025 41.2096 5.03839 39.8033 4.91105 37.2149C4.7837 34.4161 4.76156 33.5773 4.76156 26.5042C4.76156 19.431 4.7837 18.595 4.91105 15.7962C5.02732 13.2161 5.45641 11.8125 5.83014 10.8713C6.30629 9.63938 6.88765 8.75628 7.81504 7.82888C8.74521 6.89872 9.62831 6.32844 10.8575 5.84121C11.7876 5.48133 13.1939 5.05223 15.7823 4.92489C18.5839 4.79754 19.42 4.77263 26.4931 4.77263ZM26.4931 0C19.2926 0 18.3957 0.03322 15.5636 0.163332C12.7399 0.290676 10.8132 0.741917 9.12724 1.39248C7.38595 2.06796 5.91042 2.9732 4.43489 4.44873C2.9732 5.92426 2.06519 7.39702 1.39248 9.14108C0.741918 10.8242 0.287908 12.7538 0.160564 15.5747C0.0332205 18.3984 0 19.3037 0 26.4931C0 33.6936 0.0332205 34.5877 0.160564 37.4225C0.287908 40.2462 0.741918 42.173 1.39248 43.8589C2.06519 45.6002 2.9732 47.0757 4.44597 48.5513C5.92149 50.024 7.39702 50.932 9.14108 51.6048C10.8242 52.2553 12.751 52.7093 15.5747 52.8367C18.3957 52.964 19.3037 53 26.5042 53C33.7046 53 34.5988 52.964 37.4336 52.8367C40.2573 52.7093 42.1841 52.2553 43.8672 51.6048C45.6113 50.932 47.0868 50.024 48.5623 48.5513C50.0351 47.0757 50.9431 45.6002 51.6158 43.8589C52.2664 42.173 52.7204 40.2462 52.8477 37.4225C52.9751 34.6016 53.0083 33.6936 53.0083 26.4931C53.0083 19.2926 52.9751 18.3984 52.8477 15.5636C52.7204 12.7399 52.2664 10.8132 51.6158 9.13001C50.9431 7.38595 50.0351 5.91042 48.5623 4.43766C47.0868 2.96213 45.6113 2.05411 43.8672 1.38141C42.1841 0.730843 40.2573 0.276835 37.4336 0.149491C34.5988 0.0332205 33.6936 0 26.4931 0Z" fill="white"/>
<path d="M43.8229 12.3574C43.8229 14.1126 42.3945 15.541 40.6393 15.541C38.887 15.541 37.4557 14.1126 37.4557 12.3574C37.4557 10.6023 38.887 9.17383 40.6393 9.17383C42.3945 9.17383 43.8229 10.5912 43.8229 12.3574Z" fill="white"/>
<path d="M26.493 12.8921C18.977 12.8921 12.8922 18.9769 12.8922 26.493C12.8922 34.009 18.9881 40.1049 26.5041 40.1049C34.0202 40.1049 40.1161 34.0201 40.1161 26.493C40.105 18.9769 34.0063 12.8921 26.493 12.8921ZM26.493 35.3323C21.6152 35.3323 17.6648 31.3819 17.6648 26.5041C17.6648 21.6262 21.6152 17.6786 26.493 17.6786C31.3709 17.6786 35.3185 21.6262 35.3185 26.5041C35.3324 31.3708 31.3709 35.3323 26.493 35.3323Z" fill="white"/>
</svg>
