<svg width="50" height="50" viewBox="0 0 50 50" fill="none" xmlns="http://www.w3.org/2000/svg">
<path d="M42.3157 7.24091C37.6617 2.56128 31.4639 0 24.8682 0C11.2786 0 0.198997 11.0764 0.198997 24.666C0.198997 29.0214 1.34483 33.2549 3.48565 36.9877L0 49.7812L13.0696 46.347C16.6804 48.3145 20.7374 49.3608 24.8682 49.3608C38.4577 49.3608 49.5373 38.2812 49.5373 24.6916C49.5373 18.0959 46.9728 11.8981 42.3157 7.24091ZM24.8682 45.1786C21.1835 45.1786 17.5759 44.1805 14.4144 42.3157L13.6666 41.8663L5.89929 43.9076L7.96628 36.3393L7.46879 35.569C5.42747 32.3081 4.33299 28.5239 4.33299 24.666C4.33299 13.3649 13.5414 4.15646 24.8425 4.15646C30.3181 4.15646 35.4728 6.29728 39.3307 10.1809C43.2144 14.0614 45.3295 19.216 45.3295 24.6916C45.3777 35.9927 36.1692 45.1786 24.8682 45.1786ZM36.1179 29.8431C35.4984 29.5446 32.4589 28.0521 31.9133 27.8274C31.3388 27.6284 30.9408 27.5289 30.5171 28.1259C30.0966 28.7486 28.9251 30.1416 28.5785 30.5396C28.2286 30.9632 27.8563 31.0146 27.2337 30.6904C26.611 30.3919 24.6178 29.7211 22.278 27.6284C20.4389 25.9851 19.2192 23.9695 18.8437 23.3468C18.4971 22.7241 18.7956 22.4 19.1197 22.079C19.3925 21.803 19.7392 21.3568 20.0377 21.007C20.3394 20.6603 20.4613 20.3843 20.6603 19.9863C20.8593 19.5627 20.7598 19.216 20.6122 18.9175C20.4613 18.619 19.2192 15.5827 18.7185 14.3374C18.221 13.1434 17.6979 13.291 17.3255 13.2654C16.9532 13.2654 16.5552 13.2654 16.1316 13.2654C15.7079 13.2654 15.0596 13.4162 14.4882 14.0389C13.9394 14.6616 12.3474 16.154 12.3474 19.1903C12.3474 22.2266 14.5621 25.1634 14.8606 25.5614C15.159 25.9851 19.2192 32.2086 25.3913 34.8726C26.8581 35.5209 28.004 35.8932 28.8994 36.166C30.3695 36.6411 31.7143 36.564 32.7831 36.4164C33.9771 36.2399 36.4421 34.9207 36.9396 33.4796C37.4627 32.0352 37.4627 30.8156 37.2894 30.5396C37.1161 30.2667 36.7406 30.1416 36.1179 29.8431Z" fill="white"/>
</svg>
